<?xml version="1.0" encoding="utf-8"?>
<!-- Generator: Adobe Illustrator 26.0.3, SVG Export Plug-In . SVG Version: 6.00 Build 0)  -->
<svg version="1.1" xmlns="http://www.w3.org/2000/svg" xmlns:xlink="http://www.w3.org/1999/xlink" x="0px" y="0px"
	 viewBox="0 0 657 135" style="enable-background:new 0 0 657 135;" xml:space="preserve">
<style type="text/css">
	.st0{fill:#550700;}
	.st1{fill:#D7D8DA;}
	.st2{fill:#E2E3E4;}
	.st3{fill:#231F20;}
	.st4{fill:#932923;}
	.st5{fill:#FFFFFF;}
	.st6{fill:#C6E9FA;}
	.st7{fill:#EC1C24;}
	.st8{fill:#C4C3C3;}
	.st9{fill:url(#SVGID_1_);}
	.st10{fill:url(#SVGID_00000109003212464286036740000008811405881315825539_);}
	.st11{fill:#A6A8AB;}
	.st12{fill:#A4A7A9;}
	.st13{fill:url(#SVGID_00000036238291125425750480000009155968932162327208_);}
	.st14{fill:url(#SVGID_00000169549897124287655930000000372929785415917451_);}
	.st15{fill:url(#SVGID_00000030481750604704229420000005892679622383001530_);}
	.st16{fill:url(#SVGID_00000065755004257381875180000008217244047563794857_);}
	.st17{fill:#BDCCD4;}
	.st18{fill:#6E90A2;}
	.st19{fill:url(#SVGID_00000115517133339359285470000016790749479579030408_);}
	.st20{fill:url(#SVGID_00000088847194084870820140000005413611398758844561_);}
	.st21{fill:#67686B;}
</style>
<g id="Ship">
</g>
<g id="Short-ship">
	<rect x="577.2" y="40.02" class="st0" width="2.84" height="26.89"/>
	<g>
		<g>
			<polygon class="st1" points="27.5,51.54 56.19,51.54 56.19,55.56 29.99,55.56 27.5,54.75 			"/>
			<g>
				<path class="st2" d="M50.36,54.83c0,1.32,1.07,2.39,2.4,2.39c1.33,0,2.4-1.07,2.4-2.39c0-1.33-1.07-2.4-2.4-2.4
					C51.43,52.43,50.36,53.51,50.36,54.83z"/>
				<path class="st3" d="M55.48,54.83c0,1.51-1.22,2.72-2.73,2.72l0,0c-1.5,0-2.72-1.22-2.73-2.72l0,0c0-1.51,1.22-2.74,2.73-2.74
					l0,0C54.26,52.1,55.48,53.32,55.48,54.83L55.48,54.83z M54.82,54.83c0-1.15-0.92-2.07-2.07-2.07l0,0
					c-1.14,0-2.07,0.93-2.07,2.07l0,0c0,1.14,0.92,2.06,2.07,2.06l0,0C53.9,56.9,54.82,55.97,54.82,54.83L54.82,54.83z"/>
			</g>
			<g>
				<path class="st1" d="M28.39,54.83c0,1.32,1.07,2.39,2.4,2.39c1.33,0,2.4-1.07,2.4-2.39c0-1.33-1.07-2.4-2.4-2.4
					C29.47,52.43,28.39,53.51,28.39,54.83z"/>
				<path class="st3" d="M33.52,54.83c0,1.51-1.22,2.72-2.73,2.72l0,0c-1.51,0-2.73-1.22-2.73-2.72l0,0c0-1.51,1.22-2.74,2.73-2.74
					l0,0C32.3,52.1,33.52,53.32,33.52,54.83L33.52,54.83z M32.86,54.83c0-1.15-0.93-2.07-2.07-2.07l0,0c-1.14,0-2.06,0.93-2.07,2.07
					l0,0c0,1.14,0.93,2.06,2.07,2.06l0,0C31.93,56.9,32.86,55.97,32.86,54.83L32.86,54.83z"/>
			</g>
			<g>
				<path class="st4" d="M55.9,56.09c0,0,0.72-4.07-3.29-4.07c-3.3,0-3.41,3.96-3.41,3.96l-14.82-0.33c0,0-0.41-3.85-3.46-3.85
					c-3.27,0-3.18,3.13-3.18,3.13s-1.04,0.33-1.7-0.44c-0.66-0.76-0.49-2.96-0.49-2.96l0.6-0.72l0.22-2.58c0,0,0.11-1.59,2.58-2.58
					l-0.11-0.61c0,0,7.64-1.37,13.13-0.33c5.49,1.05,6.2,3.3,9.72,4.01c3.51,0.72,8.89,1.76,7.03,6.31l0.22,0.49
					C58.92,55.54,58.76,56.15,55.9,56.09z"/>
				<path class="st5" d="M58.7,52.03c0,0-2.47-0.05-5.16-1.92l3.57,0.38C57.11,50.49,57.93,50.93,58.7,52.03z"/>
				<path class="st6" d="M50.52,49.61c0,0-4.72-4.28-11.15-4.78c-6.42-0.5-8.57,1.21-8.57,1.21s1.1,1.26,2.53,1.48
					C34.76,47.75,50.52,49.61,50.52,49.61z"/>
				<path class="st3" d="M48.21,55.57c0.64-1.13,0.83-2.3,0.83-3.32l0,0c0-1.63-0.5-2.87-0.5-2.88l0,0c0,0-0.75-1.57-2.3-2.63l0,0
					c-0.03-0.02-0.06-0.01-0.07,0.02l0,0c-0.02,0.02-0.01,0.06,0.01,0.08l0,0c1.52,1.03,2.26,2.58,2.26,2.58l0,0
					c0,0,0.49,1.22,0.49,2.83l0,0c0,1-0.19,2.14-0.81,3.25l0,0l-10.26-0.27c0,0-0.05,0.02-0.14,0.02l0,0c-0.22,0-0.69-0.14-1.05-1.3
					l0,0c-0.49-1.63-0.49-5.8-0.49-5.8l0,0c0.01,0,0.2-2.15,1.82-3.34l0,0c0.02-0.01,0.03-0.05,0.01-0.08l0,0
					c-0.02-0.02-0.05-0.03-0.08-0.01l0,0c-1.67,1.22-1.86,3.41-1.86,3.42l0,0c0,0.01,0,4.17,0.5,5.84l0,0
					c0.35,1.18,0.87,1.38,1.15,1.38l0,0c0.1,0,0.16-0.02,0.16-0.02l0,0l10.3,0.27L48.21,55.57L48.21,55.57z"/>
				<path class="st7" d="M26.49,49.98c0,0,2.8,0.04,2.89-1v-0.98l-2.71,0.36C26.67,48.35,26.47,48.95,26.49,49.98z"/>
			</g>
		</g>
		<polygon class="st8" points="52.73,54.13 51.5,53.13 52.06,54.61 50.74,55.47 52.32,55.39 52.73,56.92 53.14,55.39 54.72,55.47 
			53.4,54.61 53.96,53.13 		"/>
		<polygon class="st8" points="30.6,54.16 29.14,53.57 30.1,54.82 29.08,56.03 30.57,55.5 31.4,56.84 31.36,55.26 32.89,54.88 
			31.38,54.44 31.5,52.86 		"/>
	</g>
	<g>
		<linearGradient id="SVGID_1_" gradientUnits="userSpaceOnUse" x1="15.1281" y1="54.1495" x2="24.2539" y2="54.1495">
			<stop  offset="0" style="stop-color:#FFFFFF"/>
			<stop  offset="1" style="stop-color:#231F20"/>
		</linearGradient>
		<line class="st9" x1="15.13" y1="51.61" x2="24.25" y2="56.69"/>
		<path class="st3" d="M23.89,57.33l-9.13-5.08c-0.35-0.19-0.48-0.64-0.28-1l0,0c0.2-0.36,0.65-0.49,1-0.29l0,0l9.13,5.07
			c0.36,0.2,0.48,0.65,0.29,1l0,0c-0.14,0.24-0.39,0.38-0.65,0.38l0,0C24.13,57.42,24.01,57.39,23.89,57.33L23.89,57.33z"/>
	</g>
	<g>
		<rect x="17.87" y="55.7" class="st0" width="3.24" height="15.97"/>
		<polygon class="st0" points="95.42,55.74 17.53,55.74 19.03,53.71 95.42,53.71 		"/>
		<path class="st0" d="M20.37,55.34c0,0.95-0.76,1.71-1.71,1.71c-0.94,0-1.71-0.76-1.71-1.71c0-0.94,0.77-1.71,1.71-1.71
			C19.6,53.63,20.37,54.4,20.37,55.34z"/>
	</g>
	<g>
		<rect x="105.72" y="61.3" class="st5" width="18.37" height="15.52"/>
		<path class="st3" d="M104.98,77.57v-17h19.85v16.26v0.74H104.98L104.98,77.57z M124.09,76.83v-0.74V76.83L124.09,76.83z
			 M106.45,76.09h16.89l0-14.05h-16.89V76.09L106.45,76.09z"/>
	</g>
	<g>
		<polygon class="st5" points="139.83,60.69 124.09,60.69 116.21,80.86 139.83,80.86 		"/>
		<path class="st3" d="M115.67,81.23l8.17-20.92h16v0.37v-0.37h0.37v20.92H115.67L115.67,81.23z M116.75,80.49h22.71V61.05h-15.12
			L116.75,80.49L116.75,80.49z"/>
	</g>
	<g>
		<rect x="22.4" y="57.58" class="st5" width="84.63" height="22.35"/>
		<path class="st3" d="M22.03,80.3V57.21h85.37v22.72v0.37H22.03L22.03,80.3z M107.03,79.93v-0.37V79.93L107.03,79.93z M22.77,79.56
			h83.89V57.95H22.77V79.56L22.77,79.56z"/>
	</g>
	<g>
		<g>
			<path class="st6" d="M40.77,72.72c0,0.31-0.26,0.57-0.57,0.57H27.23c-0.31,0-0.57-0.26-0.57-0.57v-9.74
				c0-0.31,0.26-0.57,0.57-0.57h12.97c0.31,0,0.57,0.26,0.57,0.57V72.72z"/>
		</g>
		<path class="st3" d="M26.29,73.65V62.04h14.84v11.25v0.37H26.29L26.29,73.65z M40.77,73.28v-0.37V73.28L40.77,73.28z M27.03,72.91
			H40.4V62.78H27.03V72.91L27.03,72.91z"/>
	</g>
	<g>
		<g>
			<path class="st6" d="M59.63,72.72c0,0.31-0.26,0.57-0.57,0.57H46.09c-0.31,0-0.57-0.26-0.57-0.57v-9.74
				c0-0.31,0.26-0.57,0.57-0.57h12.97c0.31,0,0.57,0.26,0.57,0.57V72.72z"/>
		</g>
		<path class="st3" d="M45.16,73.65V62.04H60v11.24v0.37H45.16L45.16,73.65z M59.64,73.28v-0.36V73.28L59.64,73.28z M45.89,72.92
			h13.37V62.78H45.89V72.92L45.89,72.92z"/>
	</g>
	<g>
		<g>
			<path class="st6" d="M78.5,72.72c0,0.31-0.26,0.57-0.57,0.57H64.96c-0.31,0-0.57-0.26-0.57-0.57v-9.74
				c0-0.31,0.26-0.57,0.57-0.57h12.97c0.31,0,0.57,0.26,0.57,0.57V72.72z"/>
		</g>
		<path class="st3" d="M64.02,73.65V62.04h14.84v11.24v0.37H64.02L64.02,73.65z M78.5,73.28v-0.36V73.28L78.5,73.28z M64.76,72.92
			h13.37V62.78H64.76V72.92L64.76,72.92z"/>
	</g>
	<g>
		<g>
			<path class="st6" d="M97.36,72.72c0,0.31-0.26,0.57-0.57,0.57H83.82c-0.31,0-0.57-0.26-0.57-0.57v-9.74
				c0-0.31,0.26-0.57,0.57-0.57h12.97c0.31,0,0.57,0.26,0.57,0.57V72.72z"/>
		</g>
		<path class="st3" d="M82.89,73.65V62.04h14.84v11.25v0.37H82.89L82.89,73.65z M97.36,73.28v-0.37V73.28L97.36,73.28z M83.62,72.91
			h13.36V62.78H83.62V72.91L83.62,72.91z"/>
	</g>
	<g>
		<g>
			<path class="st6" d="M136.35,74.22c0,0.31-0.26,0.57-0.57,0.57h-12.97c-0.31,0-0.48-0.24-0.37-0.53l3.55-9.8
				c0.11-0.29,0.45-0.53,0.76-0.53h9.03c0.31,0,0.57,0.26,0.57,0.57V74.22z"/>
		</g>
		<path class="st3" d="M121.72,75.15l4.21-11.61h10.79v11.24v0.37H121.72L121.72,75.15z M136.35,74.79v-0.38V74.79L136.35,74.79z
			 M122.77,74.41h13.21V64.29h-9.54L122.77,74.41L122.77,74.41z"/>
	</g>
	<g>
		<polygon class="st5" points="51.14,57.42 107.69,52.3 143.15,50.75 139.83,60.69 124.09,60.69 124.87,57.53 106.31,57.52 		"/>
		<path class="st3" d="M123.61,61.05l0.11-0.46l0.67-2.7l-18.08-0.01l-55.17-0.1v-0.37l0.03,0.37l-0.03-0.37v0.37l-0.04-0.74
			l56.56-5.12l36-1.58l-3.57,10.7H123.61L123.61,61.05z M106.32,57.15l19.02,0.01l-0.11,0.46l-0.67,2.69h15l3.07-9.18l-34.91,1.53
			l-48.56,4.4L106.32,57.15L106.32,57.15z"/>
	</g>
	
		<linearGradient id="SVGID_00000077297567484019525830000010953062884439819401_" gradientUnits="userSpaceOnUse" x1="6" y1="54.834" x2="15.1281" y2="54.834">
		<stop  offset="0" style="stop-color:#FFFFFF"/>
		<stop  offset="1" style="stop-color:#231F20"/>
	</linearGradient>
	
		<rect x="6" y="51.61" style="fill:url(#SVGID_00000077297567484019525830000010953062884439819401_);" width="9.13" height="6.44"/>
	<g>
		<polygon class="st11" points="595.9,3.53 592.78,3.53 592.78,53.75 597.54,53.75 		"/>
		<rect x="587.93" y="10.68" class="st11" width="6.84" height="3.01"/>
	</g>
	<g>
		<rect x="600.7" y="47.93" class="st12" width="5.67" height="16.77"/>
		<rect x="598.97" y="45.46" class="st12" width="8.88" height="3.95"/>
	</g>
	<g>
		<rect x="583.06" y="53.88" class="st5" width="23.2" height="22.35"/>
		<path class="st3" d="M582.69,76.6V53.51h23.93v22.72v0.37H582.69L582.69,76.6z M606.26,76.23v-0.37V76.23L606.26,76.23z
			 M583.42,75.86h22.47V54.24h-22.47V75.86L583.42,75.86z"/>
	</g>
	
		<linearGradient id="SVGID_00000158739659281306004690000006748107292848813243_" gradientUnits="userSpaceOnUse" x1="579.8626" y1="14.5038" x2="589.4413" y2="14.5038">
		<stop  offset="0" style="stop-color:#FFFFFF"/>
		<stop  offset="0.8297" style="stop-color:#F6921E"/>
	</linearGradient>
	<polygon style="fill:url(#SVGID_00000158739659281306004690000006748107292848813243_);" points="589.44,17.03 579.86,14.46 
		589.44,11.98 	"/>
	<g>
		<polygon class="st5" points="9.95,78.4 11.06,70.87 24.01,71.67 26.23,73.73 96.92,76.87 160.18,76.92 186.26,82.59 117.63,82.48 
			49.72,82.29 		"/>
		<path class="st3" d="M117.62,82.85l-67.93-0.19l-39.78-3.9l0.04-0.36l0.36,0.05L9.95,78.4l-0.04,0.36l-0.39-0.05l1.22-8.24
			l13.43,0.83l2.21,2.06l70.54,3.13l63.33,0.05l26.09,5.67l-0.08,0.73L117.62,82.85L117.62,82.85z M49.73,81.92l67.9,0.19l65.17,0.1
			l-22.62-4.93L96.9,77.23l-70.83-3.14l-2.21-2.07l-12.48-0.77l-1,6.81L49.73,81.92L49.73,81.92z"/>
	</g>
	<rect x="38.44" y="102.69" class="st3" width="90.65" height="13.32"/>
	<rect x="18.09" y="104.67" class="st3" width="14.06" height="11.1"/>
	<rect x="26.23" y="98.74" class="st3" width="3.95" height="7.16"/>
	<path class="st5" d="M74.23,84.09c-44.6-0.92-63.58-3.24-63.59-3.24l0,0h0.01c-0.21-0.02-0.35-0.21-0.33-0.41l0,0
		c0.02-0.21,0.21-0.35,0.41-0.32l0,0c0.06,0,18.94,2.31,63.52,3.24l0,0c0.2,0,0.36,0.17,0.36,0.37l0,0
		c-0.01,0.19-0.17,0.36-0.36,0.36l0,0C74.24,84.09,74.24,84.09,74.23,84.09L74.23,84.09z"/>
	<rect x="140.26" y="70.13" class="st0" width="379.53" height="13.08"/>
	<polygon class="st5" points="174.17,80.43 174.17,73.03 177.13,73.03 177.13,80.43 174.17,80.43 	"/>
	<polygon class="st5" points="150.74,80.43 150.74,73.03 153.7,73.03 153.7,80.43 150.74,80.43 	"/>
	<polygon class="st5" points="198.04,80.43 198.04,73.03 201,73.03 201,80.43 198.04,80.43 	"/>
	<polygon class="st5" points="221.91,80.43 221.91,73.03 224.86,73.03 224.86,80.43 221.91,80.43 	"/>
	<polygon class="st5" points="245.77,80.43 245.77,73.03 248.73,73.03 248.73,80.43 245.77,80.43 	"/>
	<polygon class="st5" points="269.64,80.43 269.64,73.03 272.6,73.03 272.6,80.43 269.64,80.43 	"/>
	<polygon class="st5" points="293.5,80.43 293.5,73.03 296.46,73.03 296.46,80.43 293.5,80.43 	"/>
	<polygon class="st5" points="317.37,80.43 317.37,73.03 320.33,73.03 320.33,80.43 317.37,80.43 	"/>
	<polygon class="st5" points="341.24,80.43 341.24,73.03 344.19,73.03 344.19,80.43 341.24,80.43 	"/>
	<polygon class="st5" points="365.1,80.43 365.1,73.03 368.06,73.03 368.06,80.43 365.1,80.43 	"/>
	<polygon class="st5" points="388.97,80.43 388.97,73.03 391.93,73.03 391.93,80.43 388.97,80.43 	"/>
	<polygon class="st5" points="412.83,80.43 412.83,73.03 415.79,73.03 415.79,80.43 412.83,80.43 	"/>
	<polygon class="st5" points="436.7,80.43 436.7,73.03 439.66,73.03 439.66,80.43 436.7,80.43 	"/>
	<polygon class="st5" points="460.57,80.43 460.57,73.03 463.52,73.03 463.52,80.43 460.57,80.43 	"/>
	<polygon class="st5" points="484.43,80.43 484.43,73.03 487.4,73.03 487.4,80.43 484.43,80.43 	"/>
	<polygon class="st5" points="140.32,73.58 140.32,72.1 518.68,72.1 518.68,73.58 140.32,73.58 	"/>
	<rect x="147.22" y="51.01" class="st0" width="2.22" height="20.84"/>
	<polygon class="st5" points="499.65,80.42 499.65,73.03 502.61,73.03 502.61,80.42 499.65,80.42 	"/>
	<g>
		<polygon class="st5" points="483.15,76.91 535.7,67.42 650.28,59.71 651.63,68.4 648.3,70.63 543.47,76.54 		"/>
		<path class="st3" d="M482.78,76.94c-0.02-0.19,0.12-0.36,0.3-0.39l0,0l52.59-9.51l114.58-7.71c0.19-0.02,0.36,0.13,0.4,0.32l0,0
			l1.35,8.7l-0.16,0.36l-3.34,2.22l-0.18,0.06l-104.86,5.92l-60.31,0.37C482.96,77.28,482.8,77.13,482.78,76.94L482.78,76.94z
			 M483.22,77.27l-0.07-0.37L483.22,77.27L483.22,77.27z M535.76,67.77l-48.35,8.74l56.03-0.35l104.73-5.91l3.05-2.03l-1.27-8.12
			L535.76,67.77L535.76,67.77z"/>
	</g>
	<path class="st3" d="M112.07,82.7l22.57-0.12l5.37-6.78h404.27l107.69-7.49v2.5l-10.01,40.52c0,0-2.97,4.69-7.41,4.69
		c-4.44,0-515.63,0-515.63,0s-20.59-1.95-45.14-4.81c-22.19-2.59-47.8-5.5-60.81-16.16L9.58,78.76
		C9.58,78.76,81.6,82.95,112.07,82.7z"/>
	<rect x="491.59" y="40.27" class="st0" width="2.84" height="30.59"/>
	<rect x="377.69" y="40.27" class="st0" width="2.83" height="30.59"/>
	<rect x="263.97" y="40.27" class="st0" width="2.84" height="30.59"/>
	<g>
		<line class="st3" x1="650.8" y1="71.02" x2="604.55" y2="74.35"/>
		<path class="st5" d="M604.17,74.38c-0.01-0.2,0.14-0.38,0.35-0.4l0,0l46.25-3.32c0.2-0.01,0.38,0.14,0.4,0.34l0,0
			c0.01,0.21-0.14,0.38-0.34,0.4l0,0l-46.26,3.33c-0.01,0-0.02,0-0.03,0l0,0C604.35,74.72,604.19,74.57,604.17,74.38L604.17,74.38z"
			/>
	</g>
	<g>
		<path class="st3" d="M21.73,55.01c0.04,0.03,0.1,0.05,0.16,0.05c0.09,0,0.15-0.05,0.15-0.12c0-0.06-0.04-0.11-0.13-0.14
			c-0.11-0.04-0.18-0.1-0.18-0.19c0-0.11,0.09-0.19,0.23-0.19c0.07,0,0.12,0.02,0.15,0.03l-0.03,0.07
			c-0.02-0.01-0.07-0.03-0.13-0.03c-0.1,0-0.13,0.06-0.13,0.1c0,0.07,0.04,0.1,0.14,0.13c0.12,0.05,0.18,0.11,0.18,0.21
			c0,0.11-0.08,0.2-0.24,0.2c-0.07,0-0.14-0.02-0.18-0.05L21.73,55.01z"/>
		<path class="st3" d="M22.35,54.5v0.12h0.13v0.07h-0.13v0.27c0,0.06,0.02,0.1,0.07,0.1c0.02,0,0.04,0,0.05-0.01l0.01,0.07
			c-0.02,0-0.05,0.01-0.08,0.01c-0.04,0-0.08-0.02-0.1-0.04c-0.02-0.03-0.03-0.07-0.03-0.13v-0.27h-0.08v-0.07h0.08v-0.09
			L22.35,54.5z"/>
		<path class="st3" d="M22.63,54.89c0,0.13,0.08,0.17,0.17,0.17c0.06,0,0.11-0.02,0.14-0.02l0.02,0.06
			c-0.03,0.01-0.09,0.03-0.17,0.03c-0.15,0-0.25-0.11-0.25-0.25c0-0.15,0.09-0.27,0.24-0.27c0.16,0,0.21,0.14,0.21,0.24
			c0,0.02,0,0.03,0,0.04H22.63z M22.9,54.82c0-0.05-0.02-0.14-0.13-0.14c-0.09,0-0.13,0.08-0.14,0.14H22.9z"/>
		<path class="st3" d="M23.1,54.78c0-0.06,0-0.12,0-0.16h0.08l0,0.08h0c0.04-0.06,0.09-0.1,0.18-0.1c0.12,0,0.21,0.1,0.21,0.25
			c0,0.18-0.11,0.27-0.23,0.27c-0.07,0-0.12-0.03-0.15-0.08h0v0.27H23.1V54.78z M23.19,54.92c0,0.01,0,0.03,0,0.04
			c0.02,0.06,0.07,0.11,0.13,0.11c0.1,0,0.15-0.08,0.15-0.19c0-0.1-0.05-0.19-0.15-0.19c-0.06,0-0.12,0.04-0.14,0.11
			c0,0.01,0,0.02,0,0.04V54.92z"/>
		<path class="st3" d="M23.69,54.39h0.09v0.32h0c0.01-0.03,0.04-0.05,0.06-0.06c0.03-0.02,0.06-0.03,0.1-0.03
			c0.07,0,0.17,0.04,0.17,0.21v0.3h-0.09v-0.29c0-0.08-0.03-0.15-0.12-0.15c-0.06,0-0.1,0.04-0.12,0.09
			c-0.01,0.01-0.01,0.03-0.01,0.04v0.3h-0.09V54.39z"/>
		<path class="st3" d="M24.62,55c0,0.05,0,0.08,0.01,0.12h-0.08l-0.01-0.06h0c-0.03,0.04-0.08,0.08-0.16,0.08
			c-0.1,0-0.15-0.07-0.15-0.14c0-0.12,0.11-0.19,0.3-0.19V54.8c0-0.05-0.01-0.12-0.11-0.12c-0.05,0-0.1,0.02-0.13,0.04l-0.02-0.06
			c0.04-0.02,0.1-0.04,0.17-0.04c0.15,0,0.19,0.1,0.19,0.21V55z M24.53,54.87c-0.1,0-0.21,0.01-0.21,0.11
			c0,0.06,0.04,0.09,0.09,0.09c0.06,0,0.11-0.04,0.12-0.08c0-0.01,0-0.02,0-0.03V54.87z"/>
		<path class="st3" d="M24.76,54.76c0-0.06,0-0.1,0-0.14h0.08l0.01,0.08h0c0.03-0.05,0.08-0.09,0.17-0.09
			c0.07,0,0.18,0.04,0.18,0.21v0.3H25.1v-0.29c0-0.08-0.03-0.15-0.11-0.15c-0.06,0-0.11,0.04-0.12,0.09
			c-0.01,0.01-0.01,0.03-0.01,0.04v0.3h-0.09V54.76z"/>
		<path class="st3" d="M25.56,54.39h0.09v0.74h-0.09V54.39z"/>
		<path class="st3" d="M25.85,54.89c0,0.13,0.08,0.17,0.17,0.17c0.06,0,0.11-0.02,0.14-0.02l0.02,0.06
			c-0.03,0.01-0.09,0.03-0.17,0.03c-0.15,0-0.25-0.11-0.25-0.25c0-0.15,0.09-0.27,0.24-0.27c0.16,0,0.21,0.14,0.21,0.24
			c0,0.02,0,0.03,0,0.04H25.85z M26.12,54.82c0-0.05-0.02-0.14-0.13-0.14c-0.09,0-0.13,0.08-0.14,0.14H26.12z"/>
		<path class="st3" d="M26.53,55.01c0.04,0.03,0.1,0.05,0.16,0.05c0.09,0,0.15-0.05,0.15-0.12c0-0.06-0.04-0.11-0.13-0.14
			c-0.12-0.04-0.19-0.1-0.19-0.19c0-0.11,0.09-0.19,0.23-0.19c0.07,0,0.12,0.02,0.15,0.03l-0.02,0.07
			c-0.02-0.01-0.07-0.03-0.13-0.03c-0.1,0-0.13,0.06-0.13,0.1c0,0.07,0.04,0.1,0.14,0.13c0.12,0.05,0.18,0.11,0.18,0.21
			c0,0.11-0.08,0.2-0.24,0.2c-0.07,0-0.14-0.02-0.18-0.05L26.53,55.01z"/>
		<path class="st3" d="M27.41,55c0,0.05,0,0.08,0.01,0.12h-0.08l-0.01-0.06h0c-0.03,0.04-0.08,0.08-0.16,0.08
			c-0.1,0-0.15-0.07-0.15-0.14c0-0.12,0.11-0.19,0.3-0.19V54.8c0-0.05-0.01-0.12-0.11-0.12c-0.05,0-0.1,0.02-0.13,0.04l-0.02-0.06
			c0.04-0.02,0.1-0.04,0.16-0.04c0.16,0,0.19,0.1,0.19,0.21V55z M27.32,54.87c-0.1,0-0.21,0.01-0.21,0.11
			c0,0.06,0.04,0.09,0.08,0.09c0.07,0,0.11-0.04,0.12-0.08c0-0.01,0.01-0.02,0.01-0.03V54.87z"/>
		<path class="st3" d="M27.98,55.05c0,0.12-0.02,0.19-0.07,0.23c-0.05,0.05-0.12,0.06-0.18,0.06c-0.06,0-0.13-0.01-0.17-0.04
			l0.02-0.07c0.04,0.02,0.09,0.04,0.15,0.04c0.09,0,0.16-0.05,0.16-0.18v-0.05h0c-0.03,0.05-0.08,0.08-0.16,0.08
			c-0.13,0-0.21-0.11-0.21-0.25c0-0.17,0.11-0.27,0.23-0.27c0.09,0,0.13,0.04,0.16,0.09l0,0l0-0.08h0.08c0,0.03,0,0.08,0,0.14V55.05
			z M27.89,54.82c0-0.02,0-0.03-0.01-0.04c-0.02-0.05-0.06-0.1-0.13-0.1c-0.09,0-0.15,0.08-0.15,0.19c0,0.1,0.05,0.18,0.15,0.18
			c0.06,0,0.11-0.04,0.13-0.1c0.01-0.02,0.01-0.03,0.01-0.05V54.82z"/>
		<path class="st3" d="M28.18,54.89c0,0.13,0.08,0.17,0.17,0.17c0.07,0,0.11-0.02,0.14-0.02l0.02,0.06
			c-0.03,0.01-0.09,0.03-0.17,0.03c-0.15,0-0.25-0.11-0.25-0.25c0-0.15,0.09-0.27,0.24-0.27c0.16,0,0.21,0.14,0.21,0.24
			c0,0.02,0,0.03,0,0.04H28.18z M28.45,54.82c0-0.05-0.02-0.14-0.12-0.14c-0.09,0-0.13,0.08-0.14,0.14H28.45z"/>
	</g>
</g>
<g id="Container">
</g>
<g id="Bulk">
</g>
<g id="Stuurhut">
</g>
</svg>
