<?xml version="1.0" encoding="utf-8"?>
<!-- Generator: Adobe Illustrator 26.0.3, SVG Export Plug-In . SVG Version: 6.00 Build 0)  -->
<svg version="1.1" xmlns="http://www.w3.org/2000/svg" xmlns:xlink="http://www.w3.org/1999/xlink" x="0px" y="0px"
	 viewBox="0 0 63 117" style="enable-background:new 0 0 63 117;" xml:space="preserve">
<style type="text/css">
	.st0{fill:#550700;}
	.st1{fill:#D7D8DA;}
	.st2{fill:#E2E3E4;}
	.st3{fill:#231F20;}
	.st4{fill:#932923;}
	.st5{fill:#FFFFFF;}
	.st6{fill:#C6E9FA;}
	.st7{fill:#EC1C24;}
	.st8{fill:#C4C3C3;}
	.st9{fill:url(#SVGID_1_);}
	.st10{fill:url(#SVGID_00000140008284763329880920000017550046923208177310_);}
	.st11{fill:#A6A8AB;}
	.st12{fill:#A4A7A9;}
	.st13{fill:url(#SVGID_00000065789066437159216160000017605783098523335087_);}
	.st14{fill:url(#SVGID_00000026123250971484005490000008481024197585293457_);}
	.st15{fill:url(#SVGID_00000042726723139683297840000004138056051313958822_);}
	.st16{fill:url(#SVGID_00000024689665751428569590000004070573354651921333_);}
	.st17{fill:#BDCCD4;}
	.st18{fill:#6E90A2;}
	.st19{fill:url(#SVGID_00000143579279163770814500000007266748502880597144_);}
	.st20{fill:url(#SVGID_00000014596655088705963020000010924780111671182731_);}
	.st21{fill:#67686B;}
</style>
<g id="Ship">
</g>
<g id="Short-ship">
</g>
<g id="Container">
</g>
<g id="Bulk">
</g>
<g id="Stuurhut">
	<g>
		<rect x="24.13" y="31.39" class="st5" width="11.1" height="47.36"/>
		<path class="st3" d="M23.76,79.12v-48.1H35.6v47.73v0.37H23.76L23.76,79.12z M35.22,78.75v-0.37V78.75L35.22,78.75z M24.5,78.37
			h10.36l-0.01-46.62H24.5V78.37L24.5,78.37z"/>
	</g>
	<g>
		<rect x="23.02" y="61.73" class="st5" width="13.32" height="38.3"/>
		<path class="st3" d="M22.64,100.39V61.36H36.7v38.66v0.36H22.64L22.64,100.39z M36.34,100.02v-0.37V100.02L36.34,100.02z
			 M23.38,99.65h12.58V62.1H23.38V99.65L23.38,99.65z"/>
	</g>
	<g>
		<polygon class="st11" points="12.1,30.46 5.07,29.54 4.51,28.06 12.1,28.06 		"/>
		<g>
			<rect x="12.04" y="22.01" class="st5" width="36.76" height="9.13"/>
			<path class="st3" d="M11.67,31.51v-9.87h37.49v9.49v0.37H11.67L11.67,31.51z M48.79,31.14v-0.37V31.14L48.79,31.14z M12.41,30.77
				h36.01v-8.39H12.41V30.77L12.41,30.77z"/>
		</g>
		<g>
			<polygon class="st11" points="8.04,6.53 4.92,6.53 4.92,28.26 9.68,28.26 			"/>
			<rect x="0.07" y="9.43" class="st11" width="6.84" height="1.48"/>
		</g>
		<polygon class="st3" points="50.14,22.67 10.89,22.67 10.08,11.87 54.04,10.76 		"/>
		<polygon class="st6" points="49.94,21.41 11.87,21.41 11.1,13.36 52.82,12.25 		"/>
		<polygon class="st3" points="44.65,21.94 44.65,11.64 45.39,11.64 45.39,21.94 44.65,21.94 		"/>
		<polygon class="st3" points="34.34,21.94 34.34,11.64 35.08,11.64 35.08,21.94 34.34,21.94 		"/>
		<polygon class="st3" points="35.04,22.23 35.78,22.23 35.82,31.55 35.08,31.56 35.04,22.23 		"/>
		<path class="st0" d="M9.07,11.99c-0.01-0.41,0.31-0.75,0.72-0.76l0,0l45.08-1.11c0.41-0.01,0.75,0.31,0.76,0.72l0,0
			c0.01,0.41-0.31,0.75-0.72,0.76l0,0L9.83,12.71c-0.01,0-0.02,0-0.02,0l0,0C9.41,12.71,9.08,12.39,9.07,11.99L9.07,11.99z"/>
		<path class="st11" d="M29.55,30.46v-6.57c0-0.09,0.04-0.19,0.11-0.26l0,0c0.07-0.07,0.16-0.11,0.26-0.11l0,0h10.92
			c0.2,0,0.37,0.17,0.37,0.36l0,0c0,0.21-0.16,0.37-0.37,0.37l0,0l-10.55-0.01v6.21h0.01c0,0.21-0.17,0.37-0.37,0.37l0,0
			C29.72,30.83,29.55,30.67,29.55,30.46L29.55,30.46z"/>
		<path class="st11" d="M29.92,28.24c-0.21,0-0.37-0.17-0.37-0.37l0,0c0-0.21,0.16-0.37,0.37-0.37l0,0h8.7
			c0.2,0,0.37,0.16,0.37,0.37l0,0c0,0.21-0.17,0.37-0.37,0.37l0,0H29.92L29.92,28.24z"/>
		<path class="st11" d="M34.74,30.56V23.9c0-0.21,0.16-0.37,0.36-0.37l0,0c0.21,0,0.37,0.16,0.37,0.37l0,0v6.66
			c0,0.2-0.16,0.37-0.37,0.37l0,0C34.9,30.92,34.74,30.76,34.74,30.56L34.74,30.56z"/>
		<g>
			<polygon class="st5" points="42.16,21.89 56.32,20.91 55.67,21.89 54.2,31.14 36.83,31.14 			"/>
			<path class="st3" d="M36.19,31.51l5.64-9.8l0.1-0.17l15.1-1.05l-0.41,0.62l-0.59,0.84l-1.53,9.57H36.19L36.19,31.51z
				 M37.47,30.77h16.41l1.49-9.09l0.23-0.36l-13.22,0.92L37.47,30.77L37.47,30.77z"/>
		</g>
		<rect x="29.28" y="30.09" class="st3" width="24.92" height="1.05"/>
	</g>
	<g>
		<g>
			<path class="st11" d="M34.88,116.18c0,0.31-0.26,0.57-0.57,0.57h-8.28c-0.31,0-0.57-0.26-0.57-0.57v-15.16
				c0-0.31,0.26-0.57,0.57-0.57h8.28c0.31,0,0.57,0.26,0.57,0.57V116.18z"/>
		</g>
		<path class="st3" d="M25.09,117.11v-17.03h10.16v16.66v0.37H25.09L25.09,117.11z M34.87,116.74v-0.36V116.74L34.87,116.74z
			 M25.83,116.38h8.68v-15.57h-8.68V116.38L25.83,116.38z"/>
	</g>
</g>
</svg>
