<?xml version="1.0" encoding="utf-8"?>
<!-- Generator: Adobe Illustrator 26.0.3, SVG Export Plug-In . SVG Version: 6.00 Build 0)  -->
<svg version="1.1" xmlns="http://www.w3.org/2000/svg" xmlns:xlink="http://www.w3.org/1999/xlink" x="0px" y="0px"
	 viewBox="0 0 1245 231" style="enable-background:new 0 0 1245 231;" xml:space="preserve">
<style type="text/css">
	.st0{fill:#550700;}
	.st1{fill:#D7D8DA;}
	.st2{fill:#E2E3E4;}
	.st3{fill:#231F20;}
	.st4{fill:#932923;}
	.st5{fill:#FFFFFF;}
	.st6{fill:#C6E9FA;}
	.st7{fill:#EC1C24;}
	.st8{fill:#C4C3C3;}
	.st9{fill:url(#SVGID_1_);}
	.st10{fill:url(#SVGID_00000010268283691486139720000001405931569460793002_);}
	.st11{fill:#A6A8AB;}
	.st12{fill:#A4A7A9;}
	.st13{fill:url(#SVGID_00000076570874464860779060000001972528548428865930_);}
	.st14{fill:url(#SVGID_00000134934151518901139680000013068160550358952857_);}
	.st15{fill:url(#SVGID_00000182490723929621672500000008387257024340848290_);}
	.st16{fill:url(#SVGID_00000049903393623729276710000010477180193143241365_);}
	.st17{fill:#BDCCD4;}
	.st18{fill:#6E90A2;}
	.st19{fill:url(#SVGID_00000117648073802917112780000007122385044078234021_);}
	.st20{fill:url(#SVGID_00000003809682231077064940000013142253059374154385_);}
	.st21{fill:#67686B;}
</style>
<g id="Ship">
	<rect x="1120.2" y="100.02" class="st0" width="2.84" height="26.89"/>
	<g>
		<g>
			<polygon class="st1" points="84.5,111.54 113.19,111.54 113.19,115.56 86.99,115.56 84.5,114.75 			"/>
			<g>
				<path class="st2" d="M107.36,114.83c0,1.32,1.07,2.39,2.4,2.39c1.33,0,2.4-1.07,2.4-2.39c0-1.33-1.07-2.4-2.4-2.4
					C108.43,112.43,107.36,113.51,107.36,114.83z"/>
				<path class="st3" d="M112.48,114.83c0,1.51-1.22,2.72-2.73,2.72l0,0c-1.5,0-2.72-1.22-2.73-2.72l0,0c0-1.51,1.22-2.74,2.73-2.74
					l0,0C111.26,112.1,112.48,113.32,112.48,114.83L112.48,114.83z M111.82,114.83c0-1.15-0.92-2.07-2.07-2.07l0,0
					c-1.14,0-2.07,0.93-2.07,2.07l0,0c0,1.14,0.92,2.06,2.07,2.06l0,0C110.9,116.9,111.82,115.97,111.82,114.83L111.82,114.83z"/>
			</g>
			<g>
				<path class="st1" d="M85.39,114.83c0,1.32,1.07,2.39,2.4,2.39c1.33,0,2.4-1.07,2.4-2.39c0-1.33-1.07-2.4-2.4-2.4
					C86.47,112.43,85.39,113.51,85.39,114.83z"/>
				<path class="st3" d="M90.52,114.83c0,1.51-1.22,2.72-2.73,2.72l0,0c-1.51,0-2.73-1.22-2.73-2.72l0,0c0-1.51,1.22-2.74,2.73-2.74
					l0,0C89.3,112.1,90.52,113.32,90.52,114.83L90.52,114.83z M89.86,114.83c0-1.15-0.93-2.07-2.07-2.07l0,0
					c-1.14,0-2.06,0.93-2.07,2.07l0,0c0,1.14,0.93,2.06,2.07,2.06l0,0C88.93,116.9,89.86,115.97,89.86,114.83L89.86,114.83z"/>
			</g>
			<g>
				<path class="st4" d="M112.9,116.09c0,0,0.72-4.07-3.29-4.07c-3.3,0-3.41,3.96-3.41,3.96l-14.82-0.33c0,0-0.41-3.85-3.46-3.85
					c-3.27,0-3.18,3.13-3.18,3.13s-1.04,0.33-1.7-0.44c-0.66-0.76-0.49-2.96-0.49-2.96l0.6-0.72l0.22-2.58c0,0,0.11-1.59,2.58-2.58
					l-0.11-0.61c0,0,7.64-1.37,13.13-0.33c5.49,1.05,6.2,3.3,9.72,4.01c3.51,0.72,8.89,1.76,7.03,6.31l0.22,0.49
					C115.92,115.54,115.76,116.15,112.9,116.09z"/>
				<path class="st5" d="M115.7,112.03c0,0-2.47-0.05-5.16-1.92l3.57,0.38C114.11,110.49,114.93,110.93,115.7,112.03z"/>
				<path class="st6" d="M107.52,109.61c0,0-4.72-4.28-11.15-4.78c-6.42-0.5-8.57,1.21-8.57,1.21s1.1,1.26,2.53,1.48
					C91.76,107.75,107.52,109.61,107.52,109.61z"/>
				<path class="st3" d="M105.21,115.57c0.64-1.13,0.83-2.3,0.83-3.32l0,0c0-1.63-0.5-2.87-0.5-2.88l0,0c0,0-0.75-1.57-2.3-2.63l0,0
					c-0.03-0.02-0.06-0.01-0.07,0.02l0,0c-0.02,0.02-0.01,0.06,0.01,0.08l0,0c1.52,1.03,2.26,2.58,2.26,2.58l0,0
					c0,0,0.49,1.22,0.49,2.83l0,0c0,1-0.19,2.14-0.81,3.25l0,0l-10.26-0.27c0,0-0.05,0.02-0.14,0.02l0,0c-0.22,0-0.69-0.14-1.05-1.3
					l0,0c-0.49-1.63-0.49-5.8-0.49-5.8l0,0c0.01,0,0.2-2.15,1.82-3.34l0,0c0.02-0.01,0.03-0.05,0.01-0.08l0,0
					c-0.02-0.02-0.05-0.03-0.08-0.01l0,0c-1.67,1.22-1.86,3.41-1.86,3.42l0,0c0,0.01,0,4.17,0.5,5.84l0,0
					c0.35,1.18,0.87,1.38,1.15,1.38l0,0c0.1,0,0.16-0.02,0.16-0.02l0,0l10.3,0.27L105.21,115.57L105.21,115.57z"/>
				<path class="st7" d="M83.49,109.98c0,0,2.8,0.04,2.89-1v-0.98l-2.71,0.36C83.67,108.35,83.47,108.95,83.49,109.98z"/>
			</g>
		</g>
		<polygon class="st8" points="109.73,114.13 108.5,113.13 109.06,114.61 107.74,115.47 109.32,115.39 109.73,116.92 110.14,115.39 
			111.72,115.47 110.4,114.61 110.96,113.13 		"/>
		<polygon class="st8" points="87.6,114.16 86.14,113.57 87.1,114.82 86.08,116.03 87.57,115.5 88.4,116.84 88.36,115.26 
			89.89,114.88 88.38,114.44 88.5,112.86 		"/>
	</g>
	<g>
		<linearGradient id="SVGID_1_" gradientUnits="userSpaceOnUse" x1="72.1281" y1="114.1495" x2="81.2539" y2="114.1495">
			<stop  offset="0" style="stop-color:#FFFFFF"/>
			<stop  offset="1" style="stop-color:#231F20"/>
		</linearGradient>
		<line class="st9" x1="72.13" y1="111.61" x2="81.25" y2="116.69"/>
		<path class="st3" d="M80.89,117.33l-9.13-5.08c-0.35-0.19-0.48-0.64-0.28-1l0,0c0.2-0.36,0.65-0.49,1-0.29l0,0l9.13,5.07
			c0.36,0.2,0.48,0.65,0.29,1l0,0c-0.14,0.24-0.39,0.38-0.65,0.38l0,0C81.13,117.42,81.01,117.39,80.89,117.33L80.89,117.33z"/>
	</g>
	<g>
		<rect x="74.87" y="115.7" class="st0" width="3.24" height="15.97"/>
		<polygon class="st0" points="152.42,115.74 74.53,115.74 76.03,113.71 152.42,113.71 		"/>
		<path class="st0" d="M77.37,115.34c0,0.95-0.76,1.71-1.71,1.71c-0.94,0-1.71-0.76-1.71-1.71c0-0.94,0.77-1.71,1.71-1.71
			C76.6,113.63,77.37,114.4,77.37,115.34z"/>
	</g>
	<g>
		<rect x="162.72" y="121.3" class="st5" width="18.37" height="15.52"/>
		<path class="st3" d="M161.98,137.57v-17h19.85v16.26v0.74H161.98L161.98,137.57z M181.09,136.83v-0.74V136.83L181.09,136.83z
			 M163.45,136.09h16.89l0-14.05h-16.89V136.09L163.45,136.09z"/>
	</g>
	<g>
		<polygon class="st5" points="196.83,120.69 181.09,120.69 173.21,140.86 196.83,140.86 		"/>
		<path class="st3" d="M172.67,141.23l8.17-20.92h16v0.37v-0.37h0.37v20.92H172.67L172.67,141.23z M173.75,140.49h22.71v-19.44
			h-15.12L173.75,140.49L173.75,140.49z"/>
	</g>
	<g>
		<rect x="79.4" y="117.58" class="st5" width="84.63" height="22.35"/>
		<path class="st3" d="M79.03,140.3v-23.09h85.37v22.72v0.37H79.03L79.03,140.3z M164.03,139.93v-0.37V139.93L164.03,139.93z
			 M79.77,139.56h83.89v-21.61H79.77V139.56L79.77,139.56z"/>
	</g>
	<g>
		<g>
			<path class="st6" d="M97.77,132.72c0,0.31-0.26,0.57-0.57,0.57H84.23c-0.31,0-0.57-0.26-0.57-0.57v-9.74
				c0-0.31,0.26-0.57,0.57-0.57h12.97c0.31,0,0.57,0.26,0.57,0.57V132.72z"/>
		</g>
		<path class="st3" d="M83.29,133.65v-11.62h14.84v11.25v0.37H83.29L83.29,133.65z M97.77,133.28v-0.37V133.28L97.77,133.28z
			 M84.03,132.91H97.4v-10.13H84.03V132.91L84.03,132.91z"/>
	</g>
	<g>
		<g>
			<path class="st6" d="M116.63,132.72c0,0.31-0.26,0.57-0.57,0.57h-12.97c-0.31,0-0.57-0.26-0.57-0.57v-9.74
				c0-0.31,0.26-0.57,0.57-0.57h12.97c0.31,0,0.57,0.26,0.57,0.57V132.72z"/>
		</g>
		<path class="st3" d="M102.16,133.65v-11.61H117v11.24v0.37H102.16L102.16,133.65z M116.64,133.28v-0.36V133.28L116.64,133.28z
			 M102.89,132.92h13.37v-10.14h-13.37V132.92L102.89,132.92z"/>
	</g>
	<g>
		<g>
			<path class="st6" d="M135.5,132.72c0,0.31-0.26,0.57-0.57,0.57h-12.97c-0.31,0-0.57-0.26-0.57-0.57v-9.74
				c0-0.31,0.26-0.57,0.57-0.57h12.97c0.31,0,0.57,0.26,0.57,0.57V132.72z"/>
		</g>
		<path class="st3" d="M121.02,133.65v-11.61h14.84v11.24v0.37H121.02L121.02,133.65z M135.5,133.28v-0.36V133.28L135.5,133.28z
			 M121.76,132.92h13.37v-10.14h-13.37V132.92L121.76,132.92z"/>
	</g>
	<g>
		<g>
			<path class="st6" d="M154.36,132.72c0,0.31-0.26,0.57-0.57,0.57h-12.97c-0.31,0-0.57-0.26-0.57-0.57v-9.74
				c0-0.31,0.26-0.57,0.57-0.57h12.97c0.31,0,0.57,0.26,0.57,0.57V132.72z"/>
		</g>
		<path class="st3" d="M139.89,133.65v-11.62h14.84v11.25v0.37H139.89L139.89,133.65z M154.36,133.28v-0.37V133.28L154.36,133.28z
			 M140.62,132.91h13.36v-10.13h-13.36V132.91L140.62,132.91z"/>
	</g>
	<g>
		<g>
			<path class="st6" d="M193.35,134.22c0,0.31-0.26,0.57-0.57,0.57h-12.97c-0.31,0-0.48-0.24-0.37-0.53l3.55-9.8
				c0.11-0.29,0.45-0.53,0.76-0.53h9.03c0.31,0,0.57,0.26,0.57,0.57V134.22z"/>
		</g>
		<path class="st3" d="M178.72,135.15l4.21-11.61h10.79v11.24v0.37H178.72L178.72,135.15z M193.35,134.79v-0.38V134.79
			L193.35,134.79z M179.77,134.41h13.21v-10.12h-9.54L179.77,134.41L179.77,134.41z"/>
	</g>
	<g>
		<polygon class="st5" points="108.14,117.42 164.69,112.3 200.15,110.75 196.83,120.69 181.09,120.69 181.87,117.53 163.31,117.52 
					"/>
		<path class="st3" d="M180.61,121.05l0.11-0.46l0.67-2.7l-18.08-0.01l-55.17-0.1v-0.37l0.03,0.37l-0.03-0.37v0.37l-0.04-0.74
			l56.56-5.12l36-1.58l-3.57,10.7H180.61L180.61,121.05z M163.32,117.15l19.02,0.01l-0.11,0.46l-0.67,2.69h15l3.07-9.18l-34.91,1.53
			l-48.56,4.4L163.32,117.15L163.32,117.15z"/>
	</g>
	
		<linearGradient id="SVGID_00000061471269776816113660000007978349275297057447_" gradientUnits="userSpaceOnUse" x1="63" y1="114.834" x2="72.1281" y2="114.834">
		<stop  offset="0" style="stop-color:#FFFFFF"/>
		<stop  offset="1" style="stop-color:#231F20"/>
	</linearGradient>
	
		<rect x="63" y="111.61" style="fill:url(#SVGID_00000061471269776816113660000007978349275297057447_);" width="9.13" height="6.44"/>
	<g>
		<polygon class="st11" points="1138.9,63.53 1135.78,63.53 1135.78,113.75 1140.54,113.75 		"/>
		<rect x="1130.93" y="70.68" class="st11" width="6.84" height="3.01"/>
	</g>
	<g>
		<rect x="1143.7" y="107.93" class="st12" width="5.67" height="16.77"/>
		<rect x="1141.97" y="105.46" class="st12" width="8.88" height="3.95"/>
	</g>
	<g>
		<rect x="1126.06" y="113.88" class="st5" width="23.2" height="22.35"/>
		<path class="st3" d="M1125.69,136.6v-23.09h23.93v22.72v0.37H1125.69L1125.69,136.6z M1149.26,136.23v-0.37V136.23L1149.26,136.23
			z M1126.42,135.86h22.47v-21.62h-22.47V135.86L1126.42,135.86z"/>
	</g>
	
		<linearGradient id="SVGID_00000136385057823023926480000001860756290234330044_" gradientUnits="userSpaceOnUse" x1="1122.8625" y1="74.5038" x2="1132.4413" y2="74.5038">
		<stop  offset="0" style="stop-color:#FFFFFF"/>
		<stop  offset="0.8297" style="stop-color:#F6921E"/>
	</linearGradient>
	<polygon style="fill:url(#SVGID_00000136385057823023926480000001860756290234330044_);" points="1132.44,77.03 1122.86,74.46 
		1132.44,71.98 	"/>
	<g>
		<polygon class="st5" points="66.95,138.4 68.06,130.87 81.01,131.67 83.23,133.73 153.92,136.87 217.18,136.92 243.26,142.59 
			174.63,142.48 106.72,142.29 		"/>
		<path class="st3" d="M174.62,142.85l-67.93-0.19l-39.78-3.9l0.04-0.36l0.36,0.05l-0.36-0.05l-0.04,0.36l-0.39-0.05l1.22-8.24
			l13.43,0.83l2.21,2.06l70.54,3.13l63.33,0.05l26.09,5.67l-0.08,0.73L174.62,142.85L174.62,142.85z M106.73,141.92l67.9,0.19
			l65.17,0.1l-22.62-4.93l-63.27-0.05l-70.83-3.14l-2.21-2.07l-12.48-0.77l-1,6.81L106.73,141.92L106.73,141.92z"/>
	</g>
	<rect x="95.44" y="162.69" class="st3" width="90.65" height="13.32"/>
	<rect x="75.09" y="164.67" class="st3" width="14.06" height="11.1"/>
	<rect x="83.23" y="158.74" class="st3" width="3.95" height="7.16"/>
	<path class="st5" d="M131.23,144.09c-44.6-0.92-63.58-3.24-63.59-3.24l0,0h0.01c-0.21-0.02-0.35-0.21-0.33-0.41l0,0
		c0.02-0.21,0.21-0.35,0.41-0.32l0,0c0.06,0,18.94,2.31,63.52,3.24l0,0c0.2,0,0.36,0.17,0.36,0.37l0,0
		c-0.01,0.19-0.17,0.36-0.36,0.36l0,0C131.24,144.09,131.24,144.09,131.23,144.09L131.23,144.09z"/>
	<g>
		<rect x="197.26" y="130.13" class="st0" width="865.53" height="13.08"/>
		<polygon class="st5" points="231.17,140.43 231.17,133.03 234.13,133.03 234.13,140.43 231.17,140.43 		"/>
		<polygon class="st5" points="207.74,140.43 207.74,133.03 210.7,133.03 210.7,140.43 207.74,140.43 		"/>
		<polygon class="st5" points="255.04,140.43 255.04,133.03 258,133.03 258,140.43 255.04,140.43 		"/>
		<polygon class="st5" points="278.91,140.43 278.91,133.03 281.86,133.03 281.86,140.43 278.91,140.43 		"/>
		<polygon class="st5" points="302.77,140.43 302.77,133.03 305.73,133.03 305.73,140.43 302.77,140.43 		"/>
		<polygon class="st5" points="326.64,140.43 326.64,133.03 329.6,133.03 329.6,140.43 326.64,140.43 		"/>
		<polygon class="st5" points="350.5,140.43 350.5,133.03 353.46,133.03 353.46,140.43 350.5,140.43 		"/>
		<polygon class="st5" points="374.37,140.43 374.37,133.03 377.33,133.03 377.33,140.43 374.37,140.43 		"/>
		<polygon class="st5" points="398.24,140.43 398.24,133.03 401.19,133.03 401.19,140.43 398.24,140.43 		"/>
		<polygon class="st5" points="422.1,140.43 422.1,133.03 425.06,133.03 425.06,140.43 422.1,140.43 		"/>
		<polygon class="st5" points="445.97,140.43 445.97,133.03 448.93,133.03 448.93,140.43 445.97,140.43 		"/>
		<polygon class="st5" points="469.83,140.43 469.83,133.03 472.79,133.03 472.79,140.43 469.83,140.43 		"/>
		<polygon class="st5" points="493.7,140.43 493.7,133.03 496.66,133.03 496.66,140.43 493.7,140.43 		"/>
		<polygon class="st5" points="517.57,140.43 517.57,133.03 520.52,133.03 520.52,140.43 517.57,140.43 		"/>
		<polygon class="st5" points="541.43,140.43 541.43,133.03 544.4,133.03 544.4,140.43 541.43,140.43 		"/>
		<polygon class="st5" points="565.29,140.43 565.29,133.03 568.26,133.03 568.26,140.43 565.29,140.43 		"/>
		<polygon class="st5" points="589.16,140.43 589.16,133.03 592.12,133.03 592.12,140.43 589.16,140.43 		"/>
		<polygon class="st5" points="613.03,140.43 613.03,133.03 615.99,133.03 615.99,140.43 613.03,140.43 		"/>
		<polygon class="st5" points="636.9,140.43 636.9,133.03 639.85,133.03 639.85,140.43 636.9,140.43 		"/>
		<polygon class="st5" points="660.76,140.43 660.76,133.03 663.73,133.03 663.73,140.43 660.76,140.43 		"/>
		<polygon class="st5" points="684.63,140.43 684.63,133.03 687.59,133.03 687.59,140.43 684.63,140.43 		"/>
		<polygon class="st5" points="708.49,140.43 708.49,133.03 711.46,133.03 711.46,140.43 708.49,140.43 		"/>
		<polygon class="st5" points="732.36,140.43 732.36,133.03 735.32,133.03 735.32,140.43 732.36,140.43 		"/>
		<polygon class="st5" points="756.23,140.43 756.23,133.03 759.18,133.03 759.18,140.43 756.23,140.43 		"/>
		<polygon class="st5" points="780.09,140.43 780.09,133.03 783.06,133.03 783.06,140.43 780.09,140.43 		"/>
		<polygon class="st5" points="803.96,140.43 803.96,133.03 806.92,133.03 806.92,140.43 803.96,140.43 		"/>
		<polygon class="st5" points="827.82,140.43 827.82,133.03 830.79,133.03 830.79,140.43 827.82,140.43 		"/>
		<polygon class="st5" points="851.69,140.43 851.69,133.03 854.65,133.03 854.65,140.43 851.69,140.43 		"/>
		<polygon class="st5" points="875.56,140.43 875.56,133.03 878.52,133.03 878.52,140.43 875.56,140.43 		"/>
		<polygon class="st5" points="197.32,133.58 197.32,132.1 1061.68,132.1 1061.68,133.58 197.32,133.58 		"/>
		<rect x="204.22" y="111.01" class="st0" width="2.22" height="20.84"/>
	</g>
	<polygon class="st5" points="875.5,140.67 875.5,133.27 878.46,133.27 878.46,140.67 875.5,140.67 	"/>
	<polygon class="st5" points="899.36,140.67 899.36,133.27 902.32,133.27 902.32,140.67 899.36,140.67 	"/>
	<polygon class="st5" points="923.23,140.67 923.23,133.27 926.19,133.27 926.19,140.67 923.23,140.67 	"/>
	<polygon class="st5" points="947.1,140.67 947.1,133.27 950.05,133.27 950.05,140.67 947.1,140.67 	"/>
	<polygon class="st5" points="947.12,140.67 947.12,133.27 950.09,133.27 950.09,140.67 947.12,140.67 	"/>
	<polygon class="st5" points="970.99,140.67 970.99,133.27 973.95,133.27 973.95,140.67 970.99,140.67 	"/>
	<polygon class="st5" points="994.86,140.67 994.86,133.27 997.81,133.27 997.81,140.67 994.86,140.67 	"/>
	<polygon class="st5" points="1018.72,140.67 1018.72,133.27 1021.68,133.27 1021.68,140.67 1018.72,140.67 	"/>
	<polygon class="st5" points="1042.65,140.42 1042.65,133.03 1045.61,133.03 1045.61,140.42 1042.65,140.42 	"/>
	<g>
		<polygon class="st5" points="1026.15,136.91 1078.7,127.42 1193.28,119.71 1194.63,128.4 1191.3,130.63 1086.47,136.54 		"/>
		<path class="st3" d="M1025.78,136.94c-0.02-0.19,0.12-0.36,0.3-0.39l0,0l52.59-9.51l114.58-7.71c0.19-0.02,0.36,0.13,0.4,0.32l0,0
			l1.35,8.7l-0.16,0.36l-3.34,2.22l-0.18,0.06l-104.86,5.92l-60.31,0.37C1025.96,137.28,1025.8,137.13,1025.78,136.94
			L1025.78,136.94z M1026.22,137.27l-0.07-0.37L1026.22,137.27L1026.22,137.27z M1078.76,127.77l-48.35,8.74l56.03-0.35l104.73-5.91
			l3.05-2.03l-1.27-8.12L1078.76,127.77L1078.76,127.77z"/>
	</g>
	<path class="st3" d="M169.07,142.7l22.57-0.12l5.37-6.78h890.27l107.69-7.49v2.5l-10.01,40.52c0,0-2.97,4.69-7.41,4.69
		c-4.44,0-1001.63,0-1001.63,0s-20.59-1.95-45.14-4.81c-22.19-2.59-47.8-5.5-60.81-16.16l-3.39-16.29
		C66.58,138.76,138.6,142.95,169.07,142.7z"/>
	<rect x="1004.01" y="100.27" class="st0" width="2.84" height="30.59"/>
	<rect x="890.29" y="100.27" class="st0" width="2.84" height="30.59"/>
	<rect x="776.58" y="100.27" class="st0" width="2.84" height="30.59"/>
	<rect x="662.67" y="100.27" class="st0" width="2.84" height="30.59"/>
	<rect x="548.59" y="100.27" class="st0" width="2.84" height="30.59"/>
	<rect x="434.69" y="100.27" class="st0" width="2.83" height="30.59"/>
	<rect x="320.97" y="100.27" class="st0" width="2.84" height="30.59"/>
	<g>
		<line class="st3" x1="1193.8" y1="131.02" x2="1147.55" y2="134.35"/>
		<path class="st5" d="M1147.17,134.38c-0.01-0.2,0.14-0.38,0.35-0.4l0,0l46.25-3.32c0.2-0.01,0.38,0.14,0.4,0.34l0,0
			c0.01,0.21-0.14,0.38-0.34,0.4l0,0l-46.26,3.33c-0.01,0-0.02,0-0.03,0l0,0C1147.35,134.72,1147.19,134.57,1147.17,134.38
			L1147.17,134.38z"/>
	</g>
	<g>
		<path class="st3" d="M78.73,115.01c0.04,0.03,0.1,0.05,0.16,0.05c0.09,0,0.15-0.05,0.15-0.12c0-0.06-0.04-0.11-0.13-0.14
			c-0.11-0.04-0.18-0.1-0.18-0.19c0-0.11,0.09-0.19,0.23-0.19c0.07,0,0.12,0.02,0.15,0.03l-0.03,0.07
			c-0.02-0.01-0.07-0.03-0.13-0.03c-0.1,0-0.13,0.06-0.13,0.1c0,0.07,0.04,0.1,0.14,0.13c0.12,0.05,0.18,0.11,0.18,0.21
			c0,0.11-0.08,0.2-0.24,0.2c-0.07,0-0.14-0.02-0.18-0.05L78.73,115.01z"/>
		<path class="st3" d="M79.35,114.5v0.12h0.13v0.07h-0.13v0.27c0,0.06,0.02,0.1,0.07,0.1c0.02,0,0.04,0,0.05-0.01l0.01,0.07
			c-0.02,0-0.05,0.01-0.08,0.01c-0.04,0-0.08-0.02-0.1-0.04c-0.02-0.03-0.03-0.07-0.03-0.13v-0.27h-0.08v-0.07h0.08v-0.09
			L79.35,114.5z"/>
		<path class="st3" d="M79.63,114.89c0,0.13,0.08,0.17,0.17,0.17c0.06,0,0.11-0.02,0.14-0.02l0.02,0.06
			c-0.03,0.01-0.09,0.03-0.17,0.03c-0.15,0-0.25-0.11-0.25-0.25c0-0.15,0.09-0.27,0.24-0.27c0.16,0,0.21,0.14,0.21,0.24
			c0,0.02,0,0.03,0,0.04H79.63z M79.9,114.82c0-0.05-0.02-0.14-0.13-0.14c-0.09,0-0.13,0.08-0.14,0.14H79.9z"/>
		<path class="st3" d="M80.1,114.78c0-0.06,0-0.12,0-0.16h0.08l0,0.08h0c0.04-0.06,0.09-0.1,0.18-0.1c0.12,0,0.21,0.1,0.21,0.25
			c0,0.18-0.11,0.27-0.23,0.27c-0.07,0-0.12-0.03-0.15-0.08h0v0.27H80.1V114.78z M80.19,114.92c0,0.01,0,0.03,0,0.04
			c0.02,0.06,0.07,0.11,0.13,0.11c0.1,0,0.15-0.08,0.15-0.19c0-0.1-0.05-0.19-0.15-0.19c-0.06,0-0.12,0.04-0.14,0.11
			c0,0.01,0,0.02,0,0.04V114.92z"/>
		<path class="st3" d="M80.69,114.39h0.09v0.32h0c0.01-0.03,0.04-0.05,0.06-0.06c0.03-0.02,0.06-0.03,0.1-0.03
			c0.07,0,0.17,0.04,0.17,0.21v0.3h-0.09v-0.29c0-0.08-0.03-0.15-0.12-0.15c-0.06,0-0.1,0.04-0.12,0.09
			c-0.01,0.01-0.01,0.03-0.01,0.04v0.3h-0.09V114.39z"/>
		<path class="st3" d="M81.62,115c0,0.05,0,0.08,0.01,0.12h-0.08l-0.01-0.06h0c-0.03,0.04-0.08,0.08-0.16,0.08
			c-0.1,0-0.15-0.07-0.15-0.14c0-0.12,0.11-0.19,0.3-0.19v-0.01c0-0.05-0.01-0.12-0.11-0.12c-0.05,0-0.1,0.02-0.13,0.04l-0.02-0.06
			c0.04-0.02,0.1-0.04,0.17-0.04c0.15,0,0.19,0.1,0.19,0.21V115z M81.53,114.87c-0.1,0-0.21,0.01-0.21,0.11
			c0,0.06,0.04,0.09,0.09,0.09c0.06,0,0.11-0.04,0.12-0.08c0-0.01,0-0.02,0-0.03V114.87z"/>
		<path class="st3" d="M81.76,114.76c0-0.06,0-0.1,0-0.14h0.08l0.01,0.08h0c0.03-0.05,0.08-0.09,0.17-0.09
			c0.07,0,0.18,0.04,0.18,0.21v0.3H82.1v-0.29c0-0.08-0.03-0.15-0.11-0.15c-0.06,0-0.11,0.04-0.12,0.09
			c-0.01,0.01-0.01,0.03-0.01,0.04v0.3h-0.09V114.76z"/>
		<path class="st3" d="M82.56,114.39h0.09v0.74h-0.09V114.39z"/>
		<path class="st3" d="M82.85,114.89c0,0.13,0.08,0.17,0.17,0.17c0.06,0,0.11-0.02,0.14-0.02l0.02,0.06
			c-0.03,0.01-0.09,0.03-0.17,0.03c-0.15,0-0.25-0.11-0.25-0.25c0-0.15,0.09-0.27,0.24-0.27c0.16,0,0.21,0.14,0.21,0.24
			c0,0.02,0,0.03,0,0.04H82.85z M83.12,114.82c0-0.05-0.02-0.14-0.13-0.14c-0.09,0-0.13,0.08-0.14,0.14H83.12z"/>
		<path class="st3" d="M83.53,115.01c0.04,0.03,0.1,0.05,0.16,0.05c0.09,0,0.15-0.05,0.15-0.12c0-0.06-0.04-0.11-0.13-0.14
			c-0.12-0.04-0.19-0.1-0.19-0.19c0-0.11,0.09-0.19,0.23-0.19c0.07,0,0.12,0.02,0.15,0.03l-0.02,0.07
			c-0.02-0.01-0.07-0.03-0.13-0.03c-0.1,0-0.13,0.06-0.13,0.1c0,0.07,0.04,0.1,0.14,0.13c0.12,0.05,0.18,0.11,0.18,0.21
			c0,0.11-0.08,0.2-0.24,0.2c-0.07,0-0.14-0.02-0.18-0.05L83.53,115.01z"/>
		<path class="st3" d="M84.41,115c0,0.05,0,0.08,0.01,0.12h-0.08l-0.01-0.06h0c-0.03,0.04-0.08,0.08-0.16,0.08
			c-0.1,0-0.15-0.07-0.15-0.14c0-0.12,0.11-0.19,0.3-0.19v-0.01c0-0.05-0.01-0.12-0.11-0.12c-0.05,0-0.1,0.02-0.13,0.04l-0.02-0.06
			c0.04-0.02,0.1-0.04,0.16-0.04c0.16,0,0.19,0.1,0.19,0.21V115z M84.32,114.87c-0.1,0-0.21,0.01-0.21,0.11
			c0,0.06,0.04,0.09,0.08,0.09c0.07,0,0.11-0.04,0.12-0.08c0-0.01,0.01-0.02,0.01-0.03V114.87z"/>
		<path class="st3" d="M84.98,115.05c0,0.12-0.02,0.19-0.07,0.23c-0.05,0.05-0.12,0.06-0.18,0.06c-0.06,0-0.13-0.01-0.17-0.04
			l0.02-0.07c0.04,0.02,0.09,0.04,0.15,0.04c0.09,0,0.16-0.05,0.16-0.18v-0.05h0c-0.03,0.05-0.08,0.08-0.16,0.08
			c-0.13,0-0.21-0.11-0.21-0.25c0-0.17,0.11-0.27,0.23-0.27c0.09,0,0.13,0.04,0.16,0.09l0,0l0-0.08h0.08c0,0.03,0,0.08,0,0.14
			V115.05z M84.89,114.82c0-0.02,0-0.03-0.01-0.04c-0.02-0.05-0.06-0.1-0.13-0.1c-0.09,0-0.15,0.08-0.15,0.19
			c0,0.1,0.05,0.18,0.15,0.18c0.06,0,0.11-0.04,0.13-0.1c0.01-0.02,0.01-0.03,0.01-0.05V114.82z"/>
		<path class="st3" d="M85.18,114.89c0,0.13,0.08,0.17,0.17,0.17c0.07,0,0.11-0.02,0.14-0.02l0.02,0.06
			c-0.03,0.01-0.09,0.03-0.17,0.03c-0.15,0-0.25-0.11-0.25-0.25c0-0.15,0.09-0.27,0.24-0.27c0.16,0,0.21,0.14,0.21,0.24
			c0,0.02,0,0.03,0,0.04H85.18z M85.45,114.82c0-0.05-0.02-0.14-0.12-0.14c-0.09,0-0.13,0.08-0.14,0.14H85.45z"/>
	</g>
</g>
<g id="Container-short">
</g>
<g id="Container">
</g>
<g id="Bulk-short">
</g>
<g id="Stuurhut">
</g>
</svg>
