<?xml version="1.0" encoding="utf-8"?>
<!-- Generator: Adobe Illustrator 26.0.3, SVG Export Plug-In . SVG Version: 6.00 Build 0)  -->
<svg version="1.1" xmlns="http://www.w3.org/2000/svg" xmlns:xlink="http://www.w3.org/1999/xlink" x="0px" y="0px"
	 viewBox="0 0 648 144" style="enable-background:new 0 0 648 144;" xml:space="preserve">
<style type="text/css">
	.st0{fill:#550700;}
	.st1{fill:#D7D8DA;}
	.st2{fill:#E2E3E4;}
	.st3{fill:#231F20;}
	.st4{fill:#932923;}
	.st5{fill:#FFFFFF;}
	.st6{fill:#C6E9FA;}
	.st7{fill:#EC1C24;}
	.st8{fill:#C4C3C3;}
	.st9{fill:url(#SVGID_1_);}
	.st10{fill:url(#SVGID_00000170278206287969569600000010122900615892361355_);}
	.st11{fill:#A6A8AB;}
	.st12{fill:#A4A7A9;}
	.st13{fill:url(#SVGID_00000083767921535920901840000016550604441510314169_);}
	.st14{fill:url(#SVGID_00000142156015323429024560000009987102385334278069_);}
	.st15{fill:url(#SVGID_00000130607658061219821650000011429231963834723246_);}
	.st16{fill:url(#SVGID_00000080917387424967886450000012749781703285152144_);}
	.st17{fill:#BDCCD4;}
	.st18{fill:#6E90A2;}
	.st19{fill:url(#SVGID_00000070091383518681370320000005055958398800387775_);}
	.st20{fill:url(#SVGID_00000096737323947030116260000000184217754496043952_);}
	.st21{fill:#67686B;}
</style>
<g id="Ship">
</g>
<g id="Container-short">
	<g>
		<rect x="572.7" y="36.52" class="st0" width="2.84" height="26.89"/>
		<g>
			<g>
				<polygon class="st1" points="23,48.04 51.69,48.04 51.69,52.06 25.49,52.06 23,51.25 				"/>
				<g>
					<path class="st2" d="M45.86,51.33c0,1.32,1.07,2.39,2.4,2.39c1.33,0,2.4-1.07,2.4-2.39c0-1.33-1.07-2.4-2.4-2.4
						C46.93,48.93,45.86,50.01,45.86,51.33z"/>
					<path class="st3" d="M50.98,51.33c0,1.51-1.22,2.72-2.73,2.72l0,0c-1.5,0-2.72-1.22-2.73-2.72l0,0c0-1.51,1.22-2.74,2.73-2.74
						l0,0C49.76,48.6,50.98,49.82,50.98,51.33L50.98,51.33z M50.32,51.33c0-1.15-0.92-2.07-2.07-2.07l0,0
						c-1.14,0-2.07,0.93-2.07,2.07l0,0c0,1.14,0.92,2.06,2.07,2.06l0,0C49.4,53.4,50.32,52.47,50.32,51.33L50.32,51.33z"/>
				</g>
				<g>
					<path class="st1" d="M23.89,51.33c0,1.32,1.07,2.39,2.4,2.39c1.33,0,2.4-1.07,2.4-2.39c0-1.33-1.07-2.4-2.4-2.4
						C24.97,48.93,23.89,50.01,23.89,51.33z"/>
					<path class="st3" d="M29.02,51.33c0,1.51-1.22,2.72-2.73,2.72l0,0c-1.51,0-2.73-1.22-2.73-2.72l0,0c0-1.51,1.22-2.74,2.73-2.74
						l0,0C27.8,48.6,29.02,49.82,29.02,51.33L29.02,51.33z M28.36,51.33c0-1.15-0.93-2.07-2.07-2.07l0,0
						c-1.14,0-2.06,0.93-2.07,2.07l0,0c0,1.14,0.93,2.06,2.07,2.06l0,0C27.43,53.4,28.36,52.47,28.36,51.33L28.36,51.33z"/>
				</g>
				<g>
					<path class="st4" d="M51.4,52.59c0,0,0.72-4.07-3.29-4.07c-3.3,0-3.41,3.96-3.41,3.96l-14.82-0.33c0,0-0.41-3.85-3.46-3.85
						c-3.27,0-3.18,3.13-3.18,3.13s-1.04,0.33-1.7-0.44c-0.66-0.76-0.49-2.96-0.49-2.96l0.6-0.72l0.22-2.58c0,0,0.11-1.59,2.58-2.58
						l-0.11-0.61c0,0,7.64-1.37,13.13-0.33c5.49,1.05,6.2,3.3,9.72,4.01c3.51,0.72,8.89,1.76,7.03,6.31l0.22,0.49
						C54.42,52.04,54.26,52.65,51.4,52.59z"/>
					<path class="st5" d="M54.2,48.53c0,0-2.47-0.05-5.16-1.92l3.57,0.38C52.61,46.99,53.43,47.43,54.2,48.53z"/>
					<path class="st6" d="M46.02,46.11c0,0-4.72-4.28-11.15-4.78c-6.42-0.5-8.57,1.21-8.57,1.21s1.1,1.26,2.53,1.48
						C30.26,44.25,46.02,46.11,46.02,46.11z"/>
					<path class="st3" d="M43.71,52.07c0.64-1.13,0.83-2.3,0.83-3.32l0,0c0-1.63-0.5-2.87-0.5-2.88l0,0c0,0-0.75-1.57-2.3-2.63l0,0
						c-0.03-0.02-0.06-0.01-0.07,0.02l0,0c-0.02,0.02-0.01,0.06,0.01,0.08l0,0c1.52,1.03,2.26,2.58,2.26,2.58l0,0
						c0,0,0.49,1.22,0.49,2.83l0,0c0,1-0.19,2.14-0.81,3.25l0,0l-10.26-0.27c0,0-0.05,0.02-0.14,0.02l0,0
						c-0.22,0-0.69-0.14-1.05-1.3l0,0c-0.49-1.63-0.49-5.8-0.49-5.8l0,0c0.01,0,0.2-2.15,1.82-3.34l0,0
						c0.02-0.01,0.03-0.05,0.01-0.08l0,0c-0.02-0.02-0.05-0.03-0.08-0.01l0,0c-1.67,1.22-1.86,3.41-1.86,3.42l0,0
						c0,0.01,0,4.17,0.5,5.84l0,0c0.35,1.18,0.87,1.38,1.15,1.38l0,0c0.1,0,0.16-0.02,0.16-0.02l0,0l10.3,0.27L43.71,52.07
						L43.71,52.07z"/>
					<path class="st7" d="M21.99,46.48c0,0,2.8,0.04,2.89-1v-0.98l-2.71,0.36C22.17,44.85,21.97,45.45,21.99,46.48z"/>
				</g>
			</g>
			<polygon class="st8" points="48.23,50.63 47,49.63 47.56,51.11 46.24,51.97 47.82,51.89 48.23,53.42 48.64,51.89 50.22,51.97 
				48.9,51.11 49.46,49.63 			"/>
			<polygon class="st8" points="26.1,50.66 24.64,50.07 25.6,51.32 24.58,52.53 26.07,52 26.9,53.34 26.86,51.76 28.39,51.38 
				26.88,50.94 27,49.36 			"/>
		</g>
		<g>
			<linearGradient id="SVGID_1_" gradientUnits="userSpaceOnUse" x1="10.6281" y1="50.6495" x2="19.7539" y2="50.6495">
				<stop  offset="0" style="stop-color:#FFFFFF"/>
				<stop  offset="1" style="stop-color:#231F20"/>
			</linearGradient>
			<line class="st9" x1="10.63" y1="48.11" x2="19.75" y2="53.19"/>
			<path class="st3" d="M19.39,53.83l-9.13-5.08c-0.35-0.19-0.48-0.64-0.28-1l0,0c0.2-0.36,0.65-0.49,1-0.29l0,0l9.13,5.07
				c0.36,0.2,0.48,0.65,0.29,1l0,0c-0.14,0.24-0.39,0.38-0.65,0.38l0,0C19.63,53.92,19.51,53.89,19.39,53.83L19.39,53.83z"/>
		</g>
		<g>
			<rect x="13.37" y="52.2" class="st0" width="3.24" height="15.97"/>
			<polygon class="st0" points="90.92,52.24 13.03,52.24 14.53,50.21 90.92,50.21 			"/>
			<path class="st0" d="M15.87,51.84c0,0.95-0.76,1.71-1.71,1.71c-0.94,0-1.71-0.76-1.71-1.71c0-0.94,0.77-1.71,1.71-1.71
				C15.1,50.13,15.87,50.9,15.87,51.84z"/>
		</g>
		<g>
			<rect x="101.22" y="57.8" class="st5" width="18.37" height="15.52"/>
			<path class="st3" d="M100.48,74.07v-17h19.85v16.26v0.74H100.48L100.48,74.07z M119.59,73.33v-0.74V73.33L119.59,73.33z
				 M101.95,72.59h16.89l0-14.05h-16.89V72.59L101.95,72.59z"/>
		</g>
		<g>
			<polygon class="st5" points="135.33,57.19 119.59,57.19 111.71,77.36 135.33,77.36 			"/>
			<path class="st3" d="M111.17,77.73l8.17-20.92h16v0.37v-0.37h0.37v20.92H111.17L111.17,77.73z M112.25,76.99h22.71V57.55h-15.12
				L112.25,76.99L112.25,76.99z"/>
		</g>
		<g>
			<rect x="17.9" y="54.08" class="st5" width="84.63" height="22.35"/>
			<path class="st3" d="M17.53,76.8V53.71h85.37v22.72v0.37H17.53L17.53,76.8z M102.53,76.43v-0.37V76.43L102.53,76.43z
				 M18.27,76.06h83.89V54.45H18.27V76.06L18.27,76.06z"/>
		</g>
		<g>
			<g>
				<path class="st6" d="M36.27,69.22c0,0.31-0.26,0.57-0.57,0.57H22.73c-0.31,0-0.57-0.26-0.57-0.57v-9.74
					c0-0.31,0.26-0.57,0.57-0.57h12.97c0.31,0,0.57,0.26,0.57,0.57V69.22z"/>
			</g>
			<path class="st3" d="M21.79,70.15V58.54h14.84v11.25v0.37H21.79L21.79,70.15z M36.27,69.78v-0.37V69.78L36.27,69.78z
				 M22.53,69.41H35.9V59.28H22.53V69.41L22.53,69.41z"/>
		</g>
		<g>
			<g>
				<path class="st6" d="M55.13,69.22c0,0.31-0.26,0.57-0.57,0.57H41.59c-0.31,0-0.57-0.26-0.57-0.57v-9.74
					c0-0.31,0.26-0.57,0.57-0.57h12.97c0.31,0,0.57,0.26,0.57,0.57V69.22z"/>
			</g>
			<path class="st3" d="M40.66,70.15V58.54H55.5v11.24v0.37H40.66L40.66,70.15z M55.14,69.78v-0.36V69.78L55.14,69.78z M41.39,69.42
				h13.37V59.28H41.39V69.42L41.39,69.42z"/>
		</g>
		<g>
			<g>
				<path class="st6" d="M74,69.22c0,0.31-0.26,0.57-0.57,0.57H60.46c-0.31,0-0.57-0.26-0.57-0.57v-9.74c0-0.31,0.26-0.57,0.57-0.57
					h12.97c0.31,0,0.57,0.26,0.57,0.57V69.22z"/>
			</g>
			<path class="st3" d="M59.52,70.15V58.54h14.84v11.24v0.37H59.52L59.52,70.15z M74,69.78v-0.36V69.78L74,69.78z M60.26,69.42
				h13.37V59.28H60.26V69.42L60.26,69.42z"/>
		</g>
		<g>
			<g>
				<path class="st6" d="M92.86,69.22c0,0.31-0.26,0.57-0.57,0.57H79.32c-0.31,0-0.57-0.26-0.57-0.57v-9.74
					c0-0.31,0.26-0.57,0.57-0.57h12.97c0.31,0,0.57,0.26,0.57,0.57V69.22z"/>
			</g>
			<path class="st3" d="M78.39,70.15V58.54h14.84v11.25v0.37H78.39L78.39,70.15z M92.86,69.78v-0.37V69.78L92.86,69.78z
				 M79.12,69.41h13.36V59.28H79.12V69.41L79.12,69.41z"/>
		</g>
		<g>
			<g>
				<path class="st6" d="M131.85,70.72c0,0.31-0.26,0.57-0.57,0.57h-12.97c-0.31,0-0.48-0.24-0.37-0.53l3.55-9.8
					c0.11-0.29,0.45-0.53,0.76-0.53h9.03c0.31,0,0.57,0.26,0.57,0.57V70.72z"/>
			</g>
			<path class="st3" d="M117.22,71.65l4.21-11.61h10.79v11.24v0.37H117.22L117.22,71.65z M131.85,71.29v-0.38V71.29L131.85,71.29z
				 M118.27,70.91h13.21V60.79h-9.54L118.27,70.91L118.27,70.91z"/>
		</g>
		<g>
			<polygon class="st5" points="46.64,53.92 103.19,48.8 138.65,47.25 135.33,57.19 119.59,57.19 120.37,54.03 101.81,54.02 			"/>
			<path class="st3" d="M119.11,57.55l0.11-0.46l0.67-2.7l-18.08-0.01l-55.17-0.1v-0.37l0.03,0.37l-0.03-0.37v0.37l-0.04-0.74
				l56.56-5.12l36-1.58l-3.57,10.7H119.11L119.11,57.55z M101.82,53.65l19.02,0.01l-0.11,0.46l-0.67,2.69h15l3.07-9.18l-34.91,1.53
				l-48.56,4.4L101.82,53.65L101.82,53.65z"/>
		</g>
		
			<linearGradient id="SVGID_00000114032375340680780210000011992505754064769183_" gradientUnits="userSpaceOnUse" x1="1.5" y1="51.334" x2="10.6281" y2="51.334">
			<stop  offset="0" style="stop-color:#FFFFFF"/>
			<stop  offset="1" style="stop-color:#231F20"/>
		</linearGradient>
		
			<rect x="1.5" y="48.11" style="fill:url(#SVGID_00000114032375340680780210000011992505754064769183_);" width="9.13" height="6.44"/>
		<g>
			<polygon class="st11" points="591.4,0.03 588.28,0.03 588.28,50.25 593.04,50.25 			"/>
			<rect x="583.43" y="7.18" class="st11" width="6.84" height="3.01"/>
		</g>
		<g>
			<rect x="596.2" y="44.43" class="st12" width="5.67" height="16.77"/>
			<rect x="594.47" y="41.96" class="st12" width="8.88" height="3.95"/>
		</g>
		<g>
			<rect x="578.56" y="50.38" class="st5" width="23.2" height="22.35"/>
			<path class="st3" d="M578.19,73.1V50.01h23.93v22.72v0.37H578.19L578.19,73.1z M601.76,72.73v-0.37V72.73L601.76,72.73z
				 M578.92,72.36h22.47V50.74h-22.47V72.36L578.92,72.36z"/>
		</g>
		
			<linearGradient id="SVGID_00000025415097928279299720000015518479699056582808_" gradientUnits="userSpaceOnUse" x1="575.3626" y1="11.0038" x2="584.9413" y2="11.0038">
			<stop  offset="0" style="stop-color:#FFFFFF"/>
			<stop  offset="0.8297" style="stop-color:#F6921E"/>
		</linearGradient>
		<polygon style="fill:url(#SVGID_00000025415097928279299720000015518479699056582808_);" points="584.94,13.53 575.36,10.96 
			584.94,8.48 		"/>
		<g>
			<polygon class="st5" points="5.45,74.9 6.56,67.37 19.51,68.17 21.73,70.23 92.42,73.37 155.68,73.42 181.76,79.09 113.13,78.98 
				45.22,78.79 			"/>
			<path class="st3" d="M113.12,79.35l-67.93-0.19l-39.78-3.9l0.04-0.36l0.36,0.05L5.45,74.9l-0.04,0.36l-0.39-0.05l1.22-8.24
				l13.43,0.83l2.21,2.06L92.42,73l63.33,0.05l26.09,5.67l-0.08,0.73L113.12,79.35L113.12,79.35z M45.23,78.42l67.9,0.19l65.17,0.1
				l-22.62-4.93L92.4,73.73l-70.83-3.14l-2.21-2.07L6.87,67.76l-1,6.81L45.23,78.42L45.23,78.42z"/>
		</g>
		<rect x="33.94" y="99.19" class="st3" width="90.65" height="13.32"/>
		<rect x="13.59" y="101.17" class="st3" width="14.06" height="11.1"/>
		<rect x="21.73" y="95.24" class="st3" width="3.95" height="7.16"/>
		<path class="st5" d="M69.73,80.59c-44.6-0.92-63.58-3.24-63.59-3.24l0,0h0.01c-0.21-0.02-0.35-0.21-0.33-0.41l0,0
			c0.02-0.21,0.21-0.35,0.41-0.32l0,0c0.06,0,18.94,2.31,63.52,3.24l0,0c0.2,0,0.36,0.17,0.36,0.37l0,0
			c-0.01,0.19-0.17,0.36-0.36,0.36l0,0C69.74,80.59,69.74,80.59,69.73,80.59L69.73,80.59z"/>
		<rect x="135.76" y="66.63" class="st0" width="379.53" height="13.08"/>
		<polygon class="st5" points="169.67,76.93 169.67,69.53 172.63,69.53 172.63,76.93 169.67,76.93 		"/>
		<polygon class="st5" points="146.24,76.93 146.24,69.53 149.2,69.53 149.2,76.93 146.24,76.93 		"/>
		<polygon class="st5" points="193.54,76.93 193.54,69.53 196.5,69.53 196.5,76.93 193.54,76.93 		"/>
		<polygon class="st5" points="217.41,76.93 217.41,69.53 220.36,69.53 220.36,76.93 217.41,76.93 		"/>
		<polygon class="st5" points="241.27,76.93 241.27,69.53 244.23,69.53 244.23,76.93 241.27,76.93 		"/>
		<polygon class="st5" points="265.14,76.93 265.14,69.53 268.1,69.53 268.1,76.93 265.14,76.93 		"/>
		<polygon class="st5" points="289,76.93 289,69.53 291.96,69.53 291.96,76.93 289,76.93 		"/>
		<polygon class="st5" points="312.87,76.93 312.87,69.53 315.83,69.53 315.83,76.93 312.87,76.93 		"/>
		<polygon class="st5" points="336.74,76.93 336.74,69.53 339.69,69.53 339.69,76.93 336.74,76.93 		"/>
		<polygon class="st5" points="360.6,76.93 360.6,69.53 363.56,69.53 363.56,76.93 360.6,76.93 		"/>
		<polygon class="st5" points="384.47,76.93 384.47,69.53 387.43,69.53 387.43,76.93 384.47,76.93 		"/>
		<polygon class="st5" points="408.33,76.93 408.33,69.53 411.29,69.53 411.29,76.93 408.33,76.93 		"/>
		<polygon class="st5" points="432.2,76.93 432.2,69.53 435.16,69.53 435.16,76.93 432.2,76.93 		"/>
		<polygon class="st5" points="456.07,76.93 456.07,69.53 459.02,69.53 459.02,76.93 456.07,76.93 		"/>
		<polygon class="st5" points="479.93,76.93 479.93,69.53 482.9,69.53 482.9,76.93 479.93,76.93 		"/>
		<polygon class="st5" points="135.82,70.08 135.82,68.6 514.18,68.6 514.18,70.08 135.82,70.08 		"/>
		<rect x="142.72" y="47.51" class="st0" width="2.22" height="20.84"/>
		<polygon class="st5" points="495.15,76.92 495.15,69.53 498.11,69.53 498.11,76.92 495.15,76.92 		"/>
		<g>
			<polygon class="st5" points="478.65,73.41 531.2,63.92 645.78,56.21 647.13,64.9 643.8,67.13 538.97,73.04 			"/>
			<path class="st3" d="M478.28,73.44c-0.02-0.19,0.12-0.36,0.3-0.39l0,0l52.59-9.51l114.58-7.71c0.19-0.02,0.36,0.13,0.4,0.32l0,0
				l1.35,8.7l-0.16,0.36L644,67.43l-0.18,0.06l-104.86,5.92l-60.31,0.37C478.46,73.78,478.3,73.63,478.28,73.44L478.28,73.44z
				 M478.72,73.77l-0.07-0.37L478.72,73.77L478.72,73.77z M531.26,64.27l-48.35,8.74l56.03-0.35l104.73-5.91l3.05-2.03l-1.27-8.12
				L531.26,64.27L531.26,64.27z"/>
		</g>
		<path class="st3" d="M107.57,79.2l22.57-0.12l5.37-6.78h404.27l107.69-7.49v2.5l-10.01,40.52c0,0-2.97,4.69-7.41,4.69
			c-4.44,0-515.63,0-515.63,0s-20.59-1.95-45.14-4.81c-22.19-2.59-47.8-5.5-60.81-16.16L5.08,75.26
			C5.08,75.26,77.1,79.45,107.57,79.2z"/>
		<rect x="487.09" y="36.77" class="st0" width="2.84" height="30.59"/>
		<rect x="373.19" y="36.77" class="st0" width="2.83" height="30.59"/>
		<rect x="259.47" y="36.77" class="st0" width="2.84" height="30.59"/>
		<g>
			<line class="st3" x1="646.3" y1="67.52" x2="600.05" y2="70.85"/>
			<path class="st5" d="M599.67,70.88c-0.01-0.2,0.14-0.38,0.35-0.4l0,0l46.25-3.32c0.2-0.01,0.38,0.14,0.4,0.34l0,0
				c0.01,0.21-0.14,0.38-0.34,0.4l0,0l-46.26,3.33c-0.01,0-0.02,0-0.03,0l0,0C599.85,71.22,599.69,71.07,599.67,70.88L599.67,70.88z
				"/>
		</g>
		<g>
			<path class="st3" d="M17.23,51.51c0.04,0.03,0.1,0.05,0.16,0.05c0.09,0,0.15-0.05,0.15-0.12c0-0.06-0.04-0.11-0.13-0.14
				c-0.11-0.04-0.18-0.1-0.18-0.19c0-0.11,0.09-0.19,0.23-0.19c0.07,0,0.12,0.02,0.15,0.03l-0.03,0.07
				c-0.02-0.01-0.07-0.03-0.13-0.03c-0.1,0-0.13,0.06-0.13,0.1c0,0.07,0.04,0.1,0.14,0.13c0.12,0.05,0.18,0.11,0.18,0.21
				c0,0.11-0.08,0.2-0.24,0.2c-0.07,0-0.14-0.02-0.18-0.05L17.23,51.51z"/>
			<path class="st3" d="M17.85,51v0.12h0.13v0.07h-0.13v0.27c0,0.06,0.02,0.1,0.07,0.1c0.02,0,0.04,0,0.05-0.01l0.01,0.07
				c-0.02,0-0.05,0.01-0.08,0.01c-0.04,0-0.08-0.02-0.1-0.04c-0.02-0.03-0.03-0.07-0.03-0.13v-0.27h-0.08v-0.07h0.08v-0.09L17.85,51
				z"/>
			<path class="st3" d="M18.13,51.39c0,0.13,0.08,0.17,0.17,0.17c0.06,0,0.11-0.02,0.14-0.02l0.02,0.06
				c-0.03,0.01-0.09,0.03-0.17,0.03c-0.15,0-0.25-0.11-0.25-0.25c0-0.15,0.09-0.27,0.24-0.27c0.16,0,0.21,0.14,0.21,0.24
				c0,0.02,0,0.03,0,0.04H18.13z M18.4,51.32c0-0.05-0.02-0.14-0.13-0.14c-0.09,0-0.13,0.08-0.14,0.14H18.4z"/>
			<path class="st3" d="M18.6,51.28c0-0.06,0-0.12,0-0.16h0.08l0,0.08h0c0.04-0.06,0.09-0.1,0.18-0.1c0.12,0,0.21,0.1,0.21,0.25
				c0,0.18-0.11,0.27-0.23,0.27c-0.07,0-0.12-0.03-0.15-0.08h0v0.27H18.6V51.28z M18.69,51.42c0,0.01,0,0.03,0,0.04
				c0.02,0.06,0.07,0.11,0.13,0.11c0.1,0,0.15-0.08,0.15-0.19c0-0.1-0.05-0.19-0.15-0.19c-0.06,0-0.12,0.04-0.14,0.11
				c0,0.01,0,0.02,0,0.04V51.42z"/>
			<path class="st3" d="M19.19,50.89h0.09v0.32h0c0.01-0.03,0.04-0.05,0.06-0.06c0.03-0.02,0.06-0.03,0.1-0.03
				c0.07,0,0.17,0.04,0.17,0.21v0.3h-0.09v-0.29c0-0.08-0.03-0.15-0.12-0.15c-0.06,0-0.1,0.04-0.12,0.09
				c-0.01,0.01-0.01,0.03-0.01,0.04v0.3h-0.09V50.89z"/>
			<path class="st3" d="M20.12,51.5c0,0.05,0,0.08,0.01,0.12h-0.08l-0.01-0.06h0c-0.03,0.04-0.08,0.08-0.16,0.08
				c-0.1,0-0.15-0.07-0.15-0.14c0-0.12,0.11-0.19,0.3-0.19V51.3c0-0.05-0.01-0.12-0.11-0.12c-0.05,0-0.1,0.02-0.13,0.04l-0.02-0.06
				c0.04-0.02,0.1-0.04,0.17-0.04c0.15,0,0.19,0.1,0.19,0.21V51.5z M20.03,51.37c-0.1,0-0.21,0.01-0.21,0.11
				c0,0.06,0.04,0.09,0.09,0.09c0.06,0,0.11-0.04,0.12-0.08c0-0.01,0-0.02,0-0.03V51.37z"/>
			<path class="st3" d="M20.26,51.26c0-0.06,0-0.1,0-0.14h0.08l0.01,0.08h0c0.03-0.05,0.08-0.09,0.17-0.09
				c0.07,0,0.18,0.04,0.18,0.21v0.3H20.6v-0.29c0-0.08-0.03-0.15-0.11-0.15c-0.06,0-0.11,0.04-0.12,0.09
				c-0.01,0.01-0.01,0.03-0.01,0.04v0.3h-0.09V51.26z"/>
			<path class="st3" d="M21.06,50.89h0.09v0.74h-0.09V50.89z"/>
			<path class="st3" d="M21.35,51.39c0,0.13,0.08,0.17,0.17,0.17c0.06,0,0.11-0.02,0.14-0.02l0.02,0.06
				c-0.03,0.01-0.09,0.03-0.17,0.03c-0.15,0-0.25-0.11-0.25-0.25c0-0.15,0.09-0.27,0.24-0.27c0.16,0,0.21,0.14,0.21,0.24
				c0,0.02,0,0.03,0,0.04H21.35z M21.62,51.32c0-0.05-0.02-0.14-0.13-0.14c-0.09,0-0.13,0.08-0.14,0.14H21.62z"/>
			<path class="st3" d="M22.03,51.51c0.04,0.03,0.1,0.05,0.16,0.05c0.09,0,0.15-0.05,0.15-0.12c0-0.06-0.04-0.11-0.13-0.14
				c-0.12-0.04-0.19-0.1-0.19-0.19c0-0.11,0.09-0.19,0.23-0.19c0.07,0,0.12,0.02,0.15,0.03l-0.02,0.07
				c-0.02-0.01-0.07-0.03-0.13-0.03c-0.1,0-0.13,0.06-0.13,0.1c0,0.07,0.04,0.1,0.14,0.13c0.12,0.05,0.18,0.11,0.18,0.21
				c0,0.11-0.08,0.2-0.24,0.2c-0.07,0-0.14-0.02-0.18-0.05L22.03,51.51z"/>
			<path class="st3" d="M22.91,51.5c0,0.05,0,0.08,0.01,0.12h-0.08l-0.01-0.06h0c-0.03,0.04-0.08,0.08-0.16,0.08
				c-0.1,0-0.15-0.07-0.15-0.14c0-0.12,0.11-0.19,0.3-0.19V51.3c0-0.05-0.01-0.12-0.11-0.12c-0.05,0-0.1,0.02-0.13,0.04l-0.02-0.06
				c0.04-0.02,0.1-0.04,0.16-0.04c0.16,0,0.19,0.1,0.19,0.21V51.5z M22.82,51.37c-0.1,0-0.21,0.01-0.21,0.11
				c0,0.06,0.04,0.09,0.08,0.09c0.07,0,0.11-0.04,0.12-0.08c0-0.01,0.01-0.02,0.01-0.03V51.37z"/>
			<path class="st3" d="M23.48,51.55c0,0.12-0.02,0.19-0.07,0.23c-0.05,0.05-0.12,0.06-0.18,0.06c-0.06,0-0.13-0.01-0.17-0.04
				l0.02-0.07c0.04,0.02,0.09,0.04,0.15,0.04c0.09,0,0.16-0.05,0.16-0.18v-0.05h0c-0.03,0.05-0.08,0.08-0.16,0.08
				c-0.13,0-0.21-0.11-0.21-0.25c0-0.17,0.11-0.27,0.23-0.27c0.09,0,0.13,0.04,0.16,0.09l0,0l0-0.08h0.08c0,0.03,0,0.08,0,0.14
				V51.55z M23.39,51.32c0-0.02,0-0.03-0.01-0.04c-0.02-0.05-0.06-0.1-0.13-0.1c-0.09,0-0.15,0.08-0.15,0.19
				c0,0.1,0.05,0.18,0.15,0.18c0.06,0,0.11-0.04,0.13-0.1c0.01-0.02,0.01-0.03,0.01-0.05V51.32z"/>
			<path class="st3" d="M23.68,51.39c0,0.13,0.08,0.17,0.17,0.17c0.07,0,0.11-0.02,0.14-0.02l0.02,0.06
				c-0.03,0.01-0.09,0.03-0.17,0.03c-0.15,0-0.25-0.11-0.25-0.25c0-0.15,0.09-0.27,0.24-0.27c0.16,0,0.21,0.14,0.21,0.24
				c0,0.02,0,0.03,0,0.04H23.68z M23.95,51.32c0-0.05-0.02-0.14-0.12-0.14c-0.09,0-0.13,0.08-0.14,0.14H23.95z"/>
		</g>
	</g>
</g>
<g id="Container">
</g>
<g id="Bulk-short">
</g>
<g id="Stuurhut">
</g>
</svg>
