<?xml version="1.0" encoding="utf-8"?>
<!-- Generator: Adobe Illustrator 26.0.3, SVG Export Plug-In . SVG Version: 6.00 Build 0)  -->
<svg version="1.1" xmlns="http://www.w3.org/2000/svg" xmlns:xlink="http://www.w3.org/1999/xlink" x="0px" y="0px"
	 viewBox="0 0 112.67 20.98" style="enable-background:new 0 0 112.67 20.98;" xml:space="preserve">
<style type="text/css">
	.st0{fill:#550700;}
	.st1{fill:#D7D8DA;}
	.st2{fill:#E2E3E4;}
	.st3{fill:#231F20;}
	.st4{fill:#932923;}
	.st5{fill:#FFFFFF;}
	.st6{fill:#C6E9FA;}
	.st7{fill:#EC1C24;}
	.st8{fill:#C4C3C3;}
	.st9{fill:url(#SVGID_1_);}
	.st10{fill:url(#SVGID_00000164483922017415863510000002873098562825695116_);}
	.st11{fill:#A6A8AB;}
	.st12{fill:#A4A7A9;}
	.st13{fill:url(#SVGID_00000054965329680314139520000016178619320374410900_);}
	.st14{fill:url(#SVGID_00000103983121118554309230000011961901090940131999_);}
	.st15{fill:url(#SVGID_00000114761776980617385180000004932130904501656491_);}
	.st16{fill:url(#SVGID_00000109023986818045436820000006966714515382229919_);}
	.st17{fill:#BDCCD4;}
	.st18{fill:#6E90A2;}
	.st19{fill:url(#SVGID_00000100373809177521718060000004856608618396505530_);}
	.st20{fill:url(#SVGID_00000040563623962735060860000004532409006950782136_);}
	.st21{fill:#67686B;}
</style>
<g id="Ship">
</g>
<g id="Short-ship">
</g>
<g id="Container">
	<rect class="st17" width="112.67" height="20.98"/>
	<g>
		<polygon class="st3" points="4.32,19.74 4.32,1.48 5.06,1.48 5.06,19.74 4.32,19.74 		"/>
		<polygon class="st3" points="8.02,19.74 8.02,1.48 8.76,1.48 8.76,19.74 8.02,19.74 		"/>
		<polygon class="st3" points="11.72,19.74 11.72,1.48 12.46,1.48 12.46,19.74 11.72,19.74 		"/>
		<polygon class="st3" points="15.42,19.74 15.42,1.48 16.16,1.48 16.16,19.74 15.42,19.74 		"/>
		<polygon class="st3" points="19.12,19.74 19.12,1.48 19.86,1.48 19.86,19.74 19.12,19.74 		"/>
		<polygon class="st3" points="22.82,19.74 22.82,1.48 23.56,1.48 23.56,19.74 22.82,19.74 		"/>
		<polygon class="st3" points="26.52,19.74 26.52,1.48 27.26,1.48 27.26,19.74 26.52,19.74 		"/>
		<polygon class="st3" points="30.22,19.74 30.22,1.48 30.96,1.48 30.96,19.74 30.22,19.74 		"/>
		<polygon class="st3" points="33.92,19.74 33.92,1.48 34.66,1.48 34.66,19.74 33.92,19.74 		"/>
		<polygon class="st3" points="37.62,19.74 37.62,1.48 38.36,1.48 38.36,19.74 37.62,19.74 		"/>
		<polygon class="st3" points="41.32,19.74 41.32,1.48 42.06,1.48 42.06,19.74 41.32,19.74 		"/>
		<polygon class="st3" points="45.02,19.74 45.02,1.48 45.76,1.48 45.76,19.74 45.02,19.74 		"/>
		<polygon class="st3" points="48.72,19.74 48.72,1.48 49.46,1.48 49.46,19.74 48.72,19.74 		"/>
		<polygon class="st3" points="52.42,19.74 52.42,1.48 53.16,1.48 53.16,19.74 52.42,19.74 		"/>
		<polygon class="st3" points="56.12,19.74 56.12,1.48 56.86,1.48 56.86,19.74 56.12,19.74 		"/>
		<polygon class="st3" points="59.82,19.74 59.82,1.48 60.56,1.48 60.56,19.74 59.82,19.74 		"/>
		<polygon class="st3" points="63.52,19.74 63.52,1.48 64.26,1.48 64.26,19.74 63.52,19.74 		"/>
		<polygon class="st3" points="67.22,19.74 67.22,1.48 67.96,1.48 67.96,19.74 67.22,19.74 		"/>
		<polygon class="st3" points="70.92,19.74 70.92,1.48 71.66,1.48 71.66,19.74 70.92,19.74 		"/>
		<polygon class="st3" points="74.62,19.74 74.62,1.48 75.36,1.48 75.36,19.74 74.62,19.74 		"/>
		<polygon class="st3" points="78.33,19.74 78.33,1.48 79.06,1.48 79.06,19.74 78.33,19.74 		"/>
		<polygon class="st3" points="82.02,19.74 82.02,1.48 82.76,1.48 82.76,19.74 82.02,19.74 		"/>
		<polygon class="st3" points="85.72,19.74 85.72,1.48 86.46,1.48 86.46,19.74 85.72,19.74 		"/>
		<polygon class="st3" points="89.42,19.74 89.42,1.48 90.16,1.48 90.16,19.74 89.42,19.74 		"/>
		<polygon class="st3" points="93.12,19.74 93.12,1.48 93.86,1.48 93.86,19.74 93.12,19.74 		"/>
		<polygon class="st3" points="96.82,19.74 96.82,1.48 97.57,1.48 97.57,19.74 96.82,19.74 		"/>
		<polygon class="st3" points="100.52,19.74 100.52,1.48 101.26,1.48 101.26,19.74 100.52,19.74 		"/>
		<polygon class="st3" points="104.22,19.74 104.22,1.48 104.96,1.48 104.96,19.74 104.22,19.74 		"/>
		<polygon class="st3" points="107.93,19.74 107.93,1.48 108.66,1.48 108.66,19.74 107.93,19.74 		"/>
	</g>
</g>
<g id="Bulk">
</g>
<g id="Stuurhut">
</g>
</svg>
