<?xml version="1.0" encoding="utf-8"?>
<!-- Generator: Adobe Illustrator 26.0.3, SVG Export Plug-In . SVG Version: 6.00 Build 0)  -->
<svg version="1.1" xmlns="http://www.w3.org/2000/svg" xmlns:xlink="http://www.w3.org/1999/xlink" x="0px" y="0px"
	 viewBox="0 0 648 144" style="enable-background:new 0 0 648 144;" xml:space="preserve">
<style type="text/css">
	.st0{fill:#550700;}
	.st1{fill:#D7D8DA;}
	.st2{fill:#E2E3E4;}
	.st3{fill:#231F20;}
	.st4{fill:#932923;}
	.st5{fill:#FFFFFF;}
	.st6{fill:#C6E9FA;}
	.st7{fill:#EC1C24;}
	.st8{fill:#C4C3C3;}
	.st9{fill:url(#SVGID_1_);}
	.st10{fill:url(#SVGID_00000060714745437166811240000004412638005347199149_);}
	.st11{fill:#A6A8AB;}
	.st12{fill:#A4A7A9;}
	.st13{fill:url(#SVGID_00000125579189503187141790000017364470497623212676_);}
	.st14{fill:url(#SVGID_00000061459608448300145300000007321839220908619169_);}
	.st15{fill:url(#SVGID_00000097463882657398165710000011693452086550449337_);}
	.st16{fill:url(#SVGID_00000099656521255893623190000003098454120776783015_);}
	.st17{fill:#BDCCD4;}
	.st18{fill:#6E90A2;}
	.st19{fill:url(#SVGID_00000125601758572205854260000006251645322084238734_);}
	.st20{fill:url(#SVGID_00000029033707149459563870000007814366432248979602_);}
	.st21{fill:#67686B;}
</style>
<g id="Ship">
</g>
<g id="Container-short">
</g>
<g id="Container">
</g>
<g id="Bulk-short">
	<g>
		<g>
			<rect x="19.61" y="51.53" class="st18" width="4.04" height="18.09"/>
			<polygon class="st18" points="116.4,51.59 19.19,51.59 21.05,49.05 116.4,49.05 			"/>
			<path class="st18" d="M22.73,51.09c0,1.18-0.96,2.14-2.14,2.14c-1.18,0-2.14-0.96-2.14-2.14c0-1.18,0.96-2.14,2.14-2.14
				C21.77,48.96,22.73,49.91,22.73,51.09z"/>
		</g>
		<polygon class="st11" points="84.76,45.69 95.39,45.69 97.08,54.31 77.38,54.31 		"/>
		<polygon class="st11" points="546.88,64.47 153.43,64.47 153.73,82.32 546.88,82.32 		"/>
		<g>
			<rect x="547.18" y="56.02" class="st5" width="52.23" height="25.4"/>
			<path class="st3" d="M546.72,81.88V55.56h53.15v25.86v0.45H546.72L546.72,81.88z M599.42,81.42v-0.46V81.42L599.42,81.42z
				 M547.64,80.96h51.31V56.48h-51.31V80.96L547.64,80.96z"/>
		</g>
		<g>
			<g>
				<path class="st6" d="M566.94,72.04c0,0.31-0.26,0.57-0.57,0.57h-14.04c-0.31,0-0.57-0.26-0.57-0.57V60.82
					c0-0.31,0.26-0.57,0.57-0.57h14.04c0.31,0,0.57,0.26,0.57,0.57V72.04z"/>
			</g>
			<path class="st3" d="M551.31,73.06V59.79h16.09V72.6v0.46H551.31L551.31,73.06z M566.94,72.6v-0.47V72.6L566.94,72.6z
				 M552.22,72.14h14.26l-0.01-11.42h-14.25V72.14L552.22,72.14z"/>
		</g>
		<g>
			<g>
				<path class="st6" d="M590.93,72.04c0,0.31-0.26,0.57-0.57,0.57h-14.04c-0.31,0-0.57-0.26-0.57-0.57V60.82
					c0-0.31,0.26-0.57,0.57-0.57h14.04c0.31,0,0.57,0.26,0.57,0.57V72.04z"/>
			</g>
			<path class="st3" d="M575.29,73.06V59.79h16.1V72.6v0.46H575.29L575.29,73.06z M590.92,72.6v-0.47V72.6L590.92,72.6z
				 M576.21,72.14h14.25V60.72h-14.25V72.14L576.21,72.14z"/>
		</g>
		<g>
			<rect x="119.4" y="55.54" class="st5" width="12.01" height="43.72"/>
			<path class="st3" d="M118.48,100.18V55.54v-0.93h13.86v45.56H118.48L118.48,100.18z M120.32,98.33h10.16V56.46h-10.15
				L120.32,98.33L120.32,98.33z"/>
		</g>
		<g>
			<rect x="104.85" y="46.44" class="st5" width="39.76" height="12.17"/>
			<path class="st3" d="M103.93,59.54V45.52h41.61v13.1v0.93H103.93L103.93,59.54z M144.61,58.62v-0.93V58.62L144.61,58.62z
				 M105.77,57.69h37.91V47.37h-37.91V57.69L105.77,57.69z"/>
		</g>
		<polygon class="st3" points="146.17,48.06 103.47,48.06 102.59,34.52 150.4,34.52 		"/>
		<polygon class="st6" points="144.48,46.44 105.08,46.44 104.28,36.21 147.48,36.21 		"/>
		<g>
			<rect x="25.5" y="54.63" class="st5" width="91.03" height="25.4"/>
			<path class="st3" d="M25.03,80.5V54.17h91.95v25.86v0.47H25.03L25.03,80.5z M116.52,80.03v-0.46V80.03L116.52,80.03z
				 M25.96,79.57h90.11V55.1H25.96V79.57L25.96,79.57z"/>
		</g>
		<g>
			<g>
				<path class="st6" d="M45.25,70.65c0,0.31-0.26,0.57-0.57,0.57H30.65c-0.31,0-0.57-0.26-0.57-0.57V59.44
					c0-0.31,0.26-0.57,0.57-0.57h14.04c0.31,0,0.57,0.26,0.57,0.57V70.65z"/>
			</g>
			<path class="st3" d="M29.62,71.68V58.4h16.09v12.82v0.46H29.62L29.62,71.68z M45.26,71.22v-0.47V71.22L45.26,71.22z M30.54,70.76
				h14.25V59.33H30.54V70.76L30.54,70.76z"/>
		</g>
		<g>
			<g>
				<path class="st6" d="M65.54,70.65c0,0.31-0.26,0.57-0.57,0.57H50.94c-0.31,0-0.57-0.26-0.57-0.57V59.44
					c0-0.31,0.26-0.57,0.57-0.57h14.04c0.31,0,0.57,0.26,0.57,0.57V70.65z"/>
			</g>
			<path class="st3" d="M49.9,71.68V58.4H66v12.82v0.46H49.9L49.9,71.68z M65.54,71.22v-0.47V71.22L65.54,71.22z M50.83,70.76h14.25
				V59.33H50.83V70.76L50.83,70.76z"/>
		</g>
		<g>
			<g>
				<path class="st6" d="M85.83,70.65c0,0.31-0.26,0.57-0.57,0.57H71.23c-0.31,0-0.57-0.26-0.57-0.57V59.44
					c0-0.31,0.26-0.57,0.57-0.57h14.04c0.31,0,0.57,0.26,0.57,0.57V70.65z"/>
			</g>
			<path class="st3" d="M70.19,71.68V58.4h16.1v12.82v0.46H70.19L70.19,71.68z M85.83,71.22v-0.47V71.22L85.83,71.22z M71.12,70.76
				h14.25V59.33H71.12V70.76L71.12,70.76z"/>
		</g>
		<path class="st3" d="M156.66,86.94V67.55h386.83v18.47v0.93H156.66L156.66,86.94z M542.57,86.01V85.1V86.01L542.57,86.01z
			 M158.5,85.1h383.14V69.39H158.5V85.1L158.5,85.1z"/>
		<g>
			<g>
				<path class="st6" d="M106.12,70.65c0,0.31-0.26,0.57-0.57,0.57H91.51c-0.31,0-0.57-0.26-0.57-0.57V59.44
					c0-0.31,0.26-0.57,0.57-0.57h14.04c0.31,0,0.57,0.26,0.57,0.57V70.65z"/>
			</g>
			<path class="st3" d="M90.49,71.68V58.4h16.09v12.82v0.46H90.49L90.49,71.68z M106.12,71.22v-0.47V71.22L106.12,71.22z
				 M91.41,70.76h14.25V59.33H91.41V70.76L91.41,70.76z"/>
		</g>
		<g>
			<polygon class="st5" points="635.4,71.24 637.7,62.85 536.56,70.47 495.69,81.63 592.91,75.86 			"/>
			<path class="st3" d="M495.45,80.74l41.05-11.19l102.44-7.72l-2.65,9.65l-0.17,0.61l-43.16,4.69l-97.21,5.78L495.45,80.74
				L495.45,80.74z M536.8,71.36l-32.3,8.82l88.3-5.25l41.87-4.55l1.79-6.52L536.8,71.36L536.8,71.36z"/>
		</g>
		<g>
			<polygon class="st5" points="12.57,75.56 14.11,69.09 121.11,73.65 144.65,73.71 177.21,80.79 121.1,80.66 62.21,80.42 			"/>
			<path class="st3" d="M121.1,81.58l-58.98-0.24l-49.64-4.87l0.09-0.92l0.9,0.21l-0.9-0.21l-0.09,0.92l-1.06-0.1l1.96-8.24
				l107.74,4.59l23.73,0.08l32.56,7.08l-0.2,1.82L121.1,81.58L121.1,81.58z M62.22,79.49l58.89,0.24l47.45,0.12l-23.91-5.22
				l-23.57-0.06L14.83,70.04l-1.12,4.69L62.22,79.49L62.22,79.49z"/>
		</g>
		<polygon class="st3" points="139.71,47.22 139.71,35.53 140.63,35.53 140.63,47.22 139.71,47.22 		"/>
		<polygon class="st3" points="128.62,47.22 128.62,35.53 129.55,35.53 129.55,47.22 128.62,47.22 		"/>
		<path class="st3" d="M138.81,80.16h352.97L637.1,69.39l-12.32,32.94c0,0-3.71,5.85-9.25,5.85c-5.54,0-519.38,0-519.38,0
			s-48.03,0-80.52-18.78L11.18,75.4C11.18,75.4,100.78,80.48,138.81,80.16z"/>
		<rect x="48.13" y="95.26" class="st3" width="96.52" height="12.93"/>
		<rect x="19.03" y="97.73" class="st3" width="17.55" height="10.16"/>
		<rect x="29.2" y="95.17" class="st3" width="4.93" height="3.18"/>
		<polygon class="st3" points="19.47,42.73 20.9,41.56 31.07,54.03 29.63,55.19 19.47,42.73 		"/>
		<path class="st3" d="M102.3,35.98c-0.51,0-0.92-0.41-0.92-0.93l0,0c0-0.51,0.42-0.92,0.92-0.92l0,0h48.5
			c0.51,0,0.92,0.41,0.92,0.92l0,0c0,0.52-0.42,0.93-0.92,0.93l0,0H102.3L102.3,35.98z"/>
		<g>
			<polygon class="st3" points="187.14,82.33 187.14,68.93 188.99,68.93 188.99,82.33 187.14,82.33 			"/>
			<polygon class="st3" points="190.83,82.33 190.83,68.93 192.68,68.93 192.68,82.33 190.83,82.33 			"/>
		</g>
		<g>
			<polygon class="st3" points="213.62,82.33 213.62,68.93 215.46,68.93 215.46,82.33 213.62,82.33 			"/>
			<polygon class="st3" points="217.32,82.33 217.32,68.93 219.16,68.93 219.16,82.33 217.32,82.33 			"/>
		</g>
		<g>
			<polygon class="st3" points="240.1,82.33 240.1,68.93 241.95,68.93 241.95,82.33 240.1,82.33 			"/>
			<polygon class="st3" points="243.79,82.33 243.79,68.93 245.64,68.93 245.64,82.33 243.79,82.33 			"/>
		</g>
		<g>
			<polygon class="st3" points="266.58,82.33 266.58,68.93 268.42,68.93 268.42,82.33 266.58,82.33 			"/>
			<polygon class="st3" points="270.27,82.33 270.27,68.93 272.12,68.93 272.12,82.33 270.27,82.33 			"/>
		</g>
		<g>
			<polygon class="st3" points="293.06,82.33 293.06,68.93 294.91,68.93 294.91,82.33 293.06,82.33 			"/>
			<polygon class="st3" points="296.75,82.33 296.75,68.93 298.6,68.93 298.6,82.33 296.75,82.33 			"/>
		</g>
		<g>
			<polygon class="st3" points="319.54,82.33 319.54,68.93 321.39,68.93 321.39,82.33 319.54,82.33 			"/>
			<polygon class="st3" points="323.23,82.33 323.23,68.93 325.08,68.93 325.08,82.33 323.23,82.33 			"/>
		</g>
		<g>
			<polygon class="st3" points="346.02,82.33 346.02,68.93 347.86,68.93 347.86,82.33 346.02,82.33 			"/>
			<polygon class="st3" points="349.71,82.33 349.71,68.93 351.56,68.93 351.56,82.33 349.71,82.33 			"/>
		</g>
		<g>
			<polygon class="st3" points="372.49,82.33 372.49,68.93 374.35,68.93 374.35,82.33 372.49,82.33 			"/>
			<polygon class="st3" points="376.19,82.33 376.19,68.93 378.04,68.93 378.04,82.33 376.19,82.33 			"/>
		</g>
		<g>
			<polygon class="st3" points="398.98,82.33 398.98,68.93 400.82,68.93 400.82,82.33 398.98,82.33 			"/>
			<polygon class="st3" points="402.67,82.33 402.67,68.93 404.52,68.93 404.52,82.33 402.67,82.33 			"/>
		</g>
		<g>
			<polygon class="st3" points="425.46,82.33 425.46,68.93 427.31,68.93 427.31,82.33 425.46,82.33 			"/>
			<polygon class="st3" points="429.15,82.33 429.15,68.93 431,68.93 431,82.33 429.15,82.33 			"/>
		</g>
		<g>
			<polygon class="st3" points="451.93,82.33 451.93,68.93 453.78,68.93 453.78,82.33 451.93,82.33 			"/>
			<polygon class="st3" points="455.63,82.33 455.63,68.93 457.48,68.93 457.48,82.33 455.63,82.33 			"/>
		</g>
		<g>
			<polygon class="st3" points="478.42,82.33 478.42,68.93 480.26,68.93 480.26,82.33 478.42,82.33 			"/>
			<polygon class="st3" points="482.12,82.33 482.12,68.93 483.96,68.93 483.96,82.33 482.12,82.33 			"/>
		</g>
		<g>
			<line class="st5" x1="556.68" y1="55.56" x2="606.59" y2="19.74"/>
			<path class="st3" d="M555.55,56.36c-0.45-0.62-0.31-1.48,0.32-1.93l0,0l49.91-35.81c0.62-0.45,1.49-0.31,1.94,0.32l0,0
				c0.44,0.62,0.3,1.49-0.32,1.93l0,0l-49.91,35.82c-0.24,0.17-0.53,0.26-0.81,0.26l0,0C556.24,56.94,555.82,56.74,555.55,56.36
				L555.55,56.36z"/>
		</g>
		<linearGradient id="SVGID_1_" gradientUnits="userSpaceOnUse" x1="9.1789" y1="47.2244" x2="20.5721" y2="47.2244">
			<stop  offset="0" style="stop-color:#FFFFFF"/>
			<stop  offset="1" style="stop-color:#231F20"/>
		</linearGradient>
		<rect x="9.18" y="43.2" class="st9" width="11.39" height="8.04"/>
		
			<linearGradient id="SVGID_00000116918878980965573160000017371941773768736440_" gradientUnits="userSpaceOnUse" x1="594.8041" y1="23.3253" x2="606.7617" y2="23.3253">
			<stop  offset="0" style="stop-color:#FFFFFF"/>
			<stop  offset="0.8297" style="stop-color:#F6921E"/>
		</linearGradient>
		<polygon style="fill:url(#SVGID_00000116918878980965573160000017371941773768736440_);" points="606.76,26.48 594.8,23.27 
			606.76,20.17 		"/>
		<g>
			<g>
				<polygon class="st1" points="39.83,46.85 75.65,46.85 75.65,51.87 42.94,51.87 39.83,50.87 				"/>
				<g>
					<path class="st2" d="M68.36,50.96c0,1.65,1.34,2.99,2.99,2.99c1.65,0,2.99-1.34,2.99-2.99c0-1.65-1.34-3-2.99-3
						C69.7,47.97,68.36,49.31,68.36,50.96z"/>
					<path class="st3" d="M74.76,50.96c0,1.88-1.52,3.4-3.4,3.4l0,0c-1.88,0-3.4-1.52-3.41-3.4l0,0c0-1.89,1.53-3.41,3.41-3.41l0,0
						C73.23,47.55,74.76,49.08,74.76,50.96L74.76,50.96z M73.93,50.96c0-1.43-1.15-2.58-2.58-2.58l0,0c-1.43,0-2.58,1.15-2.58,2.58
						l0,0c0,1.42,1.16,2.58,2.58,2.58l0,0C72.78,53.54,73.93,52.38,73.93,50.96L73.93,50.96z"/>
				</g>
				<g>
					<path class="st1" d="M40.95,50.96c0,1.65,1.34,2.99,2.99,2.99s2.99-1.34,2.99-2.99c0-1.65-1.34-3-2.99-3
						S40.95,49.31,40.95,50.96z"/>
					<path class="st3" d="M47.35,50.96c0,1.88-1.53,3.4-3.41,3.4l0,0c-1.88,0-3.4-1.52-3.4-3.4l0,0c0-1.89,1.52-3.41,3.4-3.41l0,0
						C45.82,47.55,47.35,49.08,47.35,50.96L47.35,50.96z M46.52,50.96c0-1.43-1.16-2.58-2.58-2.58l0,0c-1.43,0-2.58,1.15-2.58,2.58
						l0,0c0,1.42,1.16,2.58,2.58,2.58l0,0C45.36,53.54,46.52,52.38,46.52,50.96L46.52,50.96z"/>
				</g>
				<g>
					<path class="st21" d="M75.28,52.54c0,0,0.89-5.07-4.11-5.07c-4.11,0-4.25,4.93-4.25,4.93l-18.5-0.41c0,0-0.52-4.8-4.32-4.8
						c-4.08,0-3.97,3.9-3.97,3.9s-1.3,0.41-2.12-0.55c-0.82-0.95-0.61-3.7-0.61-3.7l0.75-0.89l0.28-3.22c0,0,0.14-1.99,3.22-3.22
						l-0.14-0.76c0,0,9.53-1.71,16.38-0.41c6.85,1.3,7.74,4.11,12.13,5c4.39,0.89,11.1,2.19,8.77,7.88l0.28,0.62
						C79.05,51.85,78.84,52.6,75.28,52.54z"/>
					<path class="st5" d="M78.78,47.46c0,0-3.08-0.06-6.44-2.4l4.46,0.48C76.79,45.54,77.82,46.09,78.78,47.46z"/>
					<path class="st6" d="M68.56,44.45c0,0-5.89-5.35-13.91-5.96c-8.02-0.62-10.69,1.51-10.69,1.51s1.37,1.58,3.15,1.85
						C48.9,42.12,68.56,44.45,68.56,44.45z"/>
					<path class="st3" d="M65.68,51.88c0.8-1.41,1.04-2.88,1.04-4.15l0,0c0-2.04-0.62-3.58-0.63-3.59l0,0c0,0-0.93-1.97-2.87-3.28
						l0,0c-0.03-0.02-0.07-0.01-0.09,0.02l0,0c-0.02,0.03-0.01,0.07,0.02,0.09l0,0c1.9,1.29,2.82,3.22,2.82,3.22l0,0
						c0,0,0.62,1.52,0.62,3.53l0,0c0,1.24-0.24,2.67-1.01,4.05l0,0l-12.8-0.34c0,0-0.06,0.03-0.18,0.03l0,0
						c-0.28,0-0.87-0.18-1.31-1.63l0,0c-0.61-2.04-0.61-7.24-0.61-7.24l0,0c0.01,0,0.24-2.68,2.27-4.17l0,0
						c0.03-0.02,0.04-0.06,0.01-0.1l0,0c-0.02-0.03-0.06-0.04-0.09-0.01l0,0c-2.08,1.53-2.32,4.25-2.33,4.27l0,0
						c0,0.01,0,5.21,0.62,7.28l0,0c0.44,1.48,1.09,1.73,1.44,1.73l0,0c0.12,0,0.2-0.02,0.2-0.03l0,0l12.85,0.34L65.68,51.88
						L65.68,51.88z"/>
					<path class="st7" d="M38.57,44.91c0,0,3.49,0.05,3.61-1.26v-1.23l-3.38,0.45C38.8,42.87,38.55,43.62,38.57,44.91z"/>
				</g>
			</g>
			<polygon class="st8" points="71.32,50.08 69.79,48.85 70.49,50.69 68.84,51.76 70.81,51.66 71.32,53.57 71.84,51.66 73.81,51.76 
				72.16,50.69 72.86,48.85 			"/>
			<polygon class="st8" points="43.7,50.13 41.87,49.39 43.08,50.95 41.81,52.46 43.66,51.79 44.7,53.47 44.65,51.5 46.56,51.03 
				44.68,50.48 44.82,48.5 			"/>
		</g>
		<g>
			<path class="st3" d="M29.07,50.52c0.05,0.03,0.12,0.06,0.2,0.06c0.12,0,0.19-0.06,0.19-0.15c0-0.08-0.05-0.13-0.16-0.17
				c-0.14-0.05-0.23-0.13-0.23-0.25c0-0.14,0.11-0.24,0.28-0.24c0.09,0,0.15,0.02,0.19,0.04l-0.03,0.09
				c-0.03-0.01-0.08-0.04-0.16-0.04c-0.12,0-0.17,0.07-0.17,0.13c0,0.09,0.05,0.12,0.17,0.17c0.15,0.06,0.22,0.13,0.22,0.26
				c0,0.13-0.1,0.25-0.3,0.25c-0.08,0-0.18-0.03-0.22-0.06L29.07,50.52z"/>
			<path class="st3" d="M29.85,49.88v0.15h0.16v0.09h-0.16v0.34c0,0.08,0.02,0.12,0.09,0.12c0.03,0,0.05,0,0.06-0.01L30,50.66
				c-0.02,0.01-0.06,0.01-0.1,0.01c-0.05,0-0.09-0.02-0.12-0.05c-0.03-0.04-0.04-0.09-0.04-0.17v-0.34h-0.1v-0.09h0.1v-0.12
				L29.85,49.88z"/>
			<path class="st3" d="M30.19,50.37c0,0.15,0.1,0.22,0.21,0.22c0.08,0,0.13-0.01,0.17-0.03l0.02,0.08
				c-0.04,0.02-0.11,0.04-0.21,0.04c-0.19,0-0.31-0.13-0.31-0.32c0-0.19,0.11-0.34,0.29-0.34c0.2,0,0.26,0.18,0.26,0.29
				c0,0.03,0,0.04,0,0.05H30.19z M30.53,50.28c0-0.07-0.03-0.18-0.16-0.18c-0.11,0-0.17,0.1-0.18,0.18H30.53z"/>
			<path class="st3" d="M30.78,50.24c0-0.08,0-0.15,0-0.2h0.1l0,0.1h0c0.05-0.08,0.12-0.12,0.22-0.12c0.15,0,0.26,0.13,0.26,0.32
				c0,0.22-0.14,0.33-0.28,0.33c-0.09,0-0.15-0.04-0.19-0.1h0v0.34h-0.11V50.24z M30.89,50.41c0,0.01,0,0.03,0,0.05
				c0.02,0.08,0.09,0.13,0.17,0.13c0.12,0,0.19-0.1,0.19-0.24c0-0.13-0.06-0.23-0.19-0.23c-0.08,0-0.15,0.05-0.17,0.14
				c0,0.01,0,0.03,0,0.05V50.41z"/>
			<path class="st3" d="M31.51,49.74h0.11v0.39h0c0.02-0.03,0.04-0.06,0.08-0.08c0.04-0.02,0.08-0.03,0.12-0.03
				c0.08,0,0.22,0.05,0.22,0.27v0.37h-0.11V50.3c0-0.1-0.04-0.19-0.14-0.19c-0.07,0-0.13,0.05-0.15,0.12
				c-0.01,0.01-0.01,0.03-0.01,0.05v0.38h-0.11V49.74z"/>
			<path class="st3" d="M32.67,50.51c0,0.05,0,0.1,0.01,0.15h-0.1l-0.01-0.08h0c-0.03,0.05-0.1,0.09-0.19,0.09
				c-0.13,0-0.19-0.09-0.19-0.18c0-0.15,0.14-0.23,0.38-0.23v-0.01c0-0.05-0.02-0.15-0.14-0.15c-0.06,0-0.12,0.02-0.17,0.05
				l-0.02-0.08c0.05-0.03,0.13-0.05,0.21-0.05c0.19,0,0.24,0.13,0.24,0.26V50.51z M32.56,50.34c-0.12,0-0.27,0.02-0.27,0.14
				c0,0.07,0.05,0.11,0.11,0.11c0.08,0,0.13-0.05,0.15-0.1c0-0.01,0-0.03,0-0.04V50.34z"/>
			<path class="st3" d="M32.85,50.2c0-0.07,0-0.12,0-0.17h0.1l0.01,0.1h0c0.03-0.06,0.1-0.11,0.21-0.11c0.09,0,0.22,0.05,0.22,0.27
				v0.37h-0.11V50.3c0-0.1-0.04-0.19-0.14-0.19c-0.07,0-0.13,0.05-0.15,0.12c-0.01,0.01-0.01,0.04-0.01,0.05v0.38h-0.12V50.2z"/>
			<path class="st3" d="M33.84,49.74h0.11v0.92h-0.11V49.74z"/>
			<path class="st3" d="M34.21,50.37c0,0.15,0.1,0.22,0.21,0.22c0.08,0,0.13-0.01,0.17-0.03l0.02,0.08
				c-0.04,0.02-0.11,0.04-0.21,0.04c-0.19,0-0.31-0.13-0.31-0.32c0-0.19,0.11-0.34,0.29-0.34c0.2,0,0.26,0.18,0.26,0.29
				c0,0.03,0,0.04,0,0.05H34.21z M34.54,50.28c0-0.07-0.03-0.18-0.16-0.18c-0.11,0-0.16,0.1-0.18,0.18H34.54z"/>
			<path class="st3" d="M35.06,50.52c0.05,0.03,0.12,0.06,0.2,0.06c0.12,0,0.18-0.06,0.18-0.15c0-0.08-0.05-0.13-0.16-0.17
				c-0.14-0.05-0.23-0.13-0.23-0.25c0-0.14,0.11-0.24,0.28-0.24c0.09,0,0.15,0.02,0.19,0.04l-0.03,0.09
				c-0.03-0.01-0.09-0.04-0.17-0.04c-0.12,0-0.16,0.07-0.16,0.13c0,0.09,0.05,0.12,0.17,0.17c0.15,0.06,0.22,0.13,0.22,0.26
				c0,0.13-0.1,0.25-0.3,0.25c-0.08,0-0.18-0.03-0.22-0.06L35.06,50.52z"/>
			<path class="st3" d="M36.15,50.51c0,0.05,0,0.1,0.01,0.15h-0.1l-0.01-0.08h0c-0.04,0.05-0.1,0.09-0.19,0.09
				c-0.12,0-0.19-0.09-0.19-0.18c0-0.15,0.13-0.23,0.38-0.23v-0.01c0-0.05-0.01-0.15-0.14-0.15c-0.06,0-0.12,0.02-0.16,0.05
				l-0.03-0.08c0.05-0.03,0.13-0.05,0.21-0.05c0.19,0,0.24,0.13,0.24,0.26V50.51z M36.04,50.34c-0.13,0-0.27,0.02-0.27,0.14
				c0,0.07,0.05,0.11,0.11,0.11c0.08,0,0.14-0.05,0.15-0.1c0-0.01,0.01-0.03,0.01-0.04V50.34z"/>
			<path class="st3" d="M36.87,50.57c0,0.14-0.03,0.23-0.09,0.28c-0.06,0.06-0.15,0.08-0.23,0.08c-0.07,0-0.16-0.02-0.21-0.05
				l0.03-0.09c0.04,0.03,0.11,0.05,0.18,0.05c0.11,0,0.2-0.06,0.2-0.22v-0.07h0c-0.03,0.06-0.1,0.11-0.2,0.11
				c-0.16,0-0.27-0.14-0.27-0.31c0-0.21,0.14-0.33,0.28-0.33c0.11,0,0.17,0.05,0.2,0.11l0,0l0-0.09h0.1c0,0.04,0,0.09,0,0.17V50.57z
				 M36.76,50.28c0-0.02,0-0.04-0.01-0.05c-0.02-0.07-0.08-0.12-0.16-0.12c-0.11,0-0.19,0.1-0.19,0.24c0,0.12,0.06,0.23,0.19,0.23
				c0.07,0,0.14-0.05,0.16-0.12c0.01-0.02,0.01-0.04,0.01-0.06V50.28z"/>
			<path class="st3" d="M37.12,50.37c0,0.15,0.1,0.22,0.21,0.22c0.08,0,0.13-0.01,0.17-0.03l0.02,0.08
				c-0.04,0.02-0.11,0.04-0.21,0.04c-0.19,0-0.31-0.13-0.31-0.32c0-0.19,0.11-0.34,0.3-0.34c0.2,0,0.26,0.18,0.26,0.29
				c0,0.03,0,0.04,0,0.05H37.12z M37.45,50.28c0-0.07-0.03-0.18-0.15-0.18c-0.12,0-0.17,0.1-0.18,0.18H37.45z"/>
		</g>
	</g>
</g>
<g id="Stuurhut">
</g>
</svg>
