<svg xmlns="http://www.w3.org/2000/svg" viewBox="0 0 63 117"><defs><style>.cls-1{fill:#fff;}.cls-2{fill:#231f20;}.cls-3{fill:#a6a8ab;}.cls-4{fill:#c6e9fa;}.cls-5{fill:#550700;}</style></defs><g id="Stuurhut"><rect class="cls-1" x="24.13" y="31.39" width="11.1" height="47.36"/><path class="cls-2" d="M23.76,79.12V31H35.6v48.1Zm11.46-.37v0ZM24.5,78.37H34.86V31.75H24.5V78.37Z"/><rect class="cls-1" x="23.02" y="61.73" width="13.32" height="38.3"/><path class="cls-2" d="M22.64,100.39v-39H36.7v39Zm13.7-.37v0Zm-13-.37H36V62.1H23.38V99.65Z"/><polygon class="cls-3" points="12.1 30.46 5.07 29.54 4.51 28.06 12.1 28.06 12.1 30.46"/><rect class="cls-1" x="12.04" y="22.01" width="36.76" height="9.13"/><path class="cls-2" d="M11.67,31.51V21.64H49.16v9.87Zm37.12-.37v0Zm-36.38-.37h36v-8.4h-36v8.4Z"/><polygon class="cls-3" points="8.04 6.53 4.92 6.53 4.92 28.26 9.68 28.26 8.04 6.53"/><rect class="cls-3" x="0.07" y="9.43" width="6.84" height="1.48"/><polygon class="cls-2" points="50.14 22.67 10.89 22.67 10.08 11.87 54.04 10.76 50.14 22.67"/><polygon class="cls-4" points="49.94 21.41 11.87 21.41 11.1 13.36 52.82 12.25 49.94 21.41"/><polygon class="cls-2" points="44.65 21.94 44.65 11.64 45.39 11.64 45.39 21.94 44.65 21.94 44.65 21.94"/><polygon class="cls-2" points="34.34 21.94 34.34 11.64 35.08 11.64 35.08 21.94 34.34 21.94 34.34 21.94"/><polygon class="cls-2" points="35.04 22.23 35.78 22.23 35.82 31.55 35.08 31.56 35.04 22.23 35.04 22.23"/><path class="cls-5" d="M9.07,12a.74.74,0,0,1,.72-.76h0l45.08-1.11a.74.74,0,0,1,.76.72h0a.73.73,0,0,1-.72.76h0L9.83,12.71h0A.74.74,0,0,1,9.07,12Z"/><path class="cls-3" d="M29.55,30.46V23.89a.38.38,0,0,1,.11-.26h0a.36.36,0,0,1,.26-.11H40.84a.37.37,0,0,1,.36.37h0a.36.36,0,0,1-.36.37H30.29v6.21h0a.38.38,0,0,1-.38.37h0a.37.37,0,0,1-.37-.37Z"/><path class="cls-3" d="M29.92,28.24a.37.37,0,0,1-.37-.37h0a.38.38,0,0,1,.37-.37h8.7a.38.38,0,0,1,.37.37h0a.37.37,0,0,1-.37.37h-8.7Z"/><path class="cls-3" d="M34.74,30.56V23.9a.37.37,0,0,1,.36-.38h0a.37.37,0,0,1,.37.38h0v6.66a.36.36,0,0,1-.37.36h0a.36.36,0,0,1-.36-.36Z"/><polygon class="cls-1" points="42.16 21.89 56.32 20.91 55.67 21.89 54.2 31.14 36.83 31.14 42.16 21.89"/><path class="cls-2" d="M36.19,31.51l5.65-9.8.1-.18L57,20.48l-.41.62-.59.84-1.53,9.57Zm1.28-.74H53.88l1.48-9.09.24-.36-13.22.92-4.91,8.53Z"/><rect class="cls-2" x="29.28" y="30.09" width="24.92" height="1.05"/><rect class="cls-3" x="25.46" y="100.45" width="9.42" height="16.29" rx="0.57"/><path class="cls-2" d="M25.09,117.11v-17H35.25v17Zm9.78-.37v0Zm-9-.36h8.68V100.81H25.83v15.57Z"/></g></svg>