<?xml version="1.0" encoding="utf-8"?>
<!-- Generator: Adobe Illustrator 26.0.3, SVG Export Plug-In . SVG Version: 6.00 Build 0)  -->
<svg version="1.1" xmlns="http://www.w3.org/2000/svg" xmlns:xlink="http://www.w3.org/1999/xlink" x="0px" y="0px"
	 viewBox="0 0 648 144" style="enable-background:new 0 0 648 144;" xml:space="preserve">
<style type="text/css">
	.st0{fill:#550700;}
	.st1{fill:#D7D8DA;}
	.st2{fill:#E2E3E4;}
	.st3{fill:#231F20;}
	.st4{fill:#932923;}
	.st5{fill:#FFFFFF;}
	.st6{fill:#C6E9FA;}
	.st7{fill:#EC1C24;}
	.st8{fill:#C4C3C3;}
	.st9{fill:url(#SVGID_1_);}
	.st10{fill:url(#SVGID_00000078733654199461080070000006711805609471279805_);}
	.st11{fill:#A6A8AB;}
	.st12{fill:#A4A7A9;}
	.st13{fill:url(#SVGID_00000029008924195183612940000012253979831750162845_);}
	.st14{fill:url(#SVGID_00000088839926429424646950000011293368588335030920_);}
	.st15{fill:url(#SVGID_00000147918901883006113730000006300965363869016750_);}
	.st16{fill:url(#SVGID_00000137122707407066064640000015407037161765458313_);}
	.st17{fill:#BDCCD4;}
	.st18{fill:#6E90A2;}
	.st19{fill:url(#SVGID_00000168804677689527121900000014978102552874149553_);}
	.st20{fill:url(#SVGID_00000136372084637887289960000017444999147743930534_);}
	.st21{fill:#67686B;}
</style>
<g id="Ship">
	<rect x="1764.7" y="517.52" class="st0" width="2.84" height="26.89"/>
	<g>
		<g>
			<polygon class="st1" points="729,529.04 757.69,529.04 757.69,533.06 731.49,533.06 729,532.25 			"/>
			<g>
				<path class="st2" d="M751.86,532.33c0,1.32,1.07,2.39,2.4,2.39c1.33,0,2.4-1.07,2.4-2.39c0-1.33-1.07-2.4-2.4-2.4
					C752.93,529.93,751.86,531.01,751.86,532.33z"/>
				<path class="st3" d="M756.98,532.33c0,1.51-1.22,2.72-2.73,2.72l0,0c-1.5,0-2.72-1.22-2.73-2.72l0,0c0-1.51,1.22-2.74,2.73-2.74
					l0,0C755.76,529.6,756.98,530.82,756.98,532.33L756.98,532.33z M756.32,532.33c0-1.14-0.92-2.07-2.07-2.07l0,0
					c-1.14,0-2.07,0.93-2.07,2.07l0,0c0,1.14,0.92,2.06,2.07,2.06l0,0C755.4,534.4,756.32,533.47,756.32,532.33L756.32,532.33z"/>
			</g>
			<g>
				<path class="st1" d="M729.89,532.33c0,1.32,1.07,2.39,2.4,2.39c1.33,0,2.4-1.07,2.4-2.39c0-1.33-1.07-2.4-2.4-2.4
					C730.97,529.93,729.89,531.01,729.89,532.33z"/>
				<path class="st3" d="M735.02,532.33c0,1.51-1.22,2.72-2.73,2.72l0,0c-1.51,0-2.73-1.22-2.73-2.72l0,0
					c0-1.51,1.22-2.74,2.73-2.74l0,0C733.8,529.6,735.02,530.82,735.02,532.33L735.02,532.33z M734.36,532.33
					c0-1.14-0.93-2.07-2.07-2.07l0,0c-1.14,0-2.06,0.93-2.07,2.07l0,0c0,1.14,0.93,2.06,2.07,2.06l0,0
					C733.43,534.4,734.36,533.47,734.36,532.33L734.36,532.33z"/>
			</g>
			<g>
				<path class="st4" d="M757.4,533.59c0,0,0.72-4.07-3.29-4.07c-3.3,0-3.41,3.96-3.41,3.96l-14.82-0.33c0,0-0.41-3.85-3.46-3.85
					c-3.27,0-3.18,3.13-3.18,3.13s-1.04,0.33-1.7-0.44c-0.66-0.76-0.49-2.96-0.49-2.96l0.6-0.72l0.22-2.58c0,0,0.11-1.59,2.58-2.58
					l-0.11-0.61c0,0,7.64-1.37,13.13-0.33c5.49,1.05,6.2,3.3,9.72,4.01c3.51,0.72,8.89,1.76,7.03,6.31l0.22,0.49
					C760.42,533.04,760.26,533.65,757.4,533.59z"/>
				<path class="st5" d="M760.2,529.53c0,0-2.47-0.05-5.16-1.92l3.57,0.38C758.61,527.99,759.43,528.43,760.2,529.53z"/>
				<path class="st6" d="M752.02,527.11c0,0-4.72-4.28-11.15-4.78c-6.42-0.5-8.57,1.21-8.57,1.21s1.1,1.26,2.53,1.48
					C736.26,525.25,752.02,527.11,752.02,527.11z"/>
				<path class="st3" d="M749.71,533.07c0.64-1.13,0.83-2.3,0.83-3.32l0,0c0-1.63-0.5-2.87-0.5-2.88l0,0c0,0-0.75-1.57-2.3-2.63l0,0
					c-0.03-0.02-0.06-0.01-0.07,0.02l0,0c-0.02,0.02-0.01,0.06,0.01,0.08l0,0c1.52,1.03,2.26,2.58,2.26,2.58l0,0
					c0,0,0.49,1.22,0.49,2.83l0,0c0,1-0.19,2.14-0.81,3.25l0,0l-10.26-0.27c0,0-0.05,0.02-0.14,0.02l0,0c-0.22,0-0.69-0.14-1.05-1.3
					l0,0c-0.49-1.63-0.49-5.8-0.49-5.8l0,0c0.01,0,0.2-2.15,1.82-3.34l0,0c0.02-0.01,0.03-0.05,0.01-0.08l0,0
					c-0.02-0.02-0.05-0.03-0.08-0.01l0,0c-1.67,1.22-1.86,3.41-1.86,3.42l0,0c0,0.01,0,4.17,0.5,5.84l0,0
					c0.35,1.18,0.87,1.38,1.15,1.38l0,0c0.1,0,0.16-0.02,0.16-0.02l0,0l10.3,0.27L749.71,533.07L749.71,533.07z"/>
				<path class="st7" d="M727.99,527.48c0,0,2.8,0.04,2.89-1v-0.98l-2.71,0.36C728.17,525.85,727.97,526.45,727.99,527.48z"/>
			</g>
		</g>
		<polygon class="st8" points="754.23,531.63 753,530.63 753.56,532.11 752.24,532.97 753.82,532.89 754.23,534.42 754.64,532.89 
			756.22,532.97 754.9,532.11 755.46,530.63 		"/>
		<polygon class="st8" points="732.1,531.66 730.64,531.07 731.6,532.32 730.58,533.53 732.07,533 732.9,534.34 732.86,532.76 
			734.39,532.38 732.88,531.94 733,530.36 		"/>
	</g>
	<g>
		<linearGradient id="SVGID_1_" gradientUnits="userSpaceOnUse" x1="716.6281" y1="531.6495" x2="725.7539" y2="531.6495">
			<stop  offset="0" style="stop-color:#FFFFFF"/>
			<stop  offset="1" style="stop-color:#231F20"/>
		</linearGradient>
		<line class="st9" x1="716.63" y1="529.11" x2="725.75" y2="534.19"/>
		<path class="st3" d="M725.39,534.83l-9.13-5.08c-0.35-0.19-0.48-0.64-0.28-1l0,0c0.2-0.36,0.65-0.49,1-0.29l0,0l9.13,5.07
			c0.36,0.2,0.48,0.65,0.29,1l0,0c-0.14,0.24-0.39,0.38-0.65,0.38l0,0C725.63,534.92,725.51,534.89,725.39,534.83L725.39,534.83z"/>
	</g>
	<g>
		<rect x="719.37" y="533.2" class="st0" width="3.24" height="15.97"/>
		<polygon class="st0" points="796.92,533.24 719.03,533.24 720.53,531.21 796.92,531.21 		"/>
		<path class="st0" d="M721.87,532.84c0,0.95-0.76,1.71-1.71,1.71c-0.94,0-1.71-0.76-1.71-1.71c0-0.94,0.77-1.71,1.71-1.71
			C721.1,531.13,721.87,531.9,721.87,532.84z"/>
	</g>
	<g>
		<rect x="807.22" y="538.8" class="st5" width="18.37" height="15.52"/>
		<path class="st3" d="M806.48,555.07v-17h19.85v16.26v0.74H806.48L806.48,555.07z M825.59,554.33v-0.74V554.33L825.59,554.33z
			 M807.95,553.59h16.89l0-14.05h-16.89V553.59L807.95,553.59z"/>
	</g>
	<g>
		<polygon class="st5" points="841.33,538.19 825.59,538.19 817.71,558.36 841.33,558.36 		"/>
		<path class="st3" d="M817.17,558.73l8.17-20.92h16v0.37v-0.37h0.37v20.92H817.17L817.17,558.73z M818.25,557.99h22.71v-19.44
			h-15.12L818.25,557.99L818.25,557.99z"/>
	</g>
	<g>
		<rect x="723.9" y="535.08" class="st5" width="84.63" height="22.35"/>
		<path class="st3" d="M723.53,557.8v-23.09h85.37v22.72v0.37H723.53L723.53,557.8z M808.53,557.43v-0.37V557.43L808.53,557.43z
			 M724.27,557.06h83.89v-21.61h-83.89V557.06L724.27,557.06z"/>
	</g>
	<g>
		<g>
			<path class="st6" d="M742.27,550.22c0,0.31-0.26,0.57-0.57,0.57h-12.97c-0.31,0-0.57-0.26-0.57-0.57v-9.74
				c0-0.31,0.26-0.57,0.57-0.57h12.97c0.31,0,0.57,0.26,0.57,0.57V550.22z"/>
		</g>
		<path class="st3" d="M727.79,551.15v-11.62h14.84v11.25v0.37H727.79L727.79,551.15z M742.27,550.78v-0.37V550.78L742.27,550.78z
			 M728.53,550.41h13.37v-10.13h-13.37V550.41L728.53,550.41z"/>
	</g>
	<g>
		<g>
			<path class="st6" d="M761.13,550.22c0,0.31-0.26,0.57-0.57,0.57h-12.97c-0.31,0-0.57-0.26-0.57-0.57v-9.74
				c0-0.31,0.26-0.57,0.57-0.57h12.97c0.31,0,0.57,0.26,0.57,0.57V550.22z"/>
		</g>
		<path class="st3" d="M746.66,551.15v-11.61h14.84v11.24v0.37H746.66L746.66,551.15z M761.14,550.78v-0.36V550.78L761.14,550.78z
			 M747.39,550.42h13.37v-10.14h-13.37V550.42L747.39,550.42z"/>
	</g>
	<g>
		<g>
			<path class="st6" d="M780,550.22c0,0.31-0.26,0.57-0.57,0.57h-12.97c-0.31,0-0.57-0.26-0.57-0.57v-9.74
				c0-0.31,0.26-0.57,0.57-0.57h12.97c0.31,0,0.57,0.26,0.57,0.57V550.22z"/>
		</g>
		<path class="st3" d="M765.52,551.15v-11.61h14.84v11.24v0.37H765.52L765.52,551.15z M780,550.78v-0.36V550.78L780,550.78z
			 M766.26,550.42h13.37v-10.14h-13.37V550.42L766.26,550.42z"/>
	</g>
	<g>
		<g>
			<path class="st6" d="M798.86,550.22c0,0.31-0.26,0.57-0.57,0.57h-12.97c-0.31,0-0.57-0.26-0.57-0.57v-9.74
				c0-0.31,0.26-0.57,0.57-0.57h12.97c0.31,0,0.57,0.26,0.57,0.57V550.22z"/>
		</g>
		<path class="st3" d="M784.39,551.15v-11.62h14.84v11.25v0.37H784.39L784.39,551.15z M798.86,550.78v-0.37V550.78L798.86,550.78z
			 M785.12,550.41h13.36v-10.13h-13.36V550.41L785.12,550.41z"/>
	</g>
	<g>
		<g>
			<path class="st6" d="M837.85,551.72c0,0.31-0.26,0.57-0.57,0.57h-12.97c-0.31,0-0.48-0.24-0.37-0.53l3.55-9.8
				c0.11-0.29,0.45-0.53,0.76-0.53h9.03c0.31,0,0.57,0.26,0.57,0.57V551.72z"/>
		</g>
		<path class="st3" d="M823.22,552.65l4.21-11.61h10.79v11.24v0.37H823.22L823.22,552.65z M837.85,552.29v-0.38V552.29
			L837.85,552.29z M824.27,551.91h13.21v-10.12h-9.54L824.27,551.91L824.27,551.91z"/>
	</g>
	<g>
		<polygon class="st5" points="752.64,534.92 809.19,529.8 844.65,528.25 841.33,538.19 825.59,538.19 826.37,535.03 807.81,535.02 
					"/>
		<path class="st3" d="M825.11,538.55l0.11-0.46l0.67-2.7l-18.08-0.01l-55.17-0.1v-0.37l0.03,0.37l-0.03-0.37v0.37l-0.04-0.74
			l56.56-5.12l36-1.58l-3.57,10.7H825.11L825.11,538.55z M807.82,534.65l19.02,0.01l-0.11,0.46l-0.67,2.69h15l3.07-9.18l-34.91,1.53
			l-48.56,4.4L807.82,534.65L807.82,534.65z"/>
	</g>
	
		<linearGradient id="SVGID_00000016064253453750179220000010472841575056915626_" gradientUnits="userSpaceOnUse" x1="707.5" y1="532.334" x2="716.6281" y2="532.334">
		<stop  offset="0" style="stop-color:#FFFFFF"/>
		<stop  offset="1" style="stop-color:#231F20"/>
	</linearGradient>
	
		<rect x="707.5" y="529.11" style="fill:url(#SVGID_00000016064253453750179220000010472841575056915626_);" width="9.13" height="6.44"/>
	<g>
		<polygon class="st11" points="1783.4,481.03 1780.28,481.03 1780.28,531.25 1785.04,531.25 		"/>
		<rect x="1775.43" y="488.18" class="st11" width="6.84" height="3.01"/>
	</g>
	<g>
		<rect x="1788.2" y="525.43" class="st12" width="5.67" height="16.77"/>
		<rect x="1786.47" y="522.96" class="st12" width="8.88" height="3.95"/>
	</g>
	<g>
		<rect x="1770.56" y="531.38" class="st5" width="23.2" height="22.35"/>
		<path class="st3" d="M1770.19,554.1v-23.09h23.93v22.72v0.37H1770.19L1770.19,554.1z M1793.76,553.73v-0.37V553.73L1793.76,553.73
			z M1770.92,553.36h22.47v-21.62h-22.47V553.36L1770.92,553.36z"/>
	</g>
	
		<linearGradient id="SVGID_00000039112136008025962110000018352389276178726574_" gradientUnits="userSpaceOnUse" x1="1767.3625" y1="492.0038" x2="1776.9413" y2="492.0038">
		<stop  offset="0" style="stop-color:#FFFFFF"/>
		<stop  offset="0.8297" style="stop-color:#F6921E"/>
	</linearGradient>
	<polygon style="fill:url(#SVGID_00000039112136008025962110000018352389276178726574_);" points="1776.94,494.53 1767.36,491.96 
		1776.94,489.48 	"/>
	<g>
		<polygon class="st5" points="711.45,555.9 712.56,548.37 725.51,549.17 727.73,551.23 798.42,554.37 861.68,554.42 887.76,560.09 
			819.13,559.98 751.22,559.79 		"/>
		<path class="st3" d="M819.12,560.35l-67.93-0.19l-39.78-3.9l0.04-0.36l0.36,0.05l-0.36-0.05l-0.04,0.36l-0.39-0.05l1.22-8.24
			l13.43,0.83l2.21,2.06l70.54,3.13l63.33,0.05l26.09,5.67l-0.08,0.73L819.12,560.35L819.12,560.35z M751.23,559.42l67.9,0.19
			l65.17,0.1l-22.62-4.93l-63.27-0.05l-70.83-3.14l-2.21-2.07l-12.48-0.77l-1,6.81L751.23,559.42L751.23,559.42z"/>
	</g>
	<rect x="739.94" y="580.19" class="st3" width="90.65" height="13.32"/>
	<rect x="719.59" y="582.17" class="st3" width="14.06" height="11.1"/>
	<rect x="727.73" y="576.24" class="st3" width="3.95" height="7.16"/>
	<path class="st5" d="M775.73,561.59c-44.6-0.92-63.58-3.24-63.59-3.24l0,0h0.01c-0.21-0.02-0.35-0.21-0.33-0.41l0,0
		c0.02-0.21,0.21-0.35,0.41-0.32l0,0c0.06,0,18.94,2.31,63.52,3.24l0,0c0.2,0,0.36,0.17,0.36,0.37l0,0
		c-0.01,0.19-0.17,0.36-0.36,0.36l0,0C775.74,561.59,775.74,561.59,775.73,561.59L775.73,561.59z"/>
	<g>
		<rect x="841.76" y="547.63" class="st0" width="865.53" height="13.08"/>
		<polygon class="st5" points="875.67,557.93 875.67,550.53 878.63,550.53 878.63,557.93 875.67,557.93 		"/>
		<polygon class="st5" points="852.24,557.93 852.24,550.53 855.2,550.53 855.2,557.93 852.24,557.93 		"/>
		<polygon class="st5" points="899.54,557.93 899.54,550.53 902.5,550.53 902.5,557.93 899.54,557.93 		"/>
		<polygon class="st5" points="923.41,557.93 923.41,550.53 926.36,550.53 926.36,557.93 923.41,557.93 		"/>
		<polygon class="st5" points="947.27,557.93 947.27,550.53 950.23,550.53 950.23,557.93 947.27,557.93 		"/>
		<polygon class="st5" points="971.14,557.93 971.14,550.53 974.1,550.53 974.1,557.93 971.14,557.93 		"/>
		<polygon class="st5" points="995,557.93 995,550.53 997.96,550.53 997.96,557.93 995,557.93 		"/>
		<polygon class="st5" points="1018.87,557.93 1018.87,550.53 1021.83,550.53 1021.83,557.93 1018.87,557.93 		"/>
		<polygon class="st5" points="1042.74,557.93 1042.74,550.53 1045.69,550.53 1045.69,557.93 1042.74,557.93 		"/>
		<polygon class="st5" points="1066.6,557.93 1066.6,550.53 1069.56,550.53 1069.56,557.93 1066.6,557.93 		"/>
		<polygon class="st5" points="1090.47,557.93 1090.47,550.53 1093.43,550.53 1093.43,557.93 1090.47,557.93 		"/>
		<polygon class="st5" points="1114.33,557.93 1114.33,550.53 1117.29,550.53 1117.29,557.93 1114.33,557.93 		"/>
		<polygon class="st5" points="1138.2,557.93 1138.2,550.53 1141.16,550.53 1141.16,557.93 1138.2,557.93 		"/>
		<polygon class="st5" points="1162.07,557.93 1162.07,550.53 1165.02,550.53 1165.02,557.93 1162.07,557.93 		"/>
		<polygon class="st5" points="1185.93,557.93 1185.93,550.53 1188.9,550.53 1188.9,557.93 1185.93,557.93 		"/>
		<polygon class="st5" points="1209.79,557.93 1209.79,550.53 1212.76,550.53 1212.76,557.93 1209.79,557.93 		"/>
		<polygon class="st5" points="1233.66,557.93 1233.66,550.53 1236.62,550.53 1236.62,557.93 1233.66,557.93 		"/>
		<polygon class="st5" points="1257.53,557.93 1257.53,550.53 1260.49,550.53 1260.49,557.93 1257.53,557.93 		"/>
		<polygon class="st5" points="1281.4,557.93 1281.4,550.53 1284.35,550.53 1284.35,557.93 1281.4,557.93 		"/>
		<polygon class="st5" points="1305.26,557.93 1305.26,550.53 1308.23,550.53 1308.23,557.93 1305.26,557.93 		"/>
		<polygon class="st5" points="1329.13,557.93 1329.13,550.53 1332.09,550.53 1332.09,557.93 1329.13,557.93 		"/>
		<polygon class="st5" points="1352.99,557.93 1352.99,550.53 1355.96,550.53 1355.96,557.93 1352.99,557.93 		"/>
		<polygon class="st5" points="1376.86,557.93 1376.86,550.53 1379.82,550.53 1379.82,557.93 1376.86,557.93 		"/>
		<polygon class="st5" points="1400.73,557.93 1400.73,550.53 1403.68,550.53 1403.68,557.93 1400.73,557.93 		"/>
		<polygon class="st5" points="1424.59,557.93 1424.59,550.53 1427.56,550.53 1427.56,557.93 1424.59,557.93 		"/>
		<polygon class="st5" points="1448.46,557.93 1448.46,550.53 1451.42,550.53 1451.42,557.93 1448.46,557.93 		"/>
		<polygon class="st5" points="1472.32,557.93 1472.32,550.53 1475.29,550.53 1475.29,557.93 1472.32,557.93 		"/>
		<polygon class="st5" points="1496.19,557.93 1496.19,550.53 1499.15,550.53 1499.15,557.93 1496.19,557.93 		"/>
		<polygon class="st5" points="1520.06,557.93 1520.06,550.53 1523.02,550.53 1523.02,557.93 1520.06,557.93 		"/>
		<polygon class="st5" points="841.82,551.08 841.82,549.6 1706.18,549.6 1706.18,551.08 841.82,551.08 		"/>
		<rect x="848.72" y="528.51" class="st0" width="2.22" height="20.84"/>
	</g>
	<polygon class="st5" points="1520,558.17 1520,550.77 1522.96,550.77 1522.96,558.17 1520,558.17 	"/>
	<polygon class="st5" points="1543.86,558.17 1543.86,550.77 1546.82,550.77 1546.82,558.17 1543.86,558.17 	"/>
	<polygon class="st5" points="1567.73,558.17 1567.73,550.77 1570.69,550.77 1570.69,558.17 1567.73,558.17 	"/>
	<polygon class="st5" points="1591.6,558.17 1591.6,550.77 1594.55,550.77 1594.55,558.17 1591.6,558.17 	"/>
	<polygon class="st5" points="1591.62,558.17 1591.62,550.77 1594.59,550.77 1594.59,558.17 1591.62,558.17 	"/>
	<polygon class="st5" points="1615.49,558.17 1615.49,550.77 1618.45,550.77 1618.45,558.17 1615.49,558.17 	"/>
	<polygon class="st5" points="1639.36,558.17 1639.36,550.77 1642.31,550.77 1642.31,558.17 1639.36,558.17 	"/>
	<polygon class="st5" points="1663.22,558.17 1663.22,550.77 1666.18,550.77 1666.18,558.17 1663.22,558.17 	"/>
	<polygon class="st5" points="1687.15,557.92 1687.15,550.53 1690.11,550.53 1690.11,557.92 1687.15,557.92 	"/>
	<g>
		<polygon class="st5" points="1670.65,554.41 1723.2,544.92 1837.78,537.21 1839.13,545.9 1835.8,548.13 1730.97,554.04 		"/>
		<path class="st3" d="M1670.28,554.44c-0.02-0.19,0.12-0.36,0.3-0.39l0,0l52.59-9.51l114.58-7.71c0.19-0.02,0.36,0.13,0.4,0.32l0,0
			l1.35,8.7l-0.16,0.36l-3.34,2.22l-0.18,0.06l-104.86,5.92l-60.31,0.37C1670.46,554.78,1670.3,554.63,1670.28,554.44
			L1670.28,554.44z M1670.72,554.77l-0.07-0.37L1670.72,554.77L1670.72,554.77z M1723.26,545.27l-48.35,8.74l56.03-0.35l104.73-5.91
			l3.05-2.03l-1.27-8.12L1723.26,545.27L1723.26,545.27z"/>
	</g>
	<path class="st3" d="M813.57,560.2l22.57-0.12l5.37-6.78h890.27l107.69-7.49v2.5l-10.01,40.52c0,0-2.97,4.69-7.41,4.69
		c-4.44,0-1001.63,0-1001.63,0s-20.59-1.95-45.14-4.81c-22.19-2.59-47.8-5.5-60.81-16.16l-3.39-16.29
		C711.08,556.26,783.1,560.45,813.57,560.2z"/>
	<rect x="1648.51" y="517.77" class="st0" width="2.84" height="30.59"/>
	<rect x="1534.79" y="517.77" class="st0" width="2.84" height="30.59"/>
	<rect x="1421.08" y="517.77" class="st0" width="2.84" height="30.59"/>
	<rect x="1307.17" y="517.77" class="st0" width="2.84" height="30.59"/>
	<rect x="1193.09" y="517.77" class="st0" width="2.84" height="30.59"/>
	<rect x="1079.19" y="517.77" class="st0" width="2.83" height="30.59"/>
	<rect x="965.47" y="517.77" class="st0" width="2.84" height="30.59"/>
	<g>
		<line class="st3" x1="1838.3" y1="548.52" x2="1792.05" y2="551.85"/>
		<path class="st5" d="M1791.67,551.88c-0.01-0.2,0.14-0.38,0.35-0.4l0,0l46.25-3.32c0.2-0.01,0.38,0.14,0.4,0.34l0,0
			c0.01,0.21-0.14,0.38-0.34,0.4l0,0l-46.26,3.33c-0.01,0-0.02,0-0.03,0l0,0C1791.85,552.22,1791.69,552.07,1791.67,551.88
			L1791.67,551.88z"/>
	</g>
	<g>
		<path class="st3" d="M723.23,532.51c0.04,0.03,0.1,0.05,0.16,0.05c0.09,0,0.15-0.05,0.15-0.12c0-0.06-0.04-0.11-0.13-0.14
			c-0.11-0.04-0.18-0.1-0.18-0.19c0-0.11,0.09-0.19,0.23-0.19c0.07,0,0.12,0.02,0.15,0.03l-0.03,0.07
			c-0.02-0.01-0.07-0.03-0.13-0.03c-0.1,0-0.13,0.06-0.13,0.1c0,0.07,0.04,0.1,0.14,0.13c0.12,0.05,0.18,0.11,0.18,0.21
			c0,0.11-0.08,0.2-0.24,0.2c-0.07,0-0.14-0.02-0.18-0.05L723.23,532.51z"/>
		<path class="st3" d="M723.85,532v0.12h0.13v0.07h-0.13v0.27c0,0.06,0.02,0.1,0.07,0.1c0.02,0,0.04,0,0.05-0.01l0.01,0.07
			c-0.02,0-0.05,0.01-0.08,0.01c-0.04,0-0.08-0.02-0.1-0.04c-0.02-0.03-0.03-0.07-0.03-0.13v-0.27h-0.08v-0.07h0.08v-0.09
			L723.85,532z"/>
		<path class="st3" d="M724.13,532.39c0,0.13,0.08,0.17,0.17,0.17c0.06,0,0.11-0.02,0.14-0.02l0.02,0.06
			c-0.03,0.01-0.09,0.03-0.17,0.03c-0.15,0-0.25-0.11-0.25-0.25c0-0.15,0.09-0.27,0.24-0.27c0.16,0,0.21,0.14,0.21,0.24
			c0,0.02,0,0.03,0,0.04H724.13z M724.4,532.32c0-0.05-0.02-0.14-0.13-0.14c-0.09,0-0.13,0.08-0.14,0.14H724.4z"/>
		<path class="st3" d="M724.6,532.28c0-0.06,0-0.12,0-0.16h0.08l0,0.08h0c0.04-0.06,0.09-0.1,0.18-0.1c0.12,0,0.21,0.1,0.21,0.25
			c0,0.18-0.11,0.27-0.23,0.27c-0.07,0-0.12-0.03-0.15-0.08h0v0.27h-0.09V532.28z M724.69,532.42c0,0.01,0,0.03,0,0.04
			c0.02,0.06,0.07,0.11,0.13,0.11c0.1,0,0.15-0.08,0.15-0.19c0-0.1-0.05-0.19-0.15-0.19c-0.06,0-0.12,0.04-0.14,0.11
			c0,0.01,0,0.02,0,0.04V532.42z"/>
		<path class="st3" d="M725.19,531.89h0.09v0.32h0c0.01-0.03,0.04-0.05,0.06-0.06c0.03-0.02,0.06-0.03,0.1-0.03
			c0.07,0,0.17,0.04,0.17,0.21v0.3h-0.09v-0.29c0-0.08-0.03-0.15-0.12-0.15c-0.06,0-0.1,0.04-0.12,0.09
			c-0.01,0.01-0.01,0.03-0.01,0.04v0.3h-0.09V531.89z"/>
		<path class="st3" d="M726.12,532.5c0,0.05,0,0.08,0.01,0.12h-0.08l-0.01-0.06h0c-0.03,0.04-0.08,0.08-0.16,0.08
			c-0.1,0-0.15-0.07-0.15-0.14c0-0.12,0.11-0.19,0.3-0.19v-0.01c0-0.05-0.01-0.12-0.11-0.12c-0.05,0-0.1,0.02-0.13,0.04l-0.02-0.06
			c0.04-0.02,0.1-0.04,0.17-0.04c0.15,0,0.19,0.1,0.19,0.21V532.5z M726.03,532.37c-0.1,0-0.21,0.01-0.21,0.11
			c0,0.06,0.04,0.09,0.09,0.09c0.06,0,0.11-0.04,0.12-0.08c0-0.01,0-0.02,0-0.03V532.37z"/>
		<path class="st3" d="M726.26,532.26c0-0.06,0-0.1,0-0.14h0.08l0.01,0.08h0c0.03-0.05,0.08-0.09,0.17-0.09
			c0.07,0,0.18,0.04,0.18,0.21v0.3h-0.09v-0.29c0-0.08-0.03-0.15-0.11-0.15c-0.06,0-0.11,0.04-0.12,0.09
			c-0.01,0.01-0.01,0.03-0.01,0.04v0.3h-0.09V532.26z"/>
		<path class="st3" d="M727.06,531.89h0.09v0.74h-0.09V531.89z"/>
		<path class="st3" d="M727.35,532.39c0,0.13,0.08,0.17,0.17,0.17c0.06,0,0.11-0.02,0.14-0.02l0.02,0.06
			c-0.03,0.01-0.09,0.03-0.17,0.03c-0.15,0-0.25-0.11-0.25-0.25c0-0.15,0.09-0.27,0.24-0.27c0.16,0,0.21,0.14,0.21,0.24
			c0,0.02,0,0.03,0,0.04H727.35z M727.62,532.32c0-0.05-0.02-0.14-0.13-0.14c-0.09,0-0.13,0.08-0.14,0.14H727.62z"/>
		<path class="st3" d="M728.03,532.51c0.04,0.03,0.1,0.05,0.16,0.05c0.09,0,0.15-0.05,0.15-0.12c0-0.06-0.04-0.11-0.13-0.14
			c-0.12-0.04-0.19-0.1-0.19-0.19c0-0.11,0.09-0.19,0.23-0.19c0.07,0,0.12,0.02,0.15,0.03l-0.02,0.07
			c-0.02-0.01-0.07-0.03-0.13-0.03c-0.1,0-0.13,0.06-0.13,0.1c0,0.07,0.04,0.1,0.14,0.13c0.12,0.05,0.18,0.11,0.18,0.21
			c0,0.11-0.08,0.2-0.24,0.2c-0.07,0-0.14-0.02-0.18-0.05L728.03,532.51z"/>
		<path class="st3" d="M728.91,532.5c0,0.05,0,0.08,0.01,0.12h-0.08l-0.01-0.06h0c-0.03,0.04-0.08,0.08-0.16,0.08
			c-0.1,0-0.15-0.07-0.15-0.14c0-0.12,0.11-0.19,0.3-0.19v-0.01c0-0.05-0.01-0.12-0.11-0.12c-0.05,0-0.1,0.02-0.13,0.04l-0.02-0.06
			c0.04-0.02,0.1-0.04,0.16-0.04c0.16,0,0.19,0.1,0.19,0.21V532.5z M728.82,532.37c-0.1,0-0.21,0.01-0.21,0.11
			c0,0.06,0.04,0.09,0.08,0.09c0.07,0,0.11-0.04,0.12-0.08c0-0.01,0.01-0.02,0.01-0.03V532.37z"/>
		<path class="st3" d="M729.48,532.55c0,0.12-0.02,0.19-0.07,0.23c-0.05,0.05-0.12,0.06-0.18,0.06c-0.06,0-0.13-0.01-0.17-0.04
			l0.02-0.07c0.04,0.02,0.09,0.04,0.15,0.04c0.09,0,0.16-0.05,0.16-0.18v-0.05h0c-0.03,0.05-0.08,0.08-0.16,0.08
			c-0.13,0-0.21-0.11-0.21-0.25c0-0.17,0.11-0.27,0.23-0.27c0.09,0,0.13,0.04,0.16,0.09l0,0l0-0.08h0.08c0,0.03,0,0.08,0,0.14
			V532.55z M729.39,532.32c0-0.02,0-0.03-0.01-0.04c-0.02-0.05-0.06-0.1-0.13-0.1c-0.09,0-0.15,0.08-0.15,0.19
			c0,0.1,0.05,0.18,0.15,0.18c0.06,0,0.11-0.04,0.13-0.1c0.01-0.02,0.01-0.03,0.01-0.05V532.32z"/>
		<path class="st3" d="M729.68,532.39c0,0.13,0.08,0.17,0.17,0.17c0.07,0,0.11-0.02,0.14-0.02l0.02,0.06
			c-0.03,0.01-0.09,0.03-0.17,0.03c-0.15,0-0.25-0.11-0.25-0.25c0-0.15,0.09-0.27,0.24-0.27c0.16,0,0.21,0.14,0.21,0.24
			c0,0.02,0,0.03,0,0.04H729.68z M729.95,532.32c0-0.05-0.02-0.14-0.12-0.14c-0.09,0-0.13,0.08-0.14,0.14H729.95z"/>
	</g>
</g>
<g id="Container-short">
	<g>
		<rect x="572.7" y="36.52" class="st0" width="2.84" height="26.89"/>
		<g>
			<g>
				<polygon class="st1" points="23,48.04 51.69,48.04 51.69,52.06 25.49,52.06 23,51.25 				"/>
				<g>
					<path class="st2" d="M45.86,51.33c0,1.32,1.07,2.39,2.4,2.39c1.33,0,2.4-1.07,2.4-2.39c0-1.33-1.07-2.4-2.4-2.4
						C46.93,48.93,45.86,50.01,45.86,51.33z"/>
					<path class="st3" d="M50.98,51.33c0,1.51-1.22,2.72-2.73,2.72l0,0c-1.5,0-2.72-1.22-2.73-2.72l0,0c0-1.51,1.22-2.74,2.73-2.74
						l0,0C49.76,48.6,50.98,49.82,50.98,51.33L50.98,51.33z M50.32,51.33c0-1.15-0.92-2.07-2.07-2.07l0,0
						c-1.14,0-2.07,0.93-2.07,2.07l0,0c0,1.14,0.92,2.06,2.07,2.06l0,0C49.4,53.4,50.32,52.47,50.32,51.33L50.32,51.33z"/>
				</g>
				<g>
					<path class="st1" d="M23.89,51.33c0,1.32,1.07,2.39,2.4,2.39c1.33,0,2.4-1.07,2.4-2.39c0-1.33-1.07-2.4-2.4-2.4
						C24.97,48.93,23.89,50.01,23.89,51.33z"/>
					<path class="st3" d="M29.02,51.33c0,1.51-1.22,2.72-2.73,2.72l0,0c-1.51,0-2.73-1.22-2.73-2.72l0,0c0-1.51,1.22-2.74,2.73-2.74
						l0,0C27.8,48.6,29.02,49.82,29.02,51.33L29.02,51.33z M28.36,51.33c0-1.15-0.93-2.07-2.07-2.07l0,0
						c-1.14,0-2.06,0.93-2.07,2.07l0,0c0,1.14,0.93,2.06,2.07,2.06l0,0C27.43,53.4,28.36,52.47,28.36,51.33L28.36,51.33z"/>
				</g>
				<g>
					<path class="st4" d="M51.4,52.59c0,0,0.72-4.07-3.29-4.07c-3.3,0-3.41,3.96-3.41,3.96l-14.82-0.33c0,0-0.41-3.85-3.46-3.85
						c-3.27,0-3.18,3.13-3.18,3.13s-1.04,0.33-1.7-0.44c-0.66-0.76-0.49-2.96-0.49-2.96l0.6-0.72l0.22-2.58c0,0,0.11-1.59,2.58-2.58
						l-0.11-0.61c0,0,7.64-1.37,13.13-0.33c5.49,1.05,6.2,3.3,9.72,4.01c3.51,0.72,8.89,1.76,7.03,6.31l0.22,0.49
						C54.42,52.04,54.26,52.65,51.4,52.59z"/>
					<path class="st5" d="M54.2,48.53c0,0-2.47-0.05-5.16-1.92l3.57,0.38C52.61,46.99,53.43,47.43,54.2,48.53z"/>
					<path class="st6" d="M46.02,46.11c0,0-4.72-4.28-11.15-4.78c-6.42-0.5-8.57,1.21-8.57,1.21s1.1,1.26,2.53,1.48
						C30.26,44.25,46.02,46.11,46.02,46.11z"/>
					<path class="st3" d="M43.71,52.07c0.64-1.13,0.83-2.3,0.83-3.32l0,0c0-1.63-0.5-2.87-0.5-2.88l0,0c0,0-0.75-1.57-2.3-2.63l0,0
						c-0.03-0.02-0.06-0.01-0.07,0.02l0,0c-0.02,0.02-0.01,0.06,0.01,0.08l0,0c1.52,1.03,2.26,2.58,2.26,2.58l0,0
						c0,0,0.49,1.22,0.49,2.83l0,0c0,1-0.19,2.14-0.81,3.25l0,0l-10.26-0.27c0,0-0.05,0.02-0.14,0.02l0,0
						c-0.22,0-0.69-0.14-1.05-1.3l0,0c-0.49-1.63-0.49-5.8-0.49-5.8l0,0c0.01,0,0.2-2.15,1.82-3.34l0,0
						c0.02-0.01,0.03-0.05,0.01-0.08l0,0c-0.02-0.02-0.05-0.03-0.08-0.01l0,0c-1.67,1.22-1.86,3.41-1.86,3.42l0,0
						c0,0.01,0,4.17,0.5,5.84l0,0c0.35,1.18,0.87,1.38,1.15,1.38l0,0c0.1,0,0.16-0.02,0.16-0.02l0,0l10.3,0.27L43.71,52.07
						L43.71,52.07z"/>
					<path class="st7" d="M21.99,46.48c0,0,2.8,0.04,2.89-1v-0.98l-2.71,0.36C22.17,44.85,21.97,45.45,21.99,46.48z"/>
				</g>
			</g>
			<polygon class="st8" points="48.23,50.63 47,49.63 47.56,51.11 46.24,51.97 47.82,51.89 48.23,53.42 48.64,51.89 50.22,51.97 
				48.9,51.11 49.46,49.63 			"/>
			<polygon class="st8" points="26.1,50.66 24.64,50.07 25.6,51.32 24.58,52.53 26.07,52 26.9,53.34 26.86,51.76 28.39,51.38 
				26.88,50.94 27,49.36 			"/>
		</g>
		<g>
			
				<linearGradient id="SVGID_00000148638939894732256330000002478324280979033527_" gradientUnits="userSpaceOnUse" x1="10.6281" y1="50.6495" x2="19.7539" y2="50.6495">
				<stop  offset="0" style="stop-color:#FFFFFF"/>
				<stop  offset="1" style="stop-color:#231F20"/>
			</linearGradient>
			
				<line style="fill:url(#SVGID_00000148638939894732256330000002478324280979033527_);" x1="10.63" y1="48.11" x2="19.75" y2="53.19"/>
			<path class="st3" d="M19.39,53.83l-9.13-5.08c-0.35-0.19-0.48-0.64-0.28-1l0,0c0.2-0.36,0.65-0.49,1-0.29l0,0l9.13,5.07
				c0.36,0.2,0.48,0.65,0.29,1l0,0c-0.14,0.24-0.39,0.38-0.65,0.38l0,0C19.63,53.92,19.51,53.89,19.39,53.83L19.39,53.83z"/>
		</g>
		<g>
			<rect x="13.37" y="52.2" class="st0" width="3.24" height="15.97"/>
			<polygon class="st0" points="90.92,52.24 13.03,52.24 14.53,50.21 90.92,50.21 			"/>
			<path class="st0" d="M15.87,51.84c0,0.95-0.76,1.71-1.71,1.71c-0.94,0-1.71-0.76-1.71-1.71c0-0.94,0.77-1.71,1.71-1.71
				C15.1,50.13,15.87,50.9,15.87,51.84z"/>
		</g>
		<g>
			<rect x="101.22" y="57.8" class="st5" width="18.37" height="15.52"/>
			<path class="st3" d="M100.48,74.07v-17h19.85v16.26v0.74H100.48L100.48,74.07z M119.59,73.33v-0.74V73.33L119.59,73.33z
				 M101.95,72.59h16.89l0-14.05h-16.89V72.59L101.95,72.59z"/>
		</g>
		<g>
			<polygon class="st5" points="135.33,57.19 119.59,57.19 111.71,77.36 135.33,77.36 			"/>
			<path class="st3" d="M111.17,77.73l8.17-20.92h16v0.37v-0.37h0.37v20.92H111.17L111.17,77.73z M112.25,76.99h22.71V57.55h-15.12
				L112.25,76.99L112.25,76.99z"/>
		</g>
		<g>
			<rect x="17.9" y="54.08" class="st5" width="84.63" height="22.35"/>
			<path class="st3" d="M17.53,76.8V53.71h85.37v22.72v0.37H17.53L17.53,76.8z M102.53,76.43v-0.37V76.43L102.53,76.43z
				 M18.27,76.06h83.89V54.45H18.27V76.06L18.27,76.06z"/>
		</g>
		<g>
			<g>
				<path class="st6" d="M36.27,69.22c0,0.31-0.26,0.57-0.57,0.57H22.73c-0.31,0-0.57-0.26-0.57-0.57v-9.74
					c0-0.31,0.26-0.57,0.57-0.57h12.97c0.31,0,0.57,0.26,0.57,0.57V69.22z"/>
			</g>
			<path class="st3" d="M21.79,70.15V58.54h14.84v11.25v0.37H21.79L21.79,70.15z M36.27,69.78v-0.37V69.78L36.27,69.78z
				 M22.53,69.41H35.9V59.28H22.53V69.41L22.53,69.41z"/>
		</g>
		<g>
			<g>
				<path class="st6" d="M55.13,69.22c0,0.31-0.26,0.57-0.57,0.57H41.59c-0.31,0-0.57-0.26-0.57-0.57v-9.74
					c0-0.31,0.26-0.57,0.57-0.57h12.97c0.31,0,0.57,0.26,0.57,0.57V69.22z"/>
			</g>
			<path class="st3" d="M40.66,70.15V58.54H55.5v11.24v0.37H40.66L40.66,70.15z M55.14,69.78v-0.36V69.78L55.14,69.78z M41.39,69.42
				h13.37V59.28H41.39V69.42L41.39,69.42z"/>
		</g>
		<g>
			<g>
				<path class="st6" d="M74,69.22c0,0.31-0.26,0.57-0.57,0.57H60.46c-0.31,0-0.57-0.26-0.57-0.57v-9.74c0-0.31,0.26-0.57,0.57-0.57
					h12.97c0.31,0,0.57,0.26,0.57,0.57V69.22z"/>
			</g>
			<path class="st3" d="M59.52,70.15V58.54h14.84v11.24v0.37H59.52L59.52,70.15z M74,69.78v-0.36V69.78L74,69.78z M60.26,69.42
				h13.37V59.28H60.26V69.42L60.26,69.42z"/>
		</g>
		<g>
			<g>
				<path class="st6" d="M92.86,69.22c0,0.31-0.26,0.57-0.57,0.57H79.32c-0.31,0-0.57-0.26-0.57-0.57v-9.74
					c0-0.31,0.26-0.57,0.57-0.57h12.97c0.31,0,0.57,0.26,0.57,0.57V69.22z"/>
			</g>
			<path class="st3" d="M78.39,70.15V58.54h14.84v11.25v0.37H78.39L78.39,70.15z M92.86,69.78v-0.37V69.78L92.86,69.78z
				 M79.12,69.41h13.36V59.28H79.12V69.41L79.12,69.41z"/>
		</g>
		<g>
			<g>
				<path class="st6" d="M131.85,70.72c0,0.31-0.26,0.57-0.57,0.57h-12.97c-0.31,0-0.48-0.24-0.37-0.53l3.55-9.8
					c0.11-0.29,0.45-0.53,0.76-0.53h9.03c0.31,0,0.57,0.26,0.57,0.57V70.72z"/>
			</g>
			<path class="st3" d="M117.22,71.65l4.21-11.61h10.79v11.24v0.37H117.22L117.22,71.65z M131.85,71.29v-0.38V71.29L131.85,71.29z
				 M118.27,70.91h13.21V60.79h-9.54L118.27,70.91L118.27,70.91z"/>
		</g>
		<g>
			<polygon class="st5" points="46.64,53.92 103.19,48.8 138.65,47.25 135.33,57.19 119.59,57.19 120.37,54.03 101.81,54.02 			"/>
			<path class="st3" d="M119.11,57.55l0.11-0.46l0.67-2.7l-18.08-0.01l-55.17-0.1v-0.37l0.03,0.37l-0.03-0.37v0.37l-0.04-0.74
				l56.56-5.12l36-1.58l-3.57,10.7H119.11L119.11,57.55z M101.82,53.65l19.02,0.01l-0.11,0.46l-0.67,2.69h15l3.07-9.18l-34.91,1.53
				l-48.56,4.4L101.82,53.65L101.82,53.65z"/>
		</g>
		
			<linearGradient id="SVGID_00000099658913874005525970000015465953802149314991_" gradientUnits="userSpaceOnUse" x1="1.5" y1="51.334" x2="10.6281" y2="51.334">
			<stop  offset="0" style="stop-color:#FFFFFF"/>
			<stop  offset="1" style="stop-color:#231F20"/>
		</linearGradient>
		
			<rect x="1.5" y="48.11" style="fill:url(#SVGID_00000099658913874005525970000015465953802149314991_);" width="9.13" height="6.44"/>
		<g>
			<polygon class="st11" points="591.4,0.03 588.28,0.03 588.28,50.25 593.04,50.25 			"/>
			<rect x="583.43" y="7.18" class="st11" width="6.84" height="3.01"/>
		</g>
		<g>
			<rect x="596.2" y="44.43" class="st12" width="5.67" height="16.77"/>
			<rect x="594.47" y="41.96" class="st12" width="8.88" height="3.95"/>
		</g>
		<g>
			<rect x="578.56" y="50.38" class="st5" width="23.2" height="22.35"/>
			<path class="st3" d="M578.19,73.1V50.01h23.93v22.72v0.37H578.19L578.19,73.1z M601.76,72.73v-0.37V72.73L601.76,72.73z
				 M578.92,72.36h22.47V50.74h-22.47V72.36L578.92,72.36z"/>
		</g>
		
			<linearGradient id="SVGID_00000083792292612424243980000002842975514857319052_" gradientUnits="userSpaceOnUse" x1="575.3626" y1="11.0038" x2="584.9413" y2="11.0038">
			<stop  offset="0" style="stop-color:#FFFFFF"/>
			<stop  offset="0.8297" style="stop-color:#F6921E"/>
		</linearGradient>
		<polygon style="fill:url(#SVGID_00000083792292612424243980000002842975514857319052_);" points="584.94,13.53 575.36,10.96 
			584.94,8.48 		"/>
		<g>
			<polygon class="st5" points="5.45,74.9 6.56,67.37 19.51,68.17 21.73,70.23 92.42,73.37 155.68,73.42 181.76,79.09 113.13,78.98 
				45.22,78.79 			"/>
			<path class="st3" d="M113.12,79.35l-67.93-0.19l-39.78-3.9l0.04-0.36l0.36,0.05L5.45,74.9l-0.04,0.36l-0.39-0.05l1.22-8.24
				l13.43,0.83l2.21,2.06L92.42,73l63.33,0.05l26.09,5.67l-0.08,0.73L113.12,79.35L113.12,79.35z M45.23,78.42l67.9,0.19l65.17,0.1
				l-22.62-4.93L92.4,73.73l-70.83-3.14l-2.21-2.07L6.87,67.76l-1,6.81L45.23,78.42L45.23,78.42z"/>
		</g>
		<rect x="33.94" y="99.19" class="st3" width="90.65" height="13.32"/>
		<rect x="13.59" y="101.17" class="st3" width="14.06" height="11.1"/>
		<rect x="21.73" y="95.24" class="st3" width="3.95" height="7.16"/>
		<path class="st5" d="M69.73,80.59c-44.6-0.92-63.58-3.24-63.59-3.24l0,0h0.01c-0.21-0.02-0.35-0.21-0.33-0.41l0,0
			c0.02-0.21,0.21-0.35,0.41-0.32l0,0c0.06,0,18.94,2.31,63.52,3.24l0,0c0.2,0,0.36,0.17,0.36,0.37l0,0
			c-0.01,0.19-0.17,0.36-0.36,0.36l0,0C69.74,80.59,69.74,80.59,69.73,80.59L69.73,80.59z"/>
		<rect x="135.76" y="66.63" class="st0" width="379.53" height="13.08"/>
		<polygon class="st5" points="169.67,76.93 169.67,69.53 172.63,69.53 172.63,76.93 169.67,76.93 		"/>
		<polygon class="st5" points="146.24,76.93 146.24,69.53 149.2,69.53 149.2,76.93 146.24,76.93 		"/>
		<polygon class="st5" points="193.54,76.93 193.54,69.53 196.5,69.53 196.5,76.93 193.54,76.93 		"/>
		<polygon class="st5" points="217.41,76.93 217.41,69.53 220.36,69.53 220.36,76.93 217.41,76.93 		"/>
		<polygon class="st5" points="241.27,76.93 241.27,69.53 244.23,69.53 244.23,76.93 241.27,76.93 		"/>
		<polygon class="st5" points="265.14,76.93 265.14,69.53 268.1,69.53 268.1,76.93 265.14,76.93 		"/>
		<polygon class="st5" points="289,76.93 289,69.53 291.96,69.53 291.96,76.93 289,76.93 		"/>
		<polygon class="st5" points="312.87,76.93 312.87,69.53 315.83,69.53 315.83,76.93 312.87,76.93 		"/>
		<polygon class="st5" points="336.74,76.93 336.74,69.53 339.69,69.53 339.69,76.93 336.74,76.93 		"/>
		<polygon class="st5" points="360.6,76.93 360.6,69.53 363.56,69.53 363.56,76.93 360.6,76.93 		"/>
		<polygon class="st5" points="384.47,76.93 384.47,69.53 387.43,69.53 387.43,76.93 384.47,76.93 		"/>
		<polygon class="st5" points="408.33,76.93 408.33,69.53 411.29,69.53 411.29,76.93 408.33,76.93 		"/>
		<polygon class="st5" points="432.2,76.93 432.2,69.53 435.16,69.53 435.16,76.93 432.2,76.93 		"/>
		<polygon class="st5" points="456.07,76.93 456.07,69.53 459.02,69.53 459.02,76.93 456.07,76.93 		"/>
		<polygon class="st5" points="479.93,76.93 479.93,69.53 482.9,69.53 482.9,76.93 479.93,76.93 		"/>
		<polygon class="st5" points="135.82,70.08 135.82,68.6 514.18,68.6 514.18,70.08 135.82,70.08 		"/>
		<rect x="142.72" y="47.51" class="st0" width="2.22" height="20.84"/>
		<polygon class="st5" points="495.15,76.92 495.15,69.53 498.11,69.53 498.11,76.92 495.15,76.92 		"/>
		<g>
			<polygon class="st5" points="478.65,73.41 531.2,63.92 645.78,56.21 647.13,64.9 643.8,67.13 538.97,73.04 			"/>
			<path class="st3" d="M478.28,73.44c-0.02-0.19,0.12-0.36,0.3-0.39l0,0l52.59-9.51l114.58-7.71c0.19-0.02,0.36,0.13,0.4,0.32l0,0
				l1.35,8.7l-0.16,0.36L644,67.43l-0.18,0.06l-104.86,5.92l-60.31,0.37C478.46,73.78,478.3,73.63,478.28,73.44L478.28,73.44z
				 M478.72,73.77l-0.07-0.37L478.72,73.77L478.72,73.77z M531.26,64.27l-48.35,8.74l56.03-0.35l104.73-5.91l3.05-2.03l-1.27-8.12
				L531.26,64.27L531.26,64.27z"/>
		</g>
		<path class="st3" d="M107.57,79.2l22.57-0.12l5.37-6.78h404.27l107.69-7.49v2.5l-10.01,40.52c0,0-2.97,4.69-7.41,4.69
			c-4.44,0-515.63,0-515.63,0s-20.59-1.95-45.14-4.81c-22.19-2.59-47.8-5.5-60.81-16.16L5.08,75.26
			C5.08,75.26,77.1,79.45,107.57,79.2z"/>
		<rect x="487.09" y="36.77" class="st0" width="2.84" height="30.59"/>
		<rect x="373.19" y="36.77" class="st0" width="2.83" height="30.59"/>
		<rect x="259.47" y="36.77" class="st0" width="2.84" height="30.59"/>
		<g>
			<line class="st3" x1="646.3" y1="67.52" x2="600.05" y2="70.85"/>
			<path class="st5" d="M599.67,70.88c-0.01-0.2,0.14-0.38,0.35-0.4l0,0l46.25-3.32c0.2-0.01,0.38,0.14,0.4,0.34l0,0
				c0.01,0.21-0.14,0.38-0.34,0.4l0,0l-46.26,3.33c-0.01,0-0.02,0-0.03,0l0,0C599.85,71.22,599.69,71.07,599.67,70.88L599.67,70.88z
				"/>
		</g>
		<g>
			<path class="st3" d="M17.23,51.51c0.04,0.03,0.1,0.05,0.16,0.05c0.09,0,0.15-0.05,0.15-0.12c0-0.06-0.04-0.11-0.13-0.14
				c-0.11-0.04-0.18-0.1-0.18-0.19c0-0.11,0.09-0.19,0.23-0.19c0.07,0,0.12,0.02,0.15,0.03l-0.03,0.07
				c-0.02-0.01-0.07-0.03-0.13-0.03c-0.1,0-0.13,0.06-0.13,0.1c0,0.07,0.04,0.1,0.14,0.13c0.12,0.05,0.18,0.11,0.18,0.21
				c0,0.11-0.08,0.2-0.24,0.2c-0.07,0-0.14-0.02-0.18-0.05L17.23,51.51z"/>
			<path class="st3" d="M17.85,51v0.12h0.13v0.07h-0.13v0.27c0,0.06,0.02,0.1,0.07,0.1c0.02,0,0.04,0,0.05-0.01l0.01,0.07
				c-0.02,0-0.05,0.01-0.08,0.01c-0.04,0-0.08-0.02-0.1-0.04c-0.02-0.03-0.03-0.07-0.03-0.13v-0.27h-0.08v-0.07h0.08v-0.09L17.85,51
				z"/>
			<path class="st3" d="M18.13,51.39c0,0.13,0.08,0.17,0.17,0.17c0.06,0,0.11-0.02,0.14-0.02l0.02,0.06
				c-0.03,0.01-0.09,0.03-0.17,0.03c-0.15,0-0.25-0.11-0.25-0.25c0-0.15,0.09-0.27,0.24-0.27c0.16,0,0.21,0.14,0.21,0.24
				c0,0.02,0,0.03,0,0.04H18.13z M18.4,51.32c0-0.05-0.02-0.14-0.13-0.14c-0.09,0-0.13,0.08-0.14,0.14H18.4z"/>
			<path class="st3" d="M18.6,51.28c0-0.06,0-0.12,0-0.16h0.08l0,0.08h0c0.04-0.06,0.09-0.1,0.18-0.1c0.12,0,0.21,0.1,0.21,0.25
				c0,0.18-0.11,0.27-0.23,0.27c-0.07,0-0.12-0.03-0.15-0.08h0v0.27H18.6V51.28z M18.69,51.42c0,0.01,0,0.03,0,0.04
				c0.02,0.06,0.07,0.11,0.13,0.11c0.1,0,0.15-0.08,0.15-0.19c0-0.1-0.05-0.19-0.15-0.19c-0.06,0-0.12,0.04-0.14,0.11
				c0,0.01,0,0.02,0,0.04V51.42z"/>
			<path class="st3" d="M19.19,50.89h0.09v0.32h0c0.01-0.03,0.04-0.05,0.06-0.06c0.03-0.02,0.06-0.03,0.1-0.03
				c0.07,0,0.17,0.04,0.17,0.21v0.3h-0.09v-0.29c0-0.08-0.03-0.15-0.12-0.15c-0.06,0-0.1,0.04-0.12,0.09
				c-0.01,0.01-0.01,0.03-0.01,0.04v0.3h-0.09V50.89z"/>
			<path class="st3" d="M20.12,51.5c0,0.05,0,0.08,0.01,0.12h-0.08l-0.01-0.06h0c-0.03,0.04-0.08,0.08-0.16,0.08
				c-0.1,0-0.15-0.07-0.15-0.14c0-0.12,0.11-0.19,0.3-0.19V51.3c0-0.05-0.01-0.12-0.11-0.12c-0.05,0-0.1,0.02-0.13,0.04l-0.02-0.06
				c0.04-0.02,0.1-0.04,0.17-0.04c0.15,0,0.19,0.1,0.19,0.21V51.5z M20.03,51.37c-0.1,0-0.21,0.01-0.21,0.11
				c0,0.06,0.04,0.09,0.09,0.09c0.06,0,0.11-0.04,0.12-0.08c0-0.01,0-0.02,0-0.03V51.37z"/>
			<path class="st3" d="M20.26,51.26c0-0.06,0-0.1,0-0.14h0.08l0.01,0.08h0c0.03-0.05,0.08-0.09,0.17-0.09
				c0.07,0,0.18,0.04,0.18,0.21v0.3H20.6v-0.29c0-0.08-0.03-0.15-0.11-0.15c-0.06,0-0.11,0.04-0.12,0.09
				c-0.01,0.01-0.01,0.03-0.01,0.04v0.3h-0.09V51.26z"/>
			<path class="st3" d="M21.06,50.89h0.09v0.74h-0.09V50.89z"/>
			<path class="st3" d="M21.35,51.39c0,0.13,0.08,0.17,0.17,0.17c0.06,0,0.11-0.02,0.14-0.02l0.02,0.06
				c-0.03,0.01-0.09,0.03-0.17,0.03c-0.15,0-0.25-0.11-0.25-0.25c0-0.15,0.09-0.27,0.24-0.27c0.16,0,0.21,0.14,0.21,0.24
				c0,0.02,0,0.03,0,0.04H21.35z M21.62,51.32c0-0.05-0.02-0.14-0.13-0.14c-0.09,0-0.13,0.08-0.14,0.14H21.62z"/>
			<path class="st3" d="M22.03,51.51c0.04,0.03,0.1,0.05,0.16,0.05c0.09,0,0.15-0.05,0.15-0.12c0-0.06-0.04-0.11-0.13-0.14
				c-0.12-0.04-0.19-0.1-0.19-0.19c0-0.11,0.09-0.19,0.23-0.19c0.07,0,0.12,0.02,0.15,0.03l-0.02,0.07
				c-0.02-0.01-0.07-0.03-0.13-0.03c-0.1,0-0.13,0.06-0.13,0.1c0,0.07,0.04,0.1,0.14,0.13c0.12,0.05,0.18,0.11,0.18,0.21
				c0,0.11-0.08,0.2-0.24,0.2c-0.07,0-0.14-0.02-0.18-0.05L22.03,51.51z"/>
			<path class="st3" d="M22.91,51.5c0,0.05,0,0.08,0.01,0.12h-0.08l-0.01-0.06h0c-0.03,0.04-0.08,0.08-0.16,0.08
				c-0.1,0-0.15-0.07-0.15-0.14c0-0.12,0.11-0.19,0.3-0.19V51.3c0-0.05-0.01-0.12-0.11-0.12c-0.05,0-0.1,0.02-0.13,0.04l-0.02-0.06
				c0.04-0.02,0.1-0.04,0.16-0.04c0.16,0,0.19,0.1,0.19,0.21V51.5z M22.82,51.37c-0.1,0-0.21,0.01-0.21,0.11
				c0,0.06,0.04,0.09,0.08,0.09c0.07,0,0.11-0.04,0.12-0.08c0-0.01,0.01-0.02,0.01-0.03V51.37z"/>
			<path class="st3" d="M23.48,51.55c0,0.12-0.02,0.19-0.07,0.23c-0.05,0.05-0.12,0.06-0.18,0.06c-0.06,0-0.13-0.01-0.17-0.04
				l0.02-0.07c0.04,0.02,0.09,0.04,0.15,0.04c0.09,0,0.16-0.05,0.16-0.18v-0.05h0c-0.03,0.05-0.08,0.08-0.16,0.08
				c-0.13,0-0.21-0.11-0.21-0.25c0-0.17,0.11-0.27,0.23-0.27c0.09,0,0.13,0.04,0.16,0.09l0,0l0-0.08h0.08c0,0.03,0,0.08,0,0.14
				V51.55z M23.39,51.32c0-0.02,0-0.03-0.01-0.04c-0.02-0.05-0.06-0.1-0.13-0.1c-0.09,0-0.15,0.08-0.15,0.19
				c0,0.1,0.05,0.18,0.15,0.18c0.06,0,0.11-0.04,0.13-0.1c0.01-0.02,0.01-0.03,0.01-0.05V51.32z"/>
			<path class="st3" d="M23.68,51.39c0,0.13,0.08,0.17,0.17,0.17c0.07,0,0.11-0.02,0.14-0.02l0.02,0.06
				c-0.03,0.01-0.09,0.03-0.17,0.03c-0.15,0-0.25-0.11-0.25-0.25c0-0.15,0.09-0.27,0.24-0.27c0.16,0,0.21,0.14,0.21,0.24
				c0,0.02,0,0.03,0,0.04H23.68z M23.95,51.32c0-0.05-0.02-0.14-0.12-0.14c-0.09,0-0.13,0.08-0.14,0.14H23.95z"/>
		</g>
	</g>
</g>
<g id="Container">
	<rect x="431.53" y="378.5" class="st17" width="112.67" height="20.98"/>
	<g>
		<polygon class="st3" points="435.84,398.24 435.84,379.98 436.59,379.98 436.59,398.24 435.84,398.24 		"/>
		<polygon class="st3" points="439.54,398.24 439.54,379.98 440.28,379.98 440.28,398.24 439.54,398.24 		"/>
		<polygon class="st3" points="443.25,398.24 443.25,379.98 443.98,379.98 443.98,398.24 443.25,398.24 		"/>
		<polygon class="st3" points="446.94,398.24 446.94,379.98 447.69,379.98 447.69,398.24 446.94,398.24 		"/>
		<polygon class="st3" points="450.64,398.24 450.64,379.98 451.39,379.98 451.39,398.24 450.64,398.24 		"/>
		<polygon class="st3" points="454.35,398.24 454.35,379.98 455.08,379.98 455.08,398.24 454.35,398.24 		"/>
		<polygon class="st3" points="458.05,398.24 458.05,379.98 458.78,379.98 458.78,398.24 458.05,398.24 		"/>
		<polygon class="st3" points="461.74,398.24 461.74,379.98 462.49,379.98 462.49,398.24 461.74,398.24 		"/>
		<polygon class="st3" points="465.44,398.24 465.44,379.98 466.19,379.98 466.19,398.24 465.44,398.24 		"/>
		<polygon class="st3" points="469.15,398.24 469.15,379.98 469.88,379.98 469.88,398.24 469.15,398.24 		"/>
		<polygon class="st3" points="472.85,398.24 472.85,379.98 473.59,379.98 473.59,398.24 472.85,398.24 		"/>
		<polygon class="st3" points="476.55,398.24 476.55,379.98 477.29,379.98 477.29,398.24 476.55,398.24 		"/>
		<polygon class="st3" points="480.24,398.24 480.24,379.98 480.99,379.98 480.99,398.24 480.24,398.24 		"/>
		<polygon class="st3" points="483.95,398.24 483.95,379.98 484.68,379.98 484.68,398.24 483.95,398.24 		"/>
		<polygon class="st3" points="487.65,398.24 487.65,379.98 488.39,379.98 488.39,398.24 487.65,398.24 		"/>
		<polygon class="st3" points="491.35,398.24 491.35,379.98 492.09,379.98 492.09,398.24 491.35,398.24 		"/>
		<polygon class="st3" points="495.04,398.24 495.04,379.98 495.79,379.98 495.79,398.24 495.04,398.24 		"/>
		<polygon class="st3" points="498.75,398.24 498.75,379.98 499.48,379.98 499.48,398.24 498.75,398.24 		"/>
		<polygon class="st3" points="502.45,398.24 502.45,379.98 503.19,379.98 503.19,398.24 502.45,398.24 		"/>
		<polygon class="st3" points="506.15,398.24 506.15,379.98 506.89,379.98 506.89,398.24 506.15,398.24 		"/>
		<polygon class="st3" points="509.85,398.24 509.85,379.98 510.59,379.98 510.59,398.24 509.85,398.24 		"/>
		<polygon class="st3" points="513.55,398.24 513.55,379.98 514.29,379.98 514.29,398.24 513.55,398.24 		"/>
		<polygon class="st3" points="517.25,398.24 517.25,379.98 517.99,379.98 517.99,398.24 517.25,398.24 		"/>
		<polygon class="st3" points="520.95,398.24 520.95,379.98 521.69,379.98 521.69,398.24 520.95,398.24 		"/>
		<polygon class="st3" points="524.65,398.24 524.65,379.98 525.39,379.98 525.39,398.24 524.65,398.24 		"/>
		<polygon class="st3" points="528.35,398.24 528.35,379.98 529.09,379.98 529.09,398.24 528.35,398.24 		"/>
		<polygon class="st3" points="532.05,398.24 532.05,379.98 532.79,379.98 532.79,398.24 532.05,398.24 		"/>
		<polygon class="st3" points="535.75,398.24 535.75,379.98 536.49,379.98 536.49,398.24 535.75,398.24 		"/>
		<polygon class="st3" points="539.45,398.24 539.45,379.98 540.19,379.98 540.19,398.24 539.45,398.24 		"/>
	</g>
</g>
<g id="Bulk-short">
	<g>
		<g>
			<rect x="739.11" y="52.03" class="st18" width="4.04" height="18.09"/>
			<polygon class="st18" points="835.9,52.09 738.69,52.09 740.55,49.55 835.9,49.55 			"/>
			<path class="st18" d="M742.23,51.59c0,1.18-0.96,2.14-2.14,2.14c-1.18,0-2.14-0.96-2.14-2.14c0-1.18,0.96-2.14,2.14-2.14
				C741.27,49.46,742.23,50.41,742.23,51.59z"/>
		</g>
		<polygon class="st11" points="804.26,46.19 814.89,46.19 816.58,54.81 796.88,54.81 		"/>
		<polygon class="st11" points="1266.38,64.97 872.93,64.97 873.23,82.82 1266.38,82.82 		"/>
		<g>
			<rect x="1266.68" y="56.52" class="st5" width="52.23" height="25.4"/>
			<path class="st3" d="M1266.22,82.38V56.06h53.15v25.86v0.45H1266.22L1266.22,82.38z M1318.92,81.92v-0.46V81.92L1318.92,81.92z
				 M1267.14,81.46h51.31V56.98h-51.31V81.46L1267.14,81.46z"/>
		</g>
		<g>
			<g>
				<path class="st6" d="M1286.44,72.54c0,0.31-0.26,0.57-0.57,0.57h-14.04c-0.31,0-0.57-0.26-0.57-0.57V61.32
					c0-0.31,0.26-0.57,0.57-0.57h14.04c0.31,0,0.57,0.26,0.57,0.57V72.54z"/>
			</g>
			<path class="st3" d="M1270.81,73.56V60.29h16.09V73.1v0.46H1270.81L1270.81,73.56z M1286.44,73.1v-0.47V73.1L1286.44,73.1z
				 M1271.72,72.64h14.26l-0.01-11.42h-14.25V72.64L1271.72,72.64z"/>
		</g>
		<g>
			<g>
				<path class="st6" d="M1310.43,72.54c0,0.31-0.26,0.57-0.57,0.57h-14.04c-0.31,0-0.57-0.26-0.57-0.57V61.32
					c0-0.31,0.26-0.57,0.57-0.57h14.04c0.31,0,0.57,0.26,0.57,0.57V72.54z"/>
			</g>
			<path class="st3" d="M1294.79,73.56V60.29h16.1V73.1v0.46H1294.79L1294.79,73.56z M1310.42,73.1v-0.47V73.1L1310.42,73.1z
				 M1295.71,72.64h14.25V61.22h-14.25V72.64L1295.71,72.64z"/>
		</g>
		<g>
			<rect x="838.9" y="56.04" class="st5" width="12.01" height="43.72"/>
			<path class="st3" d="M837.98,100.68V56.04v-0.93h13.86v45.56H837.98L837.98,100.68z M839.82,98.83h10.16V56.96h-10.15
				L839.82,98.83L839.82,98.83z"/>
		</g>
		<g>
			<rect x="824.35" y="46.94" class="st5" width="39.76" height="12.17"/>
			<path class="st3" d="M823.43,60.04V46.02h41.61v13.1v0.93H823.43L823.43,60.04z M864.11,59.12v-0.93V59.12L864.11,59.12z
				 M825.27,58.19h37.91V47.87h-37.91V58.19L825.27,58.19z"/>
		</g>
		<polygon class="st3" points="865.67,48.56 822.97,48.56 822.09,35.02 869.9,35.02 		"/>
		<polygon class="st6" points="863.98,46.94 824.58,46.94 823.78,36.71 866.98,36.71 		"/>
		<g>
			<rect x="745" y="55.13" class="st5" width="91.03" height="25.4"/>
			<path class="st3" d="M744.53,81V54.67h91.95v25.86V81H744.53L744.53,81z M836.02,80.53v-0.46V80.53L836.02,80.53z M745.46,80.07
				h90.11V55.6h-90.11V80.07L745.46,80.07z"/>
		</g>
		<g>
			<g>
				<path class="st6" d="M764.75,71.15c0,0.31-0.26,0.57-0.57,0.57h-14.04c-0.31,0-0.57-0.26-0.57-0.57V59.94
					c0-0.31,0.26-0.57,0.57-0.57h14.04c0.31,0,0.57,0.26,0.57,0.57V71.15z"/>
			</g>
			<path class="st3" d="M749.12,72.18V58.9h16.09v12.82v0.46H749.12L749.12,72.18z M764.76,71.72v-0.47V71.72L764.76,71.72z
				 M750.04,71.26h14.25V59.83h-14.25V71.26L750.04,71.26z"/>
		</g>
		<g>
			<g>
				<path class="st6" d="M785.04,71.15c0,0.31-0.26,0.57-0.57,0.57h-14.04c-0.31,0-0.57-0.26-0.57-0.57V59.94
					c0-0.31,0.26-0.57,0.57-0.57h14.04c0.31,0,0.57,0.26,0.57,0.57V71.15z"/>
			</g>
			<path class="st3" d="M769.4,72.18V58.9h16.1v12.82v0.46H769.4L769.4,72.18z M785.04,71.72v-0.47V71.72L785.04,71.72z
				 M770.33,71.26h14.25V59.83h-14.25V71.26L770.33,71.26z"/>
		</g>
		<g>
			<g>
				<path class="st6" d="M805.33,71.15c0,0.31-0.26,0.57-0.57,0.57h-14.04c-0.31,0-0.57-0.26-0.57-0.57V59.94
					c0-0.31,0.26-0.57,0.57-0.57h14.04c0.31,0,0.57,0.26,0.57,0.57V71.15z"/>
			</g>
			<path class="st3" d="M789.69,72.18V58.9h16.1v12.82v0.46H789.69L789.69,72.18z M805.33,71.72v-0.47V71.72L805.33,71.72z
				 M790.62,71.26h14.25V59.83h-14.25V71.26L790.62,71.26z"/>
		</g>
		<path class="st3" d="M876.16,87.44V68.05h386.83v18.47v0.93H876.16L876.16,87.44z M1262.07,86.51V85.6V86.51L1262.07,86.51z
			 M878,85.6h383.14V69.89H878V85.6L878,85.6z"/>
		<g>
			<g>
				<path class="st6" d="M825.62,71.15c0,0.31-0.26,0.57-0.57,0.57h-14.04c-0.31,0-0.57-0.26-0.57-0.57V59.94
					c0-0.31,0.26-0.57,0.57-0.57h14.04c0.31,0,0.57,0.26,0.57,0.57V71.15z"/>
			</g>
			<path class="st3" d="M809.99,72.18V58.9h16.09v12.82v0.46H809.99L809.99,72.18z M825.62,71.72v-0.47V71.72L825.62,71.72z
				 M810.91,71.26h14.25V59.83h-14.25V71.26L810.91,71.26z"/>
		</g>
		<g>
			<polygon class="st5" points="1354.9,71.74 1357.2,63.35 1256.06,70.97 1215.19,82.13 1312.41,76.36 			"/>
			<path class="st3" d="M1214.95,81.24l41.05-11.19l102.44-7.72l-2.65,9.65l-0.17,0.61l-43.16,4.69l-97.21,5.78L1214.95,81.24
				L1214.95,81.24z M1256.3,71.86l-32.3,8.82l88.3-5.25l41.87-4.55l1.79-6.52L1256.3,71.86L1256.3,71.86z"/>
		</g>
		<g>
			<polygon class="st5" points="732.07,76.06 733.61,69.59 840.61,74.15 864.15,74.21 896.71,81.29 840.6,81.16 781.71,80.92 			"/>
			<path class="st3" d="M840.6,82.08l-58.98-0.24l-49.64-4.87l0.09-0.92l0.9,0.21l-0.9-0.21l-0.09,0.92l-1.06-0.1l1.96-8.24
				l107.74,4.59l23.73,0.08l32.56,7.08l-0.2,1.82L840.6,82.08L840.6,82.08z M781.72,79.99l58.89,0.24l47.45,0.12l-23.91-5.22
				l-23.57-0.06l-106.24-4.53l-1.12,4.69L781.72,79.99L781.72,79.99z"/>
		</g>
		<polygon class="st3" points="859.21,47.72 859.21,36.03 860.13,36.03 860.13,47.72 859.21,47.72 		"/>
		<polygon class="st3" points="848.12,47.72 848.12,36.03 849.05,36.03 849.05,47.72 848.12,47.72 		"/>
		<path class="st3" d="M858.31,80.66h352.97l145.32-10.77l-12.32,32.94c0,0-3.71,5.85-9.25,5.85c-5.54,0-519.38,0-519.38,0
			s-48.03,0-80.52-18.78l-4.46-14.01C730.68,75.9,820.28,80.98,858.31,80.66z"/>
		<rect x="767.63" y="95.76" class="st3" width="96.52" height="12.93"/>
		<rect x="738.53" y="98.23" class="st3" width="17.55" height="10.16"/>
		<rect x="748.7" y="95.67" class="st3" width="4.93" height="3.18"/>
		<polygon class="st3" points="738.97,43.23 740.4,42.06 750.57,54.53 749.13,55.69 738.97,43.23 		"/>
		<path class="st3" d="M821.8,36.48c-0.51,0-0.92-0.41-0.92-0.93l0,0c0-0.51,0.42-0.92,0.92-0.92l0,0h48.5
			c0.51,0,0.92,0.41,0.92,0.92l0,0c0,0.52-0.42,0.93-0.92,0.93l0,0H821.8L821.8,36.48z"/>
		<g>
			<polygon class="st3" points="906.64,82.83 906.64,69.43 908.49,69.43 908.49,82.83 906.64,82.83 			"/>
			<polygon class="st3" points="910.33,82.83 910.33,69.43 912.18,69.43 912.18,82.83 910.33,82.83 			"/>
		</g>
		<g>
			<polygon class="st3" points="933.12,82.83 933.12,69.43 934.96,69.43 934.96,82.83 933.12,82.83 			"/>
			<polygon class="st3" points="936.82,82.83 936.82,69.43 938.66,69.43 938.66,82.83 936.82,82.83 			"/>
		</g>
		<g>
			<polygon class="st3" points="959.6,82.83 959.6,69.43 961.45,69.43 961.45,82.83 959.6,82.83 			"/>
			<polygon class="st3" points="963.29,82.83 963.29,69.43 965.14,69.43 965.14,82.83 963.29,82.83 			"/>
		</g>
		<g>
			<polygon class="st3" points="986.08,82.83 986.08,69.43 987.92,69.43 987.92,82.83 986.08,82.83 			"/>
			<polygon class="st3" points="989.77,82.83 989.77,69.43 991.62,69.43 991.62,82.83 989.77,82.83 			"/>
		</g>
		<g>
			<polygon class="st3" points="1012.56,82.83 1012.56,69.43 1014.41,69.43 1014.41,82.83 1012.56,82.83 			"/>
			<polygon class="st3" points="1016.25,82.83 1016.25,69.43 1018.1,69.43 1018.1,82.83 1016.25,82.83 			"/>
		</g>
		<g>
			<polygon class="st3" points="1039.04,82.83 1039.04,69.43 1040.89,69.43 1040.89,82.83 1039.04,82.83 			"/>
			<polygon class="st3" points="1042.73,82.83 1042.73,69.43 1044.58,69.43 1044.58,82.83 1042.73,82.83 			"/>
		</g>
		<g>
			<polygon class="st3" points="1065.52,82.83 1065.52,69.43 1067.36,69.43 1067.36,82.83 1065.52,82.83 			"/>
			<polygon class="st3" points="1069.21,82.83 1069.21,69.43 1071.06,69.43 1071.06,82.83 1069.21,82.83 			"/>
		</g>
		<g>
			<polygon class="st3" points="1091.99,82.83 1091.99,69.43 1093.84,69.43 1093.84,82.83 1091.99,82.83 			"/>
			<polygon class="st3" points="1095.69,82.83 1095.69,69.43 1097.54,69.43 1097.54,82.83 1095.69,82.83 			"/>
		</g>
		<g>
			<polygon class="st3" points="1118.48,82.83 1118.48,69.43 1120.32,69.43 1120.32,82.83 1118.48,82.83 			"/>
			<polygon class="st3" points="1122.17,82.83 1122.17,69.43 1124.02,69.43 1124.02,82.83 1122.17,82.83 			"/>
		</g>
		<g>
			<polygon class="st3" points="1144.96,82.83 1144.96,69.43 1146.81,69.43 1146.81,82.83 1144.96,82.83 			"/>
			<polygon class="st3" points="1148.65,82.83 1148.65,69.43 1150.5,69.43 1150.5,82.83 1148.65,82.83 			"/>
		</g>
		<g>
			<polygon class="st3" points="1171.43,82.83 1171.43,69.43 1173.28,69.43 1173.28,82.83 1171.43,82.83 			"/>
			<polygon class="st3" points="1175.13,82.83 1175.13,69.43 1176.98,69.43 1176.98,82.83 1175.13,82.83 			"/>
		</g>
		<g>
			<polygon class="st3" points="1197.92,82.83 1197.92,69.43 1199.76,69.43 1199.76,82.83 1197.92,82.83 			"/>
			<polygon class="st3" points="1201.62,82.83 1201.62,69.43 1203.46,69.43 1203.46,82.83 1201.62,82.83 			"/>
		</g>
		<g>
			<line class="st5" x1="1276.18" y1="56.06" x2="1326.09" y2="20.24"/>
			<path class="st3" d="M1275.05,56.86c-0.45-0.62-0.31-1.48,0.32-1.93l0,0l49.91-35.81c0.62-0.45,1.49-0.31,1.94,0.32l0,0
				c0.44,0.62,0.3,1.49-0.32,1.93l0,0l-49.91,35.82c-0.24,0.17-0.53,0.26-0.81,0.26l0,0C1275.74,57.44,1275.32,57.24,1275.05,56.86
				L1275.05,56.86z"/>
		</g>
		
			<linearGradient id="SVGID_00000145045552447280220310000008822601822374619792_" gradientUnits="userSpaceOnUse" x1="728.6789" y1="47.7244" x2="740.0721" y2="47.7244">
			<stop  offset="0" style="stop-color:#FFFFFF"/>
			<stop  offset="1" style="stop-color:#231F20"/>
		</linearGradient>
		
			<rect x="728.68" y="43.7" style="fill:url(#SVGID_00000145045552447280220310000008822601822374619792_);" width="11.39" height="8.04"/>
		
			<linearGradient id="SVGID_00000167394017077241951950000000189044381296283269_" gradientUnits="userSpaceOnUse" x1="1314.3041" y1="23.8253" x2="1326.2616" y2="23.8253">
			<stop  offset="0" style="stop-color:#FFFFFF"/>
			<stop  offset="0.8297" style="stop-color:#F6921E"/>
		</linearGradient>
		<polygon style="fill:url(#SVGID_00000167394017077241951950000000189044381296283269_);" points="1326.26,26.98 1314.3,23.77 
			1326.26,20.67 		"/>
		<g>
			<g>
				<polygon class="st1" points="759.33,47.35 795.15,47.35 795.15,52.37 762.44,52.37 759.33,51.37 				"/>
				<g>
					<path class="st2" d="M787.86,51.46c0,1.65,1.34,2.99,2.99,2.99c1.65,0,2.99-1.34,2.99-2.99c0-1.65-1.34-3-2.99-3
						C789.2,48.47,787.86,49.81,787.86,51.46z"/>
					<path class="st3" d="M794.26,51.46c0,1.88-1.52,3.4-3.4,3.4l0,0c-1.88,0-3.4-1.52-3.41-3.4l0,0c0-1.89,1.53-3.41,3.41-3.41l0,0
						C792.73,48.05,794.26,49.58,794.26,51.46L794.26,51.46z M793.43,51.46c0-1.43-1.15-2.58-2.58-2.58l0,0
						c-1.43,0-2.58,1.15-2.58,2.58l0,0c0,1.42,1.16,2.58,2.58,2.58l0,0C792.28,54.04,793.43,52.88,793.43,51.46L793.43,51.46z"/>
				</g>
				<g>
					<path class="st1" d="M760.45,51.46c0,1.65,1.34,2.99,2.99,2.99c1.65,0,2.99-1.34,2.99-2.99c0-1.65-1.34-3-2.99-3
						C761.79,48.47,760.45,49.81,760.45,51.46z"/>
					<path class="st3" d="M766.85,51.46c0,1.88-1.53,3.4-3.41,3.4l0,0c-1.88,0-3.4-1.52-3.4-3.4l0,0c0-1.89,1.52-3.41,3.4-3.41l0,0
						C765.32,48.05,766.85,49.58,766.85,51.46L766.85,51.46z M766.02,51.46c0-1.43-1.16-2.58-2.58-2.58l0,0
						c-1.43,0-2.58,1.15-2.58,2.58l0,0c0,1.42,1.16,2.58,2.58,2.58l0,0C764.86,54.04,766.02,52.88,766.02,51.46L766.02,51.46z"/>
				</g>
				<g>
					<path class="st21" d="M794.78,53.04c0,0,0.89-5.07-4.11-5.07c-4.11,0-4.25,4.93-4.25,4.93l-18.5-0.41c0,0-0.52-4.8-4.32-4.8
						c-4.08,0-3.97,3.9-3.97,3.9s-1.3,0.41-2.12-0.55c-0.82-0.95-0.61-3.7-0.61-3.7l0.75-0.89l0.28-3.22c0,0,0.14-1.99,3.22-3.22
						l-0.14-0.76c0,0,9.53-1.71,16.38-0.41c6.85,1.3,7.74,4.11,12.13,5c4.39,0.89,11.1,2.19,8.77,7.88l0.28,0.62
						C798.55,52.35,798.34,53.1,794.78,53.04z"/>
					<path class="st5" d="M798.28,47.96c0,0-3.08-0.06-6.44-2.4l4.46,0.48C796.29,46.04,797.32,46.59,798.28,47.96z"/>
					<path class="st6" d="M788.06,44.95c0,0-5.89-5.35-13.91-5.96c-8.02-0.62-10.69,1.51-10.69,1.51s1.37,1.58,3.15,1.85
						C768.4,42.62,788.06,44.95,788.06,44.95z"/>
					<path class="st3" d="M785.18,52.38c0.8-1.41,1.04-2.88,1.04-4.15l0,0c0-2.04-0.62-3.58-0.63-3.59l0,0c0,0-0.93-1.97-2.87-3.28
						l0,0c-0.03-0.02-0.07-0.01-0.09,0.02l0,0c-0.02,0.03-0.01,0.07,0.02,0.09l0,0c1.9,1.29,2.82,3.22,2.82,3.22l0,0
						c0,0,0.62,1.52,0.62,3.53l0,0c0,1.24-0.24,2.67-1.01,4.05l0,0l-12.8-0.34c0,0-0.06,0.03-0.18,0.03l0,0
						c-0.28,0-0.87-0.18-1.31-1.63l0,0c-0.61-2.04-0.61-7.24-0.61-7.24l0,0c0.01,0,0.24-2.68,2.27-4.17l0,0
						c0.03-0.02,0.04-0.06,0.01-0.1l0,0c-0.02-0.03-0.06-0.04-0.09-0.01l0,0c-2.08,1.53-2.32,4.25-2.33,4.27l0,0
						c0,0.01,0,5.21,0.62,7.28l0,0c0.44,1.48,1.09,1.73,1.44,1.73l0,0c0.12,0,0.2-0.02,0.2-0.03l0,0l12.85,0.34L785.18,52.38
						L785.18,52.38z"/>
					<path class="st7" d="M758.07,45.41c0,0,3.49,0.05,3.61-1.26v-1.23l-3.38,0.45C758.3,43.37,758.05,44.12,758.07,45.41z"/>
				</g>
			</g>
			<polygon class="st8" points="790.82,50.58 789.29,49.35 789.99,51.19 788.34,52.26 790.31,52.16 790.82,54.07 791.34,52.16 
				793.31,52.26 791.66,51.19 792.36,49.35 			"/>
			<polygon class="st8" points="763.2,50.63 761.37,49.89 762.58,51.45 761.31,52.96 763.16,52.29 764.2,53.97 764.15,52 
				766.06,51.53 764.18,50.98 764.32,49 			"/>
		</g>
		<g>
			<path class="st3" d="M748.57,51.02c0.05,0.03,0.12,0.06,0.2,0.06c0.12,0,0.19-0.06,0.19-0.15c0-0.08-0.05-0.13-0.16-0.17
				c-0.14-0.05-0.23-0.13-0.23-0.25c0-0.14,0.11-0.24,0.28-0.24c0.09,0,0.15,0.02,0.19,0.04L749,50.41
				c-0.03-0.01-0.08-0.04-0.16-0.04c-0.12,0-0.17,0.07-0.17,0.13c0,0.09,0.05,0.12,0.17,0.17c0.15,0.06,0.22,0.13,0.22,0.26
				c0,0.13-0.1,0.25-0.3,0.25c-0.08,0-0.18-0.03-0.22-0.06L748.57,51.02z"/>
			<path class="st3" d="M749.35,50.38v0.15h0.16v0.09h-0.16v0.34c0,0.08,0.02,0.12,0.09,0.12c0.03,0,0.05,0,0.06-0.01l0.01,0.09
				c-0.02,0.01-0.06,0.01-0.1,0.01c-0.05,0-0.09-0.02-0.12-0.05c-0.03-0.04-0.04-0.09-0.04-0.17v-0.34h-0.1v-0.09h0.1v-0.12
				L749.35,50.38z"/>
			<path class="st3" d="M749.69,50.87c0,0.15,0.1,0.22,0.21,0.22c0.08,0,0.13-0.01,0.17-0.03l0.02,0.08
				c-0.04,0.02-0.11,0.04-0.21,0.04c-0.19,0-0.31-0.13-0.31-0.32c0-0.19,0.11-0.34,0.29-0.34c0.2,0,0.26,0.18,0.26,0.29
				c0,0.03,0,0.04,0,0.05H749.69z M750.03,50.78c0-0.07-0.03-0.18-0.16-0.18c-0.11,0-0.17,0.1-0.18,0.18H750.03z"/>
			<path class="st3" d="M750.28,50.74c0-0.08,0-0.15,0-0.2h0.1l0,0.1h0c0.05-0.08,0.12-0.12,0.22-0.12c0.15,0,0.26,0.13,0.26,0.32
				c0,0.22-0.14,0.33-0.28,0.33c-0.09,0-0.15-0.04-0.19-0.1h0v0.34h-0.11V50.74z M750.39,50.91c0,0.01,0,0.03,0,0.05
				c0.02,0.08,0.09,0.13,0.17,0.13c0.12,0,0.19-0.1,0.19-0.24c0-0.13-0.06-0.23-0.19-0.23c-0.08,0-0.15,0.05-0.17,0.14
				c0,0.01,0,0.03,0,0.05V50.91z"/>
			<path class="st3" d="M751.01,50.24h0.11v0.39h0c0.02-0.03,0.04-0.06,0.08-0.08c0.04-0.02,0.08-0.03,0.12-0.03
				c0.08,0,0.22,0.05,0.22,0.27v0.37h-0.11V50.8c0-0.1-0.04-0.19-0.14-0.19c-0.07,0-0.13,0.05-0.15,0.12
				c-0.01,0.01-0.01,0.03-0.01,0.05v0.38h-0.11V50.24z"/>
			<path class="st3" d="M752.17,51.01c0,0.05,0,0.1,0.01,0.15h-0.1l-0.01-0.08h0c-0.03,0.05-0.1,0.09-0.19,0.09
				c-0.13,0-0.19-0.09-0.19-0.18c0-0.15,0.14-0.23,0.38-0.23v-0.01c0-0.05-0.02-0.15-0.14-0.15c-0.06,0-0.12,0.02-0.17,0.05
				l-0.02-0.08c0.05-0.03,0.13-0.05,0.21-0.05c0.19,0,0.24,0.13,0.24,0.26V51.01z M752.06,50.84c-0.12,0-0.27,0.02-0.27,0.14
				c0,0.07,0.05,0.11,0.11,0.11c0.08,0,0.13-0.05,0.15-0.1c0-0.01,0-0.03,0-0.04V50.84z"/>
			<path class="st3" d="M752.35,50.7c0-0.07,0-0.12,0-0.17h0.1l0.01,0.1h0c0.03-0.06,0.1-0.11,0.21-0.11c0.09,0,0.22,0.05,0.22,0.27
				v0.37h-0.11V50.8c0-0.1-0.04-0.19-0.14-0.19c-0.07,0-0.13,0.05-0.15,0.12c-0.01,0.01-0.01,0.04-0.01,0.05v0.38h-0.12V50.7z"/>
			<path class="st3" d="M753.34,50.24h0.11v0.92h-0.11V50.24z"/>
			<path class="st3" d="M753.71,50.87c0,0.15,0.1,0.22,0.21,0.22c0.08,0,0.13-0.01,0.17-0.03l0.02,0.08
				c-0.04,0.02-0.11,0.04-0.21,0.04c-0.19,0-0.31-0.13-0.31-0.32c0-0.19,0.11-0.34,0.29-0.34c0.2,0,0.26,0.18,0.26,0.29
				c0,0.03,0,0.04,0,0.05H753.71z M754.04,50.78c0-0.07-0.03-0.18-0.16-0.18c-0.11,0-0.16,0.1-0.18,0.18H754.04z"/>
			<path class="st3" d="M754.56,51.02c0.05,0.03,0.12,0.06,0.2,0.06c0.12,0,0.18-0.06,0.18-0.15c0-0.08-0.05-0.13-0.16-0.17
				c-0.14-0.05-0.23-0.13-0.23-0.25c0-0.14,0.11-0.24,0.28-0.24c0.09,0,0.15,0.02,0.19,0.04l-0.03,0.09
				c-0.03-0.01-0.09-0.04-0.17-0.04c-0.12,0-0.16,0.07-0.16,0.13c0,0.09,0.05,0.12,0.17,0.17c0.15,0.06,0.22,0.13,0.22,0.26
				c0,0.13-0.1,0.25-0.3,0.25c-0.08,0-0.18-0.03-0.22-0.06L754.56,51.02z"/>
			<path class="st3" d="M755.65,51.01c0,0.05,0,0.1,0.01,0.15h-0.1l-0.01-0.08h0c-0.04,0.05-0.1,0.09-0.19,0.09
				c-0.12,0-0.19-0.09-0.19-0.18c0-0.15,0.13-0.23,0.38-0.23v-0.01c0-0.05-0.01-0.15-0.14-0.15c-0.06,0-0.12,0.02-0.16,0.05
				l-0.03-0.08c0.05-0.03,0.13-0.05,0.21-0.05c0.19,0,0.24,0.13,0.24,0.26V51.01z M755.54,50.84c-0.13,0-0.27,0.02-0.27,0.14
				c0,0.07,0.05,0.11,0.11,0.11c0.08,0,0.14-0.05,0.15-0.1c0-0.01,0.01-0.03,0.01-0.04V50.84z"/>
			<path class="st3" d="M756.37,51.07c0,0.14-0.03,0.23-0.09,0.28c-0.06,0.06-0.15,0.08-0.23,0.08c-0.07,0-0.16-0.02-0.21-0.05
				l0.03-0.09c0.04,0.03,0.11,0.05,0.18,0.05c0.11,0,0.2-0.06,0.2-0.22v-0.07h0c-0.03,0.06-0.1,0.11-0.2,0.11
				c-0.16,0-0.27-0.14-0.27-0.31c0-0.21,0.14-0.33,0.28-0.33c0.11,0,0.17,0.05,0.2,0.11l0,0l0-0.09h0.1c0,0.04,0,0.09,0,0.17V51.07z
				 M756.26,50.78c0-0.02,0-0.04-0.01-0.05c-0.02-0.07-0.08-0.12-0.16-0.12c-0.11,0-0.19,0.1-0.19,0.24c0,0.12,0.06,0.23,0.19,0.23
				c0.07,0,0.14-0.05,0.16-0.12c0.01-0.02,0.01-0.04,0.01-0.06V50.78z"/>
			<path class="st3" d="M756.62,50.87c0,0.15,0.1,0.22,0.21,0.22c0.08,0,0.13-0.01,0.17-0.03l0.02,0.08
				c-0.04,0.02-0.11,0.04-0.21,0.04c-0.19,0-0.31-0.13-0.31-0.32c0-0.19,0.11-0.34,0.3-0.34c0.2,0,0.26,0.18,0.26,0.29
				c0,0.03,0,0.04,0,0.05H756.62z M756.95,50.78c0-0.07-0.03-0.18-0.15-0.18c-0.12,0-0.17,0.1-0.18,0.18H756.95z"/>
		</g>
	</g>
</g>
<g id="Stuurhut">
	<g>
		<rect x="455.63" y="463.89" class="st5" width="11.1" height="47.36"/>
		<path class="st3" d="M455.26,511.62v-48.1h11.84v47.73v0.37H455.26L455.26,511.62z M466.72,511.25v-0.37V511.25L466.72,511.25z
			 M456,510.87h10.36l-0.01-46.62H456V510.87L456,510.87z"/>
	</g>
	<g>
		<rect x="454.52" y="494.23" class="st5" width="13.32" height="38.3"/>
		<path class="st3" d="M454.14,532.89v-39.03h14.06v38.66v0.36H454.14L454.14,532.89z M467.84,532.52v-0.37V532.52L467.84,532.52z
			 M454.88,532.15h12.58V494.6h-12.58V532.15L454.88,532.15z"/>
	</g>
	<g>
		<polygon class="st11" points="443.6,462.96 436.57,462.04 436.01,460.56 443.6,460.56 		"/>
		<g>
			<rect x="443.54" y="454.51" class="st5" width="36.76" height="9.13"/>
			<path class="st3" d="M443.17,464.01v-9.87h37.49v9.49v0.37H443.17L443.17,464.01z M480.29,463.64v-0.37V463.64L480.29,463.64z
				 M443.91,463.27h36.01v-8.39h-36.01V463.27L443.91,463.27z"/>
		</g>
		<g>
			<polygon class="st11" points="439.54,439.03 436.42,439.03 436.42,460.76 441.18,460.76 			"/>
			<rect x="431.57" y="441.93" class="st11" width="6.84" height="1.48"/>
		</g>
		<polygon class="st3" points="481.64,455.17 442.39,455.17 441.58,444.37 485.54,443.26 		"/>
		<polygon class="st6" points="481.44,453.91 443.37,453.91 442.6,445.86 484.32,444.75 		"/>
		<polygon class="st3" points="476.15,454.44 476.15,444.14 476.89,444.14 476.89,454.44 476.15,454.44 		"/>
		<polygon class="st3" points="465.84,454.44 465.84,444.14 466.58,444.14 466.58,454.44 465.84,454.44 		"/>
		<polygon class="st3" points="466.54,454.73 467.28,454.73 467.32,464.05 466.58,464.06 466.54,454.73 		"/>
		<path class="st0" d="M440.57,444.49c-0.01-0.41,0.31-0.75,0.72-0.76l0,0l45.08-1.11c0.41-0.01,0.75,0.31,0.76,0.72l0,0
			c0.01,0.41-0.31,0.75-0.72,0.76l0,0l-45.08,1.11c-0.01,0-0.02,0-0.02,0l0,0C440.91,445.21,440.58,444.89,440.57,444.49
			L440.57,444.49z"/>
		<path class="st11" d="M461.05,462.96v-6.57c0-0.09,0.04-0.19,0.11-0.26l0,0c0.07-0.07,0.16-0.11,0.26-0.11l0,0h10.92
			c0.2,0,0.37,0.17,0.37,0.36l0,0c0,0.21-0.16,0.37-0.37,0.37l0,0l-10.55-0.01v6.21h0.01c0,0.21-0.17,0.37-0.37,0.37l0,0
			C461.22,463.33,461.05,463.17,461.05,462.96L461.05,462.96z"/>
		<path class="st11" d="M461.42,460.74c-0.21,0-0.37-0.17-0.37-0.37l0,0c0-0.21,0.16-0.37,0.37-0.37l0,0h8.7
			c0.2,0,0.37,0.16,0.37,0.37l0,0c0,0.21-0.17,0.37-0.37,0.37l0,0H461.42L461.42,460.74z"/>
		<path class="st11" d="M466.24,463.06v-6.66c0-0.21,0.16-0.37,0.36-0.37l0,0c0.21,0,0.37,0.16,0.37,0.37l0,0v6.66
			c0,0.2-0.16,0.37-0.37,0.37l0,0C466.4,463.42,466.24,463.26,466.24,463.06L466.24,463.06z"/>
		<g>
			<polygon class="st5" points="473.66,454.39 487.82,453.41 487.17,454.39 485.7,463.64 468.33,463.64 			"/>
			<path class="st3" d="M467.69,464.01l5.64-9.8l0.1-0.17l15.1-1.05l-0.41,0.62l-0.59,0.84l-1.53,9.57H467.69L467.69,464.01z
				 M468.97,463.27h16.41l1.49-9.09l0.23-0.36l-13.22,0.92L468.97,463.27L468.97,463.27z"/>
		</g>
		<rect x="460.78" y="462.59" class="st3" width="24.92" height="1.05"/>
	</g>
	<g>
		<g>
			<path class="st11" d="M466.38,548.68c0,0.31-0.26,0.57-0.57,0.57h-8.28c-0.31,0-0.57-0.26-0.57-0.57v-15.16
				c0-0.31,0.26-0.57,0.57-0.57h8.28c0.31,0,0.57,0.26,0.57,0.57V548.68z"/>
		</g>
		<path class="st3" d="M456.59,549.61v-17.03h10.16v16.66v0.37H456.59L456.59,549.61z M466.37,549.24v-0.36V549.24L466.37,549.24z
			 M457.33,548.88h8.68v-15.57h-8.68V548.88L457.33,548.88z"/>
	</g>
</g>
</svg>
