<?xml version="1.0" encoding="utf-8"?>
<!-- Generator: Adobe Illustrator 26.0.3, SVG Export Plug-In . SVG Version: 6.00 Build 0)  -->
<svg version="1.1" xmlns="http://www.w3.org/2000/svg" xmlns:xlink="http://www.w3.org/1999/xlink" x="0px" y="0px"
	 viewBox="0 0 648.13 106.31" style="enable-background:new 0 0 648.13 106.31;" xml:space="preserve">
<style type="text/css">
	.st0{fill:#550700;}
	.st1{fill:#D7D8DA;}
	.st2{fill:#E2E3E4;}
	.st3{fill:#231F20;}
	.st4{fill:#932923;}
	.st5{fill:#FFFFFF;}
	.st6{fill:#C6E9FA;}
	.st7{fill:#EC1C24;}
	.st8{fill:#C4C3C3;}
	.st9{fill:url(#SVGID_1_);}
	.st10{fill:url(#SVGID_00000155104720226230753510000007681481114762183071_);}
	.st11{fill:#A6A8AB;}
	.st12{fill:#A4A7A9;}
	.st13{fill:url(#SVGID_00000119105077479408283960000004522940702205425844_);}
	.st14{fill:url(#SVGID_00000166644751385556594290000007307745952641479315_);}
	.st15{fill:url(#SVGID_00000142886301610017999920000008445078820789394567_);}
	.st16{fill:url(#SVGID_00000164510537010567242510000010784153378808066468_);}
	.st17{fill:#BDCCD4;}
	.st18{fill:#6E90A2;}
	.st19{fill:url(#SVGID_00000132067777531307514650000000228379265565093518_);}
	.st20{fill:url(#SVGID_00000011012477617414316630000004282841271186204081_);}
	.st21{fill:#67686B;}
</style>
<g id="Ship">
</g>
<g id="Short-ship">
</g>
<g id="Container">
</g>
<g id="Bulk">
	<g>
		<rect x="19.67" y="39.69" class="st18" width="4.04" height="18.09"/>
		<polygon class="st18" points="116.47,39.75 19.25,39.75 21.12,37.21 116.47,37.21 		"/>
		<path class="st18" d="M22.79,39.25c0,1.18-0.96,2.14-2.14,2.14c-1.18,0-2.14-0.96-2.14-2.14c0-1.18,0.96-2.14,2.14-2.14
			C21.84,37.11,22.79,38.07,22.79,39.25z"/>
	</g>
	<polygon class="st11" points="84.83,33.84 95.45,33.84 97.14,42.46 77.44,42.46 	"/>
	<polygon class="st11" points="546.94,52.62 153.49,52.62 153.8,70.48 546.94,70.48 	"/>
	<g>
		<rect x="547.25" y="44.17" class="st5" width="52.23" height="25.4"/>
		<path class="st3" d="M546.78,70.03V43.71h53.15v25.86v0.45H546.78L546.78,70.03z M599.48,69.58v-0.46V69.58L599.48,69.58z
			 M547.71,69.12h51.31V44.63h-51.31V69.12L547.71,69.12z"/>
	</g>
	<g>
		<g>
			<path class="st6" d="M567.01,60.19c0,0.31-0.26,0.57-0.57,0.57H552.4c-0.31,0-0.57-0.26-0.57-0.57V48.98
				c0-0.31,0.26-0.57,0.57-0.57h14.04c0.31,0,0.57,0.26,0.57,0.57V60.19z"/>
		</g>
		<path class="st3" d="M551.37,61.22V47.94h16.09v12.81v0.46H551.37L551.37,61.22z M567,60.76v-0.47V60.76L567,60.76z M552.29,60.29
			h14.26l-0.01-11.42h-14.25V60.29L552.29,60.29z"/>
	</g>
	<g>
		<g>
			<path class="st6" d="M590.99,60.19c0,0.31-0.26,0.57-0.57,0.57h-14.04c-0.31,0-0.57-0.26-0.57-0.57V48.98
				c0-0.31,0.26-0.57,0.57-0.57h14.04c0.31,0,0.57,0.26,0.57,0.57V60.19z"/>
		</g>
		<path class="st3" d="M575.35,61.22V47.94h16.1v12.81v0.46H575.35L575.35,61.22z M590.99,60.76v-0.47V60.76L590.99,60.76z
			 M576.27,60.29h14.25V48.87h-14.25V60.29L576.27,60.29z"/>
	</g>
	<g>
		<rect x="119.47" y="43.69" class="st5" width="12.01" height="43.72"/>
		<path class="st3" d="M118.54,88.33V43.69v-0.93h13.86v45.56H118.54L118.54,88.33z M120.39,86.48h10.16V44.61h-10.15L120.39,86.48
			L120.39,86.48z"/>
	</g>
	<g>
		<rect x="104.92" y="34.6" class="st5" width="39.76" height="12.17"/>
		<path class="st3" d="M103.99,47.7V33.67h41.61v13.1v0.93H103.99L103.99,47.7z M144.67,46.77v-0.93V46.77L144.67,46.77z
			 M105.84,45.85h37.91V35.52h-37.91V45.85L105.84,45.85z"/>
	</g>
	<polygon class="st3" points="146.23,36.21 103.54,36.21 102.66,22.67 150.47,22.67 	"/>
	<polygon class="st6" points="144.55,34.6 105.15,34.6 104.35,24.37 147.54,24.37 	"/>
	<g>
		<rect x="25.56" y="42.79" class="st5" width="91.03" height="25.4"/>
		<path class="st3" d="M25.09,68.65V42.32h91.95v25.86v0.47H25.09L25.09,68.65z M116.59,68.19v-0.46V68.19L116.59,68.19z
			 M26.02,67.72h90.11V43.25H26.02V67.72L26.02,67.72z"/>
	</g>
	<g>
		<g>
			<path class="st6" d="M45.32,58.81c0,0.31-0.26,0.57-0.57,0.57H30.71c-0.31,0-0.57-0.26-0.57-0.57V47.59
				c0-0.31,0.26-0.57,0.57-0.57h14.04c0.31,0,0.57,0.26,0.57,0.57V58.81z"/>
		</g>
		<path class="st3" d="M29.68,59.83V46.56h16.09v12.82v0.46H29.68L29.68,59.83z M45.32,59.37v-0.47V59.37L45.32,59.37z M30.61,58.91
			h14.25V47.48H30.61V58.91L30.61,58.91z"/>
	</g>
	<g>
		<g>
			<path class="st6" d="M65.61,58.81c0,0.31-0.26,0.57-0.57,0.57H51c-0.31,0-0.57-0.26-0.57-0.57V47.59c0-0.31,0.26-0.57,0.57-0.57
				h14.04c0.31,0,0.57,0.26,0.57,0.57V58.81z"/>
		</g>
		<path class="st3" d="M49.97,59.83V46.56h16.1v12.82v0.46H49.97L49.97,59.83z M65.61,59.37v-0.47V59.37L65.61,59.37z M50.89,58.91
			h14.25V47.48H50.89V58.91L50.89,58.91z"/>
	</g>
	<g>
		<g>
			<path class="st6" d="M85.9,58.81c0,0.31-0.26,0.57-0.57,0.57H71.29c-0.31,0-0.57-0.26-0.57-0.57V47.59
				c0-0.31,0.26-0.57,0.57-0.57h14.04c0.31,0,0.57,0.26,0.57,0.57V58.81z"/>
		</g>
		<path class="st3" d="M70.26,59.83V46.56h16.1v12.82v0.46H70.26L70.26,59.83z M85.9,59.37v-0.47V59.37L85.9,59.37z M71.18,58.91
			h14.25V47.48H71.18V58.91L71.18,58.91z"/>
	</g>
	<path class="st3" d="M156.72,75.09V55.7h386.83v18.47v0.93H156.72L156.72,75.09z M542.63,74.17v-0.92V74.17L542.63,74.17z
		 M158.57,73.25h383.14V57.54H158.57V73.25L158.57,73.25z"/>
	<g>
		<g>
			<path class="st6" d="M106.18,58.81c0,0.31-0.26,0.57-0.57,0.57H91.58c-0.31,0-0.57-0.26-0.57-0.57V47.59
				c0-0.31,0.26-0.57,0.57-0.57h14.04c0.31,0,0.57,0.26,0.57,0.57V58.81z"/>
		</g>
		<path class="st3" d="M90.55,59.83V46.56h16.09v12.82v0.46H90.55L90.55,59.83z M106.18,59.37v-0.47V59.37L106.18,59.37z
			 M91.47,58.91h14.25V47.48H91.47V58.91L91.47,58.91z"/>
	</g>
	<g>
		<polygon class="st5" points="635.46,59.39 637.77,51.01 536.63,58.62 495.75,69.78 592.97,64.01 		"/>
		<path class="st3" d="M495.51,68.89l41.05-11.19L639,49.98l-2.65,9.65l-0.17,0.61l-43.16,4.69l-97.21,5.78L495.51,68.89
			L495.51,68.89z M536.87,59.52l-32.3,8.82l88.3-5.25l41.87-4.55l1.79-6.52L536.87,59.52L536.87,59.52z"/>
	</g>
	<g>
		<polygon class="st5" points="12.63,63.71 14.17,57.24 121.18,61.8 144.72,61.86 177.28,68.94 121.17,68.81 62.28,68.57 		"/>
		<path class="st3" d="M121.16,69.73l-58.98-0.24l-49.64-4.87l0.09-0.92l0.9,0.21l-0.9-0.21l-0.09,0.92l-1.06-0.1l1.96-8.24
			l107.74,4.59l23.73,0.08l32.56,7.08l-0.2,1.82L121.16,69.73L121.16,69.73z M62.28,67.65l58.89,0.24L168.62,68l-23.91-5.22
			l-23.57-0.06L14.9,58.19l-1.12,4.69L62.28,67.65L62.28,67.65z"/>
	</g>
	<polygon class="st3" points="139.78,35.38 139.78,23.68 140.7,23.68 140.7,35.38 139.78,35.38 	"/>
	<polygon class="st3" points="128.69,35.38 128.69,23.68 129.62,23.68 129.62,35.38 128.69,35.38 	"/>
	<path class="st3" d="M138.88,68.32h352.97l145.32-10.77l-12.32,32.94c0,0-3.71,5.85-9.25,5.85c-5.54,0-519.38,0-519.38,0
		s-48.03,0-80.52-18.78l-4.46-14.01C11.25,63.55,100.84,68.63,138.88,68.32z"/>
	<rect x="48.19" y="83.41" class="st3" width="96.52" height="12.93"/>
	<rect x="19.09" y="85.88" class="st3" width="17.55" height="10.16"/>
	<rect x="29.26" y="83.32" class="st3" width="4.93" height="3.18"/>
	<polygon class="st3" points="19.54,30.88 20.97,29.71 31.13,42.18 29.7,43.35 19.54,30.88 	"/>
	<path class="st3" d="M102.37,24.14c-0.51,0-0.92-0.41-0.92-0.93l0,0c0-0.51,0.42-0.92,0.92-0.92l0,0h48.5
		c0.51,0,0.92,0.41,0.92,0.92l0,0c0,0.52-0.42,0.93-0.92,0.93l0,0H102.37L102.37,24.14z"/>
	<g>
		<polygon class="st3" points="187.2,70.48 187.2,57.08 189.05,57.08 189.05,70.48 187.2,70.48 		"/>
		<polygon class="st3" points="190.9,70.48 190.9,57.08 192.74,57.08 192.74,70.48 190.9,70.48 		"/>
	</g>
	<g>
		<polygon class="st3" points="213.69,70.48 213.69,57.08 215.53,57.08 215.53,70.48 213.69,70.48 		"/>
		<polygon class="st3" points="217.38,70.48 217.38,57.08 219.23,57.08 219.23,70.48 217.38,70.48 		"/>
	</g>
	<g>
		<polygon class="st3" points="240.16,70.48 240.16,57.08 242.01,57.08 242.01,70.48 240.16,70.48 		"/>
		<polygon class="st3" points="243.85,70.48 243.85,57.08 245.71,57.08 245.71,70.48 243.85,70.48 		"/>
	</g>
	<g>
		<polygon class="st3" points="266.64,70.48 266.64,57.08 268.49,57.08 268.49,70.48 266.64,70.48 		"/>
		<polygon class="st3" points="270.34,70.48 270.34,57.08 272.18,57.08 272.18,70.48 270.34,70.48 		"/>
	</g>
	<g>
		<polygon class="st3" points="293.13,70.48 293.13,57.08 294.97,57.08 294.97,70.48 293.13,70.48 		"/>
		<polygon class="st3" points="296.81,70.48 296.81,57.08 298.67,57.08 298.67,70.48 296.81,70.48 		"/>
	</g>
	<g>
		<polygon class="st3" points="319.6,70.48 319.6,57.08 321.45,57.08 321.45,70.48 319.6,70.48 		"/>
		<polygon class="st3" points="323.3,70.48 323.3,57.08 325.14,57.08 325.14,70.48 323.3,70.48 		"/>
	</g>
	<g>
		<polygon class="st3" points="346.08,70.48 346.08,57.08 347.93,57.08 347.93,70.48 346.08,70.48 		"/>
		<polygon class="st3" points="349.78,70.48 349.78,57.08 351.63,57.08 351.63,70.48 349.78,70.48 		"/>
	</g>
	<g>
		<polygon class="st3" points="372.56,70.48 372.56,57.08 374.41,57.08 374.41,70.48 372.56,70.48 		"/>
		<polygon class="st3" points="376.25,70.48 376.25,57.08 378.11,57.08 378.11,70.48 376.25,70.48 		"/>
	</g>
	<g>
		<polygon class="st3" points="399.04,70.48 399.04,57.08 400.89,57.08 400.89,70.48 399.04,70.48 		"/>
		<polygon class="st3" points="402.74,70.48 402.74,57.08 404.58,57.08 404.58,70.48 402.74,70.48 		"/>
	</g>
	<g>
		<polygon class="st3" points="425.52,70.48 425.52,57.08 427.37,57.08 427.37,70.48 425.52,70.48 		"/>
		<polygon class="st3" points="429.21,70.48 429.21,57.08 431.07,57.08 431.07,70.48 429.21,70.48 		"/>
	</g>
	<g>
		<polygon class="st3" points="452,70.48 452,57.08 453.85,57.08 453.85,70.48 452,70.48 		"/>
		<polygon class="st3" points="455.7,70.48 455.7,57.08 457.54,57.08 457.54,70.48 455.7,70.48 		"/>
	</g>
	<g>
		<polygon class="st3" points="478.48,70.48 478.48,57.08 480.33,57.08 480.33,70.48 478.48,70.48 		"/>
		<polygon class="st3" points="482.18,70.48 482.18,57.08 484.02,57.08 484.02,70.48 482.18,70.48 		"/>
	</g>
	<g>
		<line class="st5" x1="556.74" y1="43.71" x2="606.65" y2="7.89"/>
		<path class="st3" d="M555.62,44.51c-0.45-0.62-0.31-1.48,0.32-1.93l0,0l49.91-35.81c0.62-0.45,1.49-0.31,1.94,0.32l0,0
			c0.44,0.62,0.3,1.49-0.32,1.93l0,0l-49.91,35.82c-0.24,0.17-0.53,0.26-0.81,0.26l0,0C556.31,45.09,555.88,44.89,555.62,44.51
			L555.62,44.51z"/>
	</g>
	<linearGradient id="SVGID_1_" gradientUnits="userSpaceOnUse" x1="9.2437" y1="35.3779" x2="20.637" y2="35.3779">
		<stop  offset="0" style="stop-color:#FFFFFF"/>
		<stop  offset="1" style="stop-color:#231F20"/>
	</linearGradient>
	<rect x="9.24" y="31.36" class="st9" width="11.39" height="8.04"/>
	
		<linearGradient id="SVGID_00000117642418887492171050000013521680719340983427_" gradientUnits="userSpaceOnUse" x1="594.8689" y1="11.4788" x2="606.8265" y2="11.4788">
		<stop  offset="0" style="stop-color:#FFFFFF"/>
		<stop  offset="0.8297" style="stop-color:#F6921E"/>
	</linearGradient>
	<polygon style="fill:url(#SVGID_00000117642418887492171050000013521680719340983427_);" points="606.83,14.63 594.87,11.42 
		606.83,8.32 	"/>
	<g>
		<g>
			<polygon class="st1" points="39.89,35 75.71,35 75.71,40.03 43,40.03 39.89,39.02 			"/>
			<g>
				<path class="st2" d="M68.43,39.12c0,1.65,1.34,2.99,2.99,2.99c1.65,0,2.99-1.34,2.99-2.99c0-1.65-1.34-3-2.99-3
					C69.76,36.12,68.43,37.46,68.43,39.12z"/>
				<path class="st3" d="M74.82,39.12c0,1.88-1.52,3.4-3.4,3.4l0,0c-1.88,0-3.4-1.52-3.41-3.4l0,0c0-1.89,1.53-3.41,3.41-3.41l0,0
					C73.3,35.7,74.82,37.23,74.82,39.12L74.82,39.12z M74,39.12c0-1.43-1.15-2.58-2.58-2.58l0,0c-1.43,0-2.58,1.15-2.58,2.58l0,0
					c0,1.42,1.16,2.58,2.58,2.58l0,0C72.85,41.69,74,40.54,74,39.12L74,39.12z"/>
			</g>
			<g>
				<path class="st1" d="M41.01,39.12c0,1.65,1.34,2.99,2.99,2.99S47,40.77,47,39.12c0-1.65-1.34-3-2.99-3S41.01,37.46,41.01,39.12z
					"/>
				<path class="st3" d="M47.41,39.12c0,1.88-1.53,3.4-3.41,3.4l0,0c-1.88,0-3.4-1.52-3.4-3.4l0,0c0-1.89,1.52-3.41,3.4-3.41l0,0
					C45.88,35.7,47.41,37.23,47.41,39.12L47.41,39.12z M46.59,39.12c0-1.43-1.16-2.58-2.58-2.58l0,0c-1.43,0-2.58,1.15-2.58,2.58
					l0,0c0,1.42,1.16,2.58,2.58,2.58l0,0C45.43,41.69,46.59,40.54,46.59,39.12L46.59,39.12z"/>
			</g>
			<g>
				<path class="st21" d="M75.34,40.69c0,0,0.89-5.07-4.11-5.07c-4.11,0-4.25,4.93-4.25,4.93l-18.5-0.41c0,0-0.52-4.8-4.32-4.8
					c-4.08,0-3.97,3.9-3.97,3.9s-1.3,0.41-2.12-0.55c-0.82-0.95-0.61-3.7-0.61-3.7l0.75-0.89l0.28-3.22c0,0,0.14-1.99,3.22-3.22
					l-0.14-0.76c0,0,9.53-1.71,16.38-0.41c6.85,1.3,7.74,4.11,12.13,5c4.39,0.89,11.1,2.19,8.77,7.88L79.12,40
					C79.12,40,78.91,40.76,75.34,40.69z"/>
				<path class="st5" d="M78.84,35.62c0,0-3.08-0.06-6.44-2.4l4.46,0.48C76.86,33.7,77.88,34.25,78.84,35.62z"/>
				<path class="st6" d="M68.63,32.6c0,0-5.89-5.35-13.91-5.96c-8.02-0.62-10.69,1.51-10.69,1.51s1.37,1.58,3.15,1.85
					C48.96,30.28,68.63,32.6,68.63,32.6z"/>
				<path class="st3" d="M65.74,40.04c0.8-1.41,1.04-2.88,1.04-4.15l0,0c0-2.04-0.62-3.58-0.63-3.59l0,0c0,0-0.93-1.97-2.87-3.28
					l0,0c-0.03-0.02-0.07-0.01-0.09,0.02l0,0c-0.02,0.03-0.01,0.07,0.02,0.09l0,0c1.9,1.29,2.82,3.22,2.82,3.22l0,0
					c0,0,0.62,1.52,0.62,3.53l0,0c0,1.24-0.24,2.67-1.01,4.05l0,0l-12.8-0.34c0,0-0.06,0.03-0.18,0.03l0,0
					c-0.28,0-0.87-0.18-1.31-1.63l0,0c-0.61-2.04-0.61-7.24-0.61-7.24l0,0c0.01,0,0.24-2.68,2.27-4.17l0,0
					c0.03-0.02,0.04-0.06,0.01-0.1l0,0c-0.02-0.03-0.06-0.04-0.09-0.01l0,0c-2.08,1.53-2.32,4.25-2.33,4.27l0,0
					c0,0.01,0,5.21,0.62,7.28l0,0c0.44,1.48,1.09,1.73,1.44,1.73l0,0c0.12,0,0.2-0.02,0.2-0.03l0,0l12.85,0.34L65.74,40.04
					L65.74,40.04z"/>
				<path class="st7" d="M38.64,33.06c0,0,3.49,0.05,3.61-1.26v-1.23l-3.38,0.45C38.86,31.03,38.61,31.78,38.64,33.06z"/>
			</g>
		</g>
		<polygon class="st8" points="71.39,38.24 69.85,37 70.55,38.85 68.9,39.92 70.87,39.82 71.39,41.72 71.9,39.82 73.87,39.92 
			72.22,38.85 72.92,37 		"/>
		<polygon class="st8" points="43.77,38.28 41.94,37.54 43.14,39.1 41.87,40.61 43.73,39.95 44.77,41.63 44.71,39.65 46.63,39.18 
			44.74,38.63 44.88,36.66 		"/>
	</g>
	<g>
		<path class="st3" d="M29.13,38.67c0.05,0.03,0.12,0.06,0.2,0.06c0.12,0,0.19-0.06,0.19-0.15c0-0.08-0.05-0.13-0.16-0.17
			c-0.14-0.05-0.23-0.13-0.23-0.25c0-0.14,0.11-0.24,0.28-0.24c0.09,0,0.15,0.02,0.19,0.04l-0.03,0.09
			c-0.03-0.01-0.08-0.04-0.16-0.04c-0.12,0-0.17,0.07-0.17,0.13c0,0.09,0.05,0.12,0.17,0.17c0.15,0.06,0.22,0.13,0.22,0.26
			c0,0.13-0.1,0.25-0.3,0.25c-0.08,0-0.18-0.03-0.22-0.06L29.13,38.67z"/>
		<path class="st3" d="M29.91,38.04v0.15h0.16v0.09h-0.16v0.34c0,0.08,0.02,0.12,0.09,0.12c0.03,0,0.05,0,0.06-0.01l0.01,0.09
			c-0.02,0.01-0.06,0.01-0.1,0.01c-0.05,0-0.09-0.02-0.12-0.05c-0.03-0.04-0.04-0.09-0.04-0.17v-0.34h-0.1v-0.09h0.1v-0.12
			L29.91,38.04z"/>
		<path class="st3" d="M30.26,38.52c0,0.15,0.1,0.22,0.21,0.22c0.08,0,0.13-0.01,0.17-0.03l0.02,0.08
			c-0.04,0.02-0.11,0.04-0.21,0.04c-0.19,0-0.31-0.13-0.31-0.32c0-0.19,0.11-0.34,0.29-0.34c0.2,0,0.26,0.18,0.26,0.29
			c0,0.03,0,0.04,0,0.05H30.26z M30.59,38.44c0-0.07-0.03-0.18-0.16-0.18c-0.11,0-0.17,0.1-0.18,0.18H30.59z"/>
		<path class="st3" d="M30.84,38.39c0-0.08,0-0.15,0-0.2h0.1l0,0.1h0c0.05-0.08,0.12-0.12,0.22-0.12c0.15,0,0.26,0.13,0.26,0.32
			c0,0.22-0.14,0.33-0.28,0.33c-0.09,0-0.15-0.04-0.19-0.1h0v0.34h-0.11V38.39z M30.96,38.56c0,0.01,0,0.03,0,0.05
			c0.02,0.08,0.09,0.13,0.17,0.13c0.12,0,0.19-0.1,0.19-0.24c0-0.13-0.06-0.23-0.19-0.23c-0.08,0-0.15,0.05-0.17,0.14
			c0,0.01,0,0.03,0,0.05V38.56z"/>
		<path class="st3" d="M31.58,37.89h0.11v0.39h0c0.02-0.03,0.04-0.06,0.08-0.08c0.04-0.02,0.08-0.03,0.12-0.03
			c0.08,0,0.22,0.05,0.22,0.27v0.37H32v-0.36c0-0.1-0.04-0.19-0.14-0.19c-0.07,0-0.13,0.05-0.15,0.12
			c-0.01,0.01-0.01,0.03-0.01,0.05v0.38h-0.11V37.89z"/>
		<path class="st3" d="M32.73,38.66c0,0.05,0,0.1,0.01,0.15h-0.1l-0.01-0.08h0c-0.03,0.05-0.1,0.09-0.19,0.09
			c-0.13,0-0.19-0.09-0.19-0.18c0-0.15,0.14-0.23,0.38-0.23V38.4c0-0.05-0.02-0.15-0.14-0.15c-0.06,0-0.12,0.02-0.17,0.05
			l-0.02-0.08c0.05-0.03,0.13-0.05,0.21-0.05c0.19,0,0.24,0.13,0.24,0.26V38.66z M32.62,38.49c-0.12,0-0.27,0.02-0.27,0.14
			c0,0.07,0.05,0.11,0.11,0.11c0.08,0,0.13-0.05,0.15-0.1c0-0.01,0-0.03,0-0.04V38.49z"/>
		<path class="st3" d="M32.92,38.36c0-0.07,0-0.12,0-0.17h0.1l0.01,0.1h0c0.03-0.06,0.1-0.11,0.21-0.11c0.09,0,0.22,0.05,0.22,0.27
			v0.37h-0.11v-0.36c0-0.1-0.04-0.19-0.14-0.19c-0.07,0-0.13,0.05-0.15,0.12c-0.01,0.01-0.01,0.04-0.01,0.05v0.38h-0.12V38.36z"/>
		<path class="st3" d="M33.91,37.89h0.11v0.92h-0.11V37.89z"/>
		<path class="st3" d="M34.27,38.52c0,0.15,0.1,0.22,0.21,0.22c0.08,0,0.13-0.01,0.17-0.03l0.02,0.08
			c-0.04,0.02-0.11,0.04-0.21,0.04c-0.19,0-0.31-0.13-0.31-0.32c0-0.19,0.11-0.34,0.29-0.34c0.2,0,0.26,0.18,0.26,0.29
			c0,0.03,0,0.04,0,0.05H34.27z M34.61,38.44c0-0.07-0.03-0.18-0.16-0.18c-0.11,0-0.16,0.1-0.18,0.18H34.61z"/>
		<path class="st3" d="M35.12,38.67c0.05,0.03,0.12,0.06,0.2,0.06c0.12,0,0.18-0.06,0.18-0.15c0-0.08-0.05-0.13-0.16-0.17
			c-0.14-0.05-0.23-0.13-0.23-0.25c0-0.14,0.11-0.24,0.28-0.24c0.09,0,0.15,0.02,0.19,0.04l-0.03,0.09
			c-0.03-0.01-0.09-0.04-0.17-0.04c-0.12,0-0.16,0.07-0.16,0.13c0,0.09,0.05,0.12,0.17,0.17c0.15,0.06,0.22,0.13,0.22,0.26
			c0,0.13-0.1,0.25-0.3,0.25c-0.08,0-0.18-0.03-0.22-0.06L35.12,38.67z"/>
		<path class="st3" d="M36.22,38.66c0,0.05,0,0.1,0.01,0.15h-0.1l-0.01-0.08h0c-0.04,0.05-0.1,0.09-0.19,0.09
			c-0.12,0-0.19-0.09-0.19-0.18c0-0.15,0.13-0.23,0.38-0.23V38.4c0-0.05-0.01-0.15-0.14-0.15c-0.06,0-0.12,0.02-0.16,0.05
			l-0.03-0.08c0.05-0.03,0.13-0.05,0.21-0.05c0.19,0,0.24,0.13,0.24,0.26V38.66z M36.11,38.49c-0.13,0-0.27,0.02-0.27,0.14
			c0,0.07,0.05,0.11,0.11,0.11c0.08,0,0.14-0.05,0.15-0.1c0-0.01,0.01-0.03,0.01-0.04V38.49z"/>
		<path class="st3" d="M36.93,38.72c0,0.14-0.03,0.23-0.09,0.28c-0.06,0.06-0.15,0.08-0.23,0.08c-0.07,0-0.16-0.02-0.21-0.05
			l0.03-0.09c0.04,0.03,0.11,0.05,0.18,0.05c0.11,0,0.2-0.06,0.2-0.22v-0.07h0c-0.03,0.06-0.1,0.11-0.2,0.11
			c-0.16,0-0.27-0.14-0.27-0.31c0-0.21,0.14-0.33,0.28-0.33c0.11,0,0.17,0.05,0.2,0.11l0,0l0-0.09h0.1c0,0.04,0,0.09,0,0.17V38.72z
			 M36.82,38.43c0-0.02,0-0.04-0.01-0.05c-0.02-0.07-0.08-0.12-0.16-0.12c-0.11,0-0.19,0.1-0.19,0.24c0,0.12,0.06,0.23,0.19,0.23
			c0.07,0,0.14-0.05,0.16-0.12c0.01-0.02,0.01-0.04,0.01-0.06V38.43z"/>
		<path class="st3" d="M37.19,38.52c0,0.15,0.1,0.22,0.21,0.22c0.08,0,0.13-0.01,0.17-0.03l0.02,0.08
			c-0.04,0.02-0.11,0.04-0.21,0.04c-0.19,0-0.31-0.13-0.31-0.32c0-0.19,0.11-0.34,0.3-0.34c0.2,0,0.26,0.18,0.26,0.29
			c0,0.03,0,0.04,0,0.05H37.19z M37.52,38.44c0-0.07-0.03-0.18-0.15-0.18c-0.12,0-0.17,0.1-0.18,0.18H37.52z"/>
	</g>
</g>
<g id="Stuurhut">
</g>
</svg>
