<svg xmlns="http://www.w3.org/2000/svg" xmlns:xlink="http://www.w3.org/1999/xlink" viewBox="0 0 1407.97 215.01">
    <defs>
        <style>
            <linearGradient id="Zwart-wit" x1="285.1" y1="153.15" x2="294.23" y2="153.15" gradientUnits="userSpaceOnUse"><stop offset="0" stop-color="#fff"/><stop offset="1" stop-color="#231f20"/></linearGradient><linearGradient id="Zwart-wit-2" x1="275.97" y1="153.83" x2="285.1" y2="153.83" xlink:href="#Zwart-wit"/><linearGradient id="linear-gradient" x1="1335.84" y1="113.5" x2="1345.42" y2="113.5" gradientUnits="userSpaceOnUse"><stop offset="0" stop-color="#fff"/><stop offset="0.83" stop-color="#f6921e"/></linearGradient></defs><g id="Ship"><rect class="cls-1" x="1333.17" y="139.02" width="2.84" height="26.89"/><polygon class="cls-2" points="297.47 150.54 326.17 150.54 326.17 154.56 299.96 154.56 297.47 153.75 297.47 150.54"/><path class="cls-3" d="M320.36,153.83a2.4,2.4,0,1,0,2.39-2.4A2.4,2.4,0,0,0,320.36,153.83Z" transform="translate(-0.03)"/><path class="cls-4" d="M325.48,153.83a2.73,2.73,0,0,1-2.73,2.73h0a2.72,2.72,0,0,1-2.72-2.73h0a2.72,2.72,0,0,1,2.72-2.73h0a2.73,2.73,0,0,1,2.73,2.73Zm-.66,0a2.07,2.07,0,0,0-2.07-2.07h0a2.07,2.07,0,0,0-2.06,2.07h0a2.07,2.07,0,0,0,2.06,2.07h0a2.07,2.07,0,0,0,2.07-2.07Z" transform="translate(-0.03)"/><path class="cls-2" d="M298.39,153.83a2.4,2.4,0,1,0,2.4-2.4A2.41,2.41,0,0,0,298.39,153.83Z" transform="translate(-0.03)"/><path class="cls-4" d="M303.52,153.83a2.73,2.73,0,0,1-2.73,2.73h0a2.72,2.72,0,0,1-2.72-2.73h0a2.72,2.72,0,0,1,2.72-2.73h0a2.73,2.73,0,0,1,2.73,2.73Zm-.66,0a2.07,2.07,0,0,0-2.07-2.07h0a2.08,2.08,0,0,0-2.07,2.07h0a2.08,2.08,0,0,0,2.07,2.07h0a2.07,2.07,0,0,0,2.07-2.07Z" transform="translate(-0.03)"/><path class="cls-5" d="M325.9,155.09s.72-4.06-3.29-4.06c-3.3,0-3.41,3.95-3.41,3.95l-14.82-.32s-.41-3.85-3.46-3.85a3,3,0,0,0-3.18,3.13,1.7,1.7,0,0,1-1.71-.44c-.66-.76-.49-3-.49-3l.6-.72.22-2.58s.11-1.59,2.58-2.58l-.11-.6s7.64-1.37,13.13-.33,6.2,3.29,9.72,4,8.89,1.76,7,6.32l.22.49S328.76,155.15,325.9,155.09Z" transform="translate(-0.03)"/><path class="cls-6" d="M328.7,151a10.31,10.31,0,0,1-5.16-1.92l3.57.38A5.21,5.21,0,0,1,328.7,151Z" transform="translate(-0.03)"/><path class="cls-7" d="M320.52,148.61a20.74,20.74,0,0,0-11.15-4.77c-6.42-.5-8.56,1.2-8.56,1.2a4.86,4.86,0,0,0,2.52,1.49C304.76,146.75,320.52,148.61,320.52,148.61Z" transform="translate(-0.03)"/><path class="cls-4" d="M318.21,154.57a6.7,6.7,0,0,0,.83-3.33h0a8.53,8.53,0,0,0-.5-2.87h0a7.3,7.3,0,0,0-2.3-2.63h0a0,0,0,0,0-.07,0h0a0,0,0,0,0,0,.07h0a7.37,7.37,0,0,1,2.26,2.58h0a8.29,8.29,0,0,1,.5,2.83h0a6.57,6.57,0,0,1-.81,3.25h0l-10.26-.27a.41.41,0,0,1-.14,0h0c-.22,0-.69-.14-1.05-1.3h0a30.76,30.76,0,0,1-.49-5.8h0A5.16,5.16,0,0,1,308,143.8h0a.06.06,0,0,0,0-.08h0a.06.06,0,0,0-.08,0h0a5.17,5.17,0,0,0-1.86,3.42h0a30.68,30.68,0,0,0,.5,5.84h0c.35,1.18.87,1.38,1.15,1.38h0c.1,0,.16,0,.16,0h0l10.3.28,0,0Z" transform="translate(-0.03)"/><path class="cls-8" d="M296.49,149s2.8,0,2.89-1v-1l-2.71.36A5.31,5.31,0,0,0,296.49,149Z" transform="translate(-0.03)"/><polygon class="cls-9" points="322.71 153.13 321.48 152.13 322.04 153.61 320.71 154.47 322.29 154.39 322.71 155.92 323.12 154.39 324.7 154.47 323.37 153.61 323.94 152.13 322.71 153.13"/><polygon class="cls-9" points="300.58 153.16 299.11 152.57 300.08 153.82 299.06 155.03 300.54 154.5 301.38 155.84 301.33 154.26 302.87 153.88 301.35 153.44 301.47 151.86 300.58 153.16"/><line class="cls-10" x1="285.1" y1="150.61" x2="294.23" y2="155.69"/><path class="cls-4" d="M293.89,156.33l-9.12-5.08a.74.74,0,0,1-.29-1h0a.74.74,0,0,1,1-.29h0l9.12,5.08a.73.73,0,0,1,.29,1h0a.74.74,0,0,1-.65.38h0a.8.8,0,0,1-.36-.09Z" transform="translate(-0.03)"/><rect class="cls-1" x="287.85" y="154.7" width="3.24" height="15.97"/><polygon class="cls-1" points="365.4 154.74 287.51 154.74 289 152.71 365.4 152.71 365.4 154.74"/><path class="cls-1" d="M290.37,154.34a1.71,1.71,0,1,1-1.71-1.71A1.72,1.72,0,0,1,290.37,154.34Z" transform="translate(-0.03)"/><rect class="cls-6" x="375.69" y="160.3" width="18.37" height="15.52"/><path class="cls-4" d="M375,176.57v-17h19.84v17Zm19.11-.74v0Zm-17.64-.74h16.9V161H376.45v14.05Z" transform="translate(-0.03)"/><polygon class="cls-6" points="409.81 159.69 394.06 159.69 386.19 179.86 409.81 179.86 409.81 159.69"/><path class="cls-4" d="M385.67,180.23l8.16-20.92h16v0h.37v20.92Zm1.08-.74h22.71V160.05H394.34l-7.59,19.44Z" transform="translate(-0.03)"/><rect class="cls-6" x="292.38" y="156.58" width="84.63" height="22.35"/><path class="cls-4" d="M292,179.3V156.21H377.4V179.3Zm85-.37v0Zm-84.26-.37h83.89V157H292.77v21.61Z" transform="translate(-0.03)"/><rect class="cls-7" x="296.64" y="161.41" width="14.11" height="10.87" rx="0.57"/><path class="cls-4" d="M296.29,172.65V161h14.85v11.61Zm14.48-.37v0ZM297,171.91H310.4V161.78H297v10.13Z" transform="translate(-0.03)"/><rect class="cls-7" x="315.5" y="161.41" width="14.11" height="10.87" rx="0.57"/><path class="cls-4" d="M315.16,172.65V161H330v11.61Zm14.48-.37v0Zm-13.75-.36h13.38V161.78H315.89v10.14Z" transform="translate(-0.03)"/><rect class="cls-7" x="334.36" y="161.41" width="14.11" height="10.87" rx="0.57"/><path class="cls-4" d="M334,172.65V161h14.84v11.61Zm14.48-.37v0Zm-13.74-.36h13.37V161.78H334.76v10.14Z" transform="translate(-0.03)"/><rect class="cls-7" x="353.23" y="161.41" width="14.11" height="10.87" rx="0.57"/><path class="cls-4" d="M352.89,172.65V161h14.84v11.61Zm14.47-.37v0Zm-13.74-.37H367V161.78H353.62v10.13Z" transform="translate(-0.03)"/><path class="cls-7" d="M406.35,173.22a.57.57,0,0,1-.56.57h-13a.38.38,0,0,1-.38-.54l3.55-9.8a.88.88,0,0,1,.76-.53h9a.56.56,0,0,1,.56.56Z" transform="translate(-0.03)"/><path class="cls-4" d="M391.72,174.15l4.21-11.61h10.79v11.61Zm14.63-.36v0Zm-13.58-.38H406V163.29h-9.54l-3.67,10.12Z" transform="translate(-0.03)"/><polygon class="cls-6" points="321.12 156.42 377.66 151.3 413.13 149.75 409.81 159.69 394.06 159.69 394.84 156.53 376.29 156.52 321.12 156.42"/><path class="cls-4" d="M393.61,160.05l.12-.46.67-2.69-18.08,0-55.18-.09v-.37l0,.37,0-.37v.37l0-.74,56.56-5.12,36-1.58-3.57,10.7Zm-17.29-3.9h19l-.1.46-.67,2.69h15l3.07-9.17-34.91,1.53-48.56,4.39,47.16.09Z" transform="translate(-0.03)"/><rect class="cls-11" x="275.97" y="150.61" width="9.13" height="6.44"/><polygon class="cls-12" points="1351.87 102.53 1348.76 102.53 1348.76 152.75 1353.51 152.75 1351.87 102.53"/><rect class="cls-12" x="1343.91" y="109.68" width="6.84" height="3.01"/><rect class="cls-13" x="1356.67" y="146.93" width="5.67" height="16.77"/><rect class="cls-13" x="1354.95" y="144.46" width="8.88" height="3.95"/><rect class="cls-6" x="1339.03" y="152.88" width="23.2" height="22.35"/><path class="cls-4" d="M1338.69,175.6V152.51h23.93V175.6Zm23.57-.37v0Zm-22.84-.37h22.47V153.24h-22.47v21.62Z" transform="translate(-0.03)"/><polygon class="cls-14" points="1345.42 116.03 1335.84 113.46 1345.42 110.98 1345.42 116.03"/><polygon class="cls-6" points="279.92 177.4 281.04 169.87 293.99 170.67 296.2 172.73 366.89 175.87 430.15 175.92 456.24 181.59 387.6 181.48 319.7 181.29 279.92 177.4"/><path class="cls-4" d="M387.62,181.85l-67.93-.19-39.78-3.9,0-.36.36,0-.36,0,0,.36-.39,0,1.22-8.24,13.42.82,2.22,2.06,70.54,3.14,63.33.05,26.09,5.68-.08.73-68.64-.11Zm-67.89-.93,67.9.19,65.17.1-22.63-4.93-63.27-.05-70.83-3.14L293.85,171l-12.48-.76-1,6.8,39.36,3.86Z" transform="translate(-0.03)"/><rect class="cls-4" x="308.41" y="201.69" width="90.65" height="13.32"/><rect class="cls-4" x="288.06" y="203.67" width="14.06" height="11.1"/><rect class="cls-4" x="296.2" y="197.74" width="3.95" height="7.16"/><path class="cls-6" d="M344.23,183.09c-44.6-.92-63.58-3.23-63.59-3.23h0a.37.37,0,0,1-.33-.41h0a.37.37,0,0,1,.41-.33h0c.06,0,18.94,2.31,63.52,3.24h0a.36.36,0,0,1,.35.38h0a.36.36,0,0,1-.36.35h0Z" transform="translate(-0.03)"/><rect class="cls-1" x="410.23" y="169.13" width="865.53" height="13.08"/><polygon class="cls-6" points="444.14 179.43 444.14 172.03 447.11 172.03 447.11 179.43 444.14 179.43 444.14 179.43"/><polygon class="cls-6" points="420.72 179.43 420.72 172.03 423.67 172.03 423.67 179.43 420.72 179.43 420.72 179.43"/><polygon class="cls-6" points="468.01 179.43 468.01 172.03 470.97 172.03 470.97 179.43 468.01 179.43 468.01 179.43"/><polygon class="cls-6" points="491.88 179.43 491.88 172.03 494.84 172.03 494.84 179.43 491.88 179.43 491.88 179.43"/><polygon class="cls-6" points="515.75 179.43 515.75 172.03 518.71 172.03 518.71 179.43 515.75 179.43 515.75 179.43"/><polygon class="cls-6" points="539.61 179.43 539.61 172.03 542.58 172.03 542.58 179.43 539.61 179.43 539.61 179.43"/><polygon class="cls-6" points="563.48 179.43 563.48 172.03 566.44 172.03 566.44 179.43 563.48 179.43 563.48 179.43"/><polygon class="cls-6" points="587.35 179.43 587.35 172.03 590.3 172.03 590.3 179.43 587.35 179.43 587.35 179.43"/><polygon class="cls-6" points="611.21 179.43 611.21 172.03 614.17 172.03 614.17 179.43 611.21 179.43 611.21 179.43"/><polygon class="cls-6" points="635.08 179.43 635.08 172.03 638.04 172.03 638.04 179.43 635.08 179.43 635.08 179.43"/><polygon class="cls-6" points="658.94 179.43 658.94 172.03 661.9 172.03 661.9 179.43 658.94 179.43 658.94 179.43"/><polygon class="cls-6" points="682.81 179.43 682.81 172.03 685.77 172.03 685.77 179.43 682.81 179.43 682.81 179.43"/><polygon class="cls-6" points="706.68 179.43 706.68 172.03 709.63 172.03 709.63 179.43 706.68 179.43 706.68 179.43"/><polygon class="cls-6" points="730.54 179.43 730.54 172.03 733.5 172.03 733.5 179.43 730.54 179.43 730.54 179.43"/><polygon class="cls-6" points="754.4 179.43 754.4 172.03 757.37 172.03 757.37 179.43 754.4 179.43 754.4 179.43"/><polygon class="cls-6" points="778.27 179.43 778.27 172.03 781.24 172.03 781.24 179.43 778.27 179.43 778.27 179.43"/><polygon class="cls-6" points="802.14 179.43 802.14 172.03 805.1 172.03 805.1 179.43 802.14 179.43 802.14 179.43"/><polygon class="cls-6" points="826.01 179.43 826.01 172.03 828.96 172.03 828.96 179.43 826.01 179.43 826.01 179.43"/><polygon class="cls-6" points="849.87 179.43 849.87 172.03 852.83 172.03 852.83 179.43 849.87 179.43 849.87 179.43"/><polygon class="cls-6" points="873.74 179.43 873.74 172.03 876.7 172.03 876.7 179.43 873.74 179.43 873.74 179.43"/><polygon class="cls-6" points="897.6 179.43 897.6 172.03 900.57 172.03 900.57 179.43 897.6 179.43 897.6 179.43"/><polygon class="cls-6" points="921.47 179.43 921.47 172.03 924.43 172.03 924.43 179.43 921.47 179.43 921.47 179.43"/><polygon class="cls-6" points="945.34 179.43 945.34 172.03 948.29 172.03 948.29 179.43 945.34 179.43 945.34 179.43"/><polygon class="cls-6" points="969.2 179.43 969.2 172.03 972.16 172.03 972.16 179.43 969.2 179.43 969.2 179.43"/><polygon class="cls-6" points="993.07 179.43 993.07 172.03 996.03 172.03 996.03 179.43 993.07 179.43 993.07 179.43"/><polygon class="cls-6" points="1016.93 179.43 1016.93 172.03 1019.9 172.03 1019.9 179.43 1016.93 179.43 1016.93 179.43"/><polygon class="cls-6" points="1040.8 179.43 1040.8 172.03 1043.76 172.03 1043.76 179.43 1040.8 179.43 1040.8 179.43"/><polygon class="cls-6" points="1064.67 179.43 1064.67 172.03 1067.63 172.03 1067.63 179.43 1064.67 179.43 1064.67 179.43"/><polygon class="cls-6" points="1088.53 179.43 1088.53 172.03 1091.49 172.03 1091.49 179.43 1088.53 179.43 1088.53 179.43"/><polygon class="cls-6" points="410.29 172.58 410.29 171.1 1274.65 171.1 1274.65 172.58 410.29 172.58 410.29 172.58"/><rect class="cls-1" x="417.2" y="150.01" width="2.22" height="20.84"/><polygon class="cls-6" points="1088.47 179.67 1088.47 172.27 1091.43 172.27 1091.43 179.67 1088.47 179.67 1088.47 179.67"/><polygon class="cls-6" points="1112.33 179.67 1112.33 172.27 1115.3 172.27 1115.3 179.67 1112.33 179.67 1112.33 179.67"/><polygon class="cls-6" points="1136.21 179.67 1136.21 172.27 1139.16 172.27 1139.16 179.67 1136.21 179.67 1136.21 179.67"/><polygon class="cls-6" points="1160.07 179.67 1160.07 172.27 1163.03 172.27 1163.03 179.67 1160.07 179.67 1160.07 179.67"/><polygon class="cls-6" points="1160.1 179.67 1160.1 172.27 1163.06 172.27 1163.06 179.67 1160.1 179.67 1160.1 179.67"/><polygon class="cls-6" points="1183.96 179.67 1183.96 172.27 1186.92 172.27 1186.92 179.67 1183.96 179.67 1183.96 179.67"/><polygon class="cls-6" points="1207.83 179.67 1207.83 172.27 1210.79 172.27 1210.79 179.67 1207.83 179.67 1207.83 179.67"/><polygon class="cls-6" points="1231.7 179.67 1231.7 172.27 1234.65 172.27 1234.65 179.67 1231.7 179.67 1231.7 179.67"/><polygon class="cls-6" points="1255.63 179.42 1255.63 172.03 1258.59 172.03 1258.59 179.42 1255.63 179.42 1255.63 179.42"/><polygon class="cls-6" points="1239.13 175.91 1291.67 166.41 1406.26 158.71 1407.61 167.4 1404.28 169.63 1299.44 175.54 1239.13 175.91"/><path class="cls-4" d="M1238.78,175.94a.37.37,0,0,1,.31-.39h0l52.58-9.51,114.58-7.71a.4.4,0,0,1,.4.32h0l1.35,8.7-.16.36-3.34,2.22-.17.06-104.86,5.92-60.31.37a.38.38,0,0,1-.38-.34Zm.44.33-.07-.36.07.36Zm52.54-9.5-48.35,8.75,56-.35,104.74-5.91,3-2L1406,159.1l-114.2,7.67Z" transform="translate(-0.03)"/><path class="cls-4" d="M382.07,181.7l22.57-.12L410,174.8h890.27L1408,167.31v2.5l-10,40.51s-3,4.69-7.42,4.69H388.92s-20.59-1.95-45.14-4.81c-22.19-2.59-47.81-5.5-60.81-16.15l-3.39-16.29S351.6,182,382.07,181.7Z" transform="translate(-0.03)"/><rect class="cls-1" x="1216.99" y="139.27" width="2.84" height="30.59"/><rect class="cls-1" x="1103.27" y="139.27" width="2.84" height="30.59"/><rect class="cls-1" x="989.55" y="139.27" width="2.84" height="30.59"/><rect class="cls-1" x="875.65" y="139.27" width="2.84" height="30.59"/><rect class="cls-1" x="761.56" y="139.27" width="2.84" height="30.59"/><rect class="cls-1" x="647.66" y="139.27" width="2.83" height="30.59"/><rect class="cls-1" x="533.94" y="139.27" width="2.84" height="30.59"/><line class="cls-4" x1="1406.78" y1="170.02" x2="1360.52" y2="173.35"/><path class="cls-6" d="M1360.17,173.38a.38.38,0,0,1,.35-.4h0l46.25-3.33a.38.38,0,0,1,.4.34h0a.38.38,0,0,1-.34.4h0l-46.26,3.33h0a.38.38,0,0,1-.37-.34Z" transform="translate(-0.03)"/><path class="cls-4" d="M291.73,154a.28.28,0,0,0,.16.05c.09,0,.15-.05.15-.12s0-.11-.13-.14-.19-.1-.19-.19a.21.21,0,0,1,.23-.2.27.27,0,0,1,.15,0l0,.07a.27.27,0,0,0-.13,0,.12.12,0,0,0-.13.1c0,.07,0,.1.14.13s.18.11.18.21-.08.2-.25.2a.29.29,0,0,1-.17,0Z" transform="translate(-0.03)"/><path class="cls-4" d="M292.35,153.5v.12h.13v.07h-.13V154c0,.06,0,.1.07.1h.05v.07h-.08a.15.15,0,0,1-.1,0,.26.26,0,0,1,0-.14v-.27h-.07v-.07h.07v-.09Z" transform="translate(-0.03)"/><path class="cls-4" d="M292.63,153.89a.16.16,0,0,0,.17.17l.14,0,0,.06a.52.52,0,0,1-.17,0,.24.24,0,0,1-.25-.25.25.25,0,0,1,.24-.27.22.22,0,0,1,.21.24.06.06,0,0,1,0,0Zm.27-.07a.13.13,0,0,0-.13-.15c-.09,0-.13.09-.14.15Z" transform="translate(-0.03)"/><path class="cls-4" d="M293.1,153.78v-.16h.08v.08h0a.18.18,0,0,1,.17-.09.23.23,0,0,1,.22.25.24.24,0,0,1-.23.27.18.18,0,0,1-.16-.08h0v.28h-.09Zm.09.14v0a.15.15,0,0,0,.14.1c.1,0,.15-.08.15-.19s-.05-.19-.15-.19a.15.15,0,0,0-.14.12v.12Z" transform="translate(-0.03)"/><path class="cls-4" d="M293.69,153.39h.09v.31h0a.13.13,0,0,1,.07-.06.14.14,0,0,1,.09,0c.07,0,.18,0,.18.21v.3H294v-.29c0-.08,0-.14-.11-.14a.11.11,0,0,0-.12.09s0,0,0,0v.3h-.09Z" transform="translate(-0.03)"/><path class="cls-4" d="M294.62,154v.12h-.08v-.06h0a.18.18,0,0,1-.15.07.13.13,0,0,1-.15-.14c0-.12.1-.19.3-.19h0a.12.12,0,0,0-.12-.13.28.28,0,0,0-.13,0l0-.06a.39.39,0,0,1,.17,0c.15,0,.19.1.19.21Zm-.09-.13c-.1,0-.21,0-.21.11s0,.09.08.09a.13.13,0,0,0,.12-.09v-.11Z" transform="translate(-0.03)"/><path class="cls-4" d="M294.76,153.76v-.14h.08v.08h0a.18.18,0,0,1,.16-.09c.07,0,.18,0,.18.21v.3h-.09v-.29c0-.08,0-.14-.12-.14a.12.12,0,0,0-.12.09.06.06,0,0,0,0,0v.3h-.09Z" transform="translate(-0.03)"/><path class="cls-4" d="M295.56,153.39h.09v.73h-.09Z" transform="translate(-0.03)"/><path class="cls-4" d="M295.85,153.89a.16.16,0,0,0,.17.17l.14,0,0,.06a.58.58,0,0,1-.17,0,.24.24,0,0,1-.25-.25.25.25,0,0,1,.24-.27.22.22,0,0,1,.21.24s0,0,0,0Zm.27-.07a.14.14,0,0,0-.13-.15c-.09,0-.13.09-.14.15Z" transform="translate(-0.03)"/><path class="cls-4" d="M296.53,154a.28.28,0,0,0,.16.05c.09,0,.14-.05.14-.12s0-.11-.12-.14-.19-.1-.19-.19a.21.21,0,0,1,.23-.2.27.27,0,0,1,.15,0l0,.07a.27.27,0,0,0-.13,0,.12.12,0,0,0-.13.1c0,.07,0,.1.14.13s.18.11.18.21-.08.2-.25.2a.29.29,0,0,1-.17,0Z" transform="translate(-0.03)"/><path class="cls-4" d="M297.41,154v.12h-.08v-.06h0a.18.18,0,0,1-.15.07A.15.15,0,0,1,297,154c0-.12.11-.19.3-.19h0c0-.05,0-.13-.11-.13a.25.25,0,0,0-.13,0l0-.06a.38.38,0,0,1,.16,0c.16,0,.2.1.2.21Zm-.09-.13c-.1,0-.22,0-.22.11a.08.08,0,0,0,.09.09.13.13,0,0,0,.12-.09v-.11Z" transform="translate(-0.03)"/><path class="cls-4" d="M298,154.05a.3.3,0,0,1-.07.23.31.31,0,0,1-.19.06.42.42,0,0,1-.16,0l0-.07a.33.33,0,0,0,.15,0c.09,0,.16-.05.16-.18V154h0a.19.19,0,0,1-.16.08.22.22,0,0,1-.21-.24c0-.18.11-.27.22-.27a.17.17,0,0,1,.16.09h0v-.08H298v.43Zm-.09-.23s0,0,0,0a.12.12,0,0,0-.12-.1c-.09,0-.15.07-.15.19s.05.18.15.18a.14.14,0,0,0,.12-.09.09.09,0,0,0,0-.05Z" transform="translate(-0.03)"/><path class="cls-4" d="M298.18,153.89a.16.16,0,0,0,.17.17l.14,0,0,.06a.52.52,0,0,1-.17,0,.24.24,0,0,1-.25-.25.25.25,0,0,1,.24-.27.22.22,0,0,1,.21.24s0,0,0,0Zm.27-.07a.14.14,0,0,0-.13-.15c-.09,0-.13.09-.14.15Z" transform="translate(-0.03)"/></g><g id="Container"><rect class="cls-15" width="112.67" height="20.98"/><polygon class="cls-4" points="4.32 19.73 4.32 1.48 5.06 1.48 5.06 19.73 4.32 19.73 4.32 19.73"/><polygon class="cls-4" points="8.02 19.73 8.02 1.48 8.76 1.48 8.76 19.73 8.02 19.73 8.02 19.73"/><polygon class="cls-4" points="11.72 19.73 11.72 1.48 12.46 1.48 12.46 19.73 11.72 19.73 11.72 19.73"/><polygon class="cls-4" points="15.42 19.73 15.42 1.48 16.16 1.48 16.16 19.73 15.42 19.73 15.42 19.73"/><polygon class="cls-4" points="19.12 19.73 19.12 1.48 19.86 1.48 19.86 19.73 19.12 19.73 19.12 19.73"/><polygon class="cls-4" points="22.82 19.73 22.82 1.48 23.56 1.48 23.56 19.73 22.82 19.73 22.82 19.73"/><polygon class="cls-4" points="26.52 19.73 26.52 1.48 27.26 1.48 27.26 19.73 26.52 19.73 26.52 19.73"/><polygon class="cls-4" points="30.22 19.73 30.22 1.48 30.96 1.48 30.96 19.73 30.22 19.73 30.22 19.73"/><polygon class="cls-4" points="33.92 19.73 33.92 1.48 34.66 1.48 34.66 19.73 33.92 19.73 33.92 19.73"/><polygon class="cls-4" points="37.62 19.73 37.62 1.48 38.36 1.48 38.36 19.73 37.62 19.73 37.62 19.73"/><polygon class="cls-4" points="41.32 19.73 41.32 1.48 42.06 1.48 42.06 19.73 41.32 19.73 41.32 19.73"/><polygon class="cls-4" points="45.02 19.73 45.02 1.48 45.76 1.48 45.76 19.73 45.02 19.73 45.02 19.73"/><polygon class="cls-4" points="48.72 19.73 48.72 1.48 49.46 1.48 49.46 19.73 48.72 19.73 48.72 19.73"/><polygon class="cls-4" points="52.42 19.73 52.42 1.48 53.16 1.48 53.16 19.73 52.42 19.73 52.42 19.73"/><polygon class="cls-4" points="56.12 19.73 56.12 1.48 56.86 1.48 56.86 19.73 56.12 19.73 56.12 19.73"/><polygon class="cls-4" points="59.82 19.73 59.82 1.48 60.56 1.48 60.56 19.73 59.82 19.73 59.82 19.73"/><polygon class="cls-4" points="63.52 19.73 63.52 1.48 64.26 1.48 64.26 19.73 63.52 19.73 63.52 19.73"/><polygon class="cls-4" points="67.22 19.73 67.22 1.48 67.96 1.48 67.96 19.73 67.22 19.73 67.22 19.73"/><polygon class="cls-4" points="70.92 19.73 70.92 1.48 71.66 1.48 71.66 19.73 70.92 19.73 70.92 19.73"/><polygon class="cls-4" points="74.62 19.73 74.62 1.48 75.36 1.48 75.36 19.73 74.62 19.73 74.62 19.73"/><polygon class="cls-4" points="78.33 19.73 78.33 1.48 79.06 1.48 79.06 19.73 78.33 19.73 78.33 19.73"/><polygon class="cls-4" points="82.02 19.73 82.02 1.48 82.76 1.48 82.76 19.73 82.02 19.73 82.02 19.73"/><polygon class="cls-4" points="85.72 19.73 85.72 1.48 86.46 1.48 86.46 19.73 85.72 19.73 85.72 19.73"/><polygon class="cls-4" points="89.42 19.73 89.42 1.48 90.16 1.48 90.16 19.73 89.42 19.73 89.42 19.73"/><polygon class="cls-4" points="93.12 19.73 93.12 1.48 93.86 1.48 93.86 19.73 93.12 19.73 93.12 19.73"/><polygon class="cls-4" points="96.83 19.73 96.83 1.48 97.57 1.48 97.57 19.73 96.83 19.73 96.83 19.73"/><polygon class="cls-4" points="100.52 19.73 100.52 1.48 101.26 1.48 101.26 19.73 100.52 19.73 100.52 19.73"/><polygon class="cls-4" points="104.22 19.73 104.22 1.48 104.96 1.48 104.96 19.73 104.22 19.73 104.22 19.73"/><polygon class="cls-4" points="107.93 19.73 107.93 1.48 108.66 1.48 108.66 19.73 107.93 19.73 107.93 19.73"/></g><g id="Stuurhut"><rect class="cls-6" x="24.1" y="85.39" width="11.1" height="47.36"/><path class="cls-4" d="M23.76,133.12V85H35.6v48.1Zm11.46-.37v0Zm-10.72-.38H34.86V85.75H24.5v46.62Z" transform="translate(-0.03)"/><rect class="cls-6" x="22.99" y="115.73" width="13.32" height="38.3"/><path class="cls-4" d="M22.64,154.39v-39H36.7v39Zm13.7-.37v0Zm-13-.37H36V116.1H23.38v37.55Z" transform="translate(-0.03)"/><polygon class="cls-12" points="12.07 84.46 5.04 83.54 4.49 82.06 12.07 82.06 12.07 84.46"/><rect class="cls-6" x="12.01" y="76.01" width="36.76" height="9.13"/><path class="cls-4" d="M11.67,85.51V75.64H49.16v9.87Zm37.12-.37v0Zm-36.38-.37h36v-8.4h-36v8.4Z" transform="translate(-0.03)"/><polygon class="cls-12" points="8.01 60.53 4.9 60.53 4.9 82.26 9.65 82.26 8.01 60.53"/><rect class="cls-12" x="0.05" y="63.43" width="6.84" height="1.48"/><polygon class="cls-4" points="50.12 76.67 10.87 76.67 10.05 65.87 54.01 64.76 50.12 76.67"/><polygon class="cls-7" points="49.91 75.41 11.84 75.41 11.07 67.36 52.8 66.25 49.91 75.41"/><polygon class="cls-4" points="44.62 75.94 44.62 65.64 45.37 65.64 45.37 75.94 44.62 75.94 44.62 75.94"/><polygon class="cls-4" points="34.32 75.94 34.32 65.64 35.06 65.64 35.06 75.94 34.32 75.94 34.32 75.94"/><polygon class="cls-4" points="35.02 76.23 35.75 76.23 35.8 85.55 35.05 85.56 35.02 76.23 35.02 76.23"/><path class="cls-1" d="M9.07,66a.74.74,0,0,1,.72-.76h0l45.08-1.11a.74.74,0,0,1,.76.72h0a.73.73,0,0,1-.72.76h0L9.83,66.71h0A.74.74,0,0,1,9.07,66Z" transform="translate(-0.03)"/><path class="cls-12" d="M29.55,84.46V77.89a.38.38,0,0,1,.11-.26h0a.36.36,0,0,1,.26-.11H40.84a.37.37,0,0,1,.36.37h0a.36.36,0,0,1-.36.37H30.29v6.21h0a.38.38,0,0,1-.38.37h0a.37.37,0,0,1-.37-.37Z" transform="translate(-0.03)"/><path class="cls-12" d="M29.92,82.24a.37.37,0,0,1-.37-.37h0a.38.38,0,0,1,.37-.37h8.7a.38.38,0,0,1,.37.37h0a.37.37,0,0,1-.37.37h-8.7Z" transform="translate(-0.03)"/><path class="cls-12" d="M34.74,84.56V77.9a.37.37,0,0,1,.36-.38h0a.37.37,0,0,1,.37.38h0v6.66a.36.36,0,0,1-.37.36h0a.36.36,0,0,1-.36-.36Z" transform="translate(-0.03)"/><polygon class="cls-6" points="42.13 75.89 56.3 74.91 55.65 75.89 54.17 85.14 36.81 85.14 42.13 75.89"/><path class="cls-4" d="M36.19,85.51l5.65-9.8.1-.18,15.1-1-.41.62-.59.84-1.53,9.57Zm1.28-.74H53.88l1.48-9.09.24-.36-13.22.92-4.91,8.53Z" transform="translate(-0.03)"/><rect class="cls-4" x="29.25" y="84.09" width="24.92" height="1.05"/><rect class="cls-12" x="25.43" y="154.45" width="9.42" height="16.29" rx="0.57"/><path class="cls-4" d="M25.09,171.11v-17H35.25v17Zm9.78-.37v0Zm-9-.36h8.68V154.81H25.83v15.57Z" transform="translate(-0.03)"/></g></svg>
